<?xml version="1.0" encoding="UTF-8" standalone="no"?>
<!-- Created with Inkscape (http://www.inkscape.org/) -->

<svg
   xmlns:dc="http://purl.org/dc/elements/1.1/"
   xmlns:cc="http://creativecommons.org/ns#"
   xmlns:rdf="http://www.w3.org/1999/02/22-rdf-syntax-ns#"
   xmlns:svg="http://www.w3.org/2000/svg"
   xmlns="http://www.w3.org/2000/svg"
   xmlns:sodipodi="http://sodipodi.sourceforge.net/DTD/sodipodi-0.dtd"
   xmlns:inkscape="http://www.inkscape.org/namespaces/inkscape"
   width="21.166691mm"
   height="20.695599mm"
   viewBox="0 0 21.166691 20.695599"
   version="1.1"
   id="svg3112"
   inkscape:version="0.92.5 (2060ec1f9f, 2020-04-08)"
   sodipodi:docname="24_7_support.svg">
  <defs
     id="defs3106" />
  <sodipodi:namedview
     id="base"
     pagecolor="#ffffff"
     bordercolor="#666666"
     borderopacity="1.0"
     inkscape:pageopacity="0.0"
     inkscape:pageshadow="2"
     inkscape:zoom="1.2140625"
     inkscape:cx="-89.729698"
     inkscape:cy="39.109791"
     inkscape:document-units="mm"
     inkscape:current-layer="layer1"
     showgrid="false"
     inkscape:window-width="1920"
     inkscape:window-height="1031"
     inkscape:window-x="0"
     inkscape:window-y="25"
     inkscape:window-maximized="1" />
  <metadata
     id="metadata3109">
    <rdf:RDF>
      <cc:Work
         rdf:about="">
        <dc:format>image/svg+xml</dc:format>
        <dc:type
           rdf:resource="http://purl.org/dc/dcmitype/StillImage" />
        <dc:title></dc:title>
      </cc:Work>
    </rdf:RDF>
  </metadata>
  <g
     inkscape:label="Layer 1"
     inkscape:groupmode="layer"
     id="layer1"
     transform="translate(-95.249992,-138.48553)">
    <g
       transform="translate(-534.74542,-88.108484)"
       id="g3092">
      <path
         sodipodi:nodetypes="ccccccccccccccccccccccscccccccccccccccccccccccccccccscccccccccccccccscc"
         style="fill:#dd6e24;fill-opacity:1;stroke-width:0.01861732"
         d="m 640.31985,241.50524 c -0.12047,-0.005 -0.16787,-0.013 -0.14894,-0.025 0.02,-0.0127 0.007,-0.0177 -0.0467,-0.0179 -0.1157,-3.2e-4 -0.50077,-0.0677 -0.7384,-0.12898 -0.43417,-0.11194 -0.93862,-0.32832 -1.30649,-0.56041 -0.13142,-0.0829 -0.18889,-0.10986 -0.20335,-0.0954 -0.0141,0.0141 -0.0151,0.0821 -0.003,0.22726 0.01,0.11391 0.0128,0.20982 0.007,0.21313 -0.021,0.013 -0.4652,0.0523 -0.47539,0.042 -0.006,-0.006 -0.0422,-0.31769 -0.0805,-0.69268 -0.0696,-0.68102 -0.0696,-0.68183 -0.0312,-0.68979 0.0795,-0.0165 1.33943,-0.13906 1.34739,-0.13107 0.0151,0.0151 0.0564,0.4656 0.0438,0.47819 -0.007,0.007 -0.11696,0.0235 -0.24487,0.0372 -0.1942,0.0208 -0.23355,0.0303 -0.23868,0.0573 -0.008,0.0422 0.20841,0.18263 0.50846,0.32976 0.5226,0.25626 1.03402,0.39237 1.60626,0.42748 1.25383,0.077 2.43456,-0.382 3.30984,-1.28654 0.64915,-0.67085 1.04664,-1.50629 1.16314,-2.44461 0.027,-0.21672 0.027,-0.77204 0,-0.98672 -0.0734,-0.5875 -0.27347,-1.17997 -0.56083,-1.66125 -0.0536,-0.0898 -0.10059,-0.16917 -0.10444,-0.17639 -0.007,-0.0139 0.37244,-0.27543 0.39992,-0.27543 0.0191,0 0.21466,0.32665 0.30673,0.51198 0.10282,0.20697 0.22974,0.53893 0.30252,0.79123 0.0701,0.24309 0.15772,0.71044 0.15821,0.84392 0,0.0483 0.006,0.0684 0.0158,0.0533 0.022,-0.0349 0.0381,0.45362 0.022,0.67591 -0.007,0.1024 -0.0158,0.16942 -0.0184,0.14894 -0.003,-0.0205 -0.0164,0.0569 -0.0302,0.17206 -0.076,0.62734 -0.3183,1.32425 -0.64896,1.86654 -0.35117,0.57595 -0.87248,1.1155 -1.4529,1.5037 -0.55856,0.37358 -1.33756,0.65974 -2.00663,0.73711 -0.11512,0.0133 -0.19257,0.0288 -0.17209,0.0345 0.0204,0.006 -0.01,0.0113 -0.0669,0.0125 -0.0573,10e-4 -0.17879,0.005 -0.26998,0.009 -0.0911,0.004 -0.24529,0.003 -0.34249,-6.4e-4 z m -3.81149,-2.33773 c -0.214,-0.36143 -0.3636,-0.70787 -0.48026,-1.11238 -0.0701,-0.24308 -0.15772,-0.71044 -0.15822,-0.84392 0,-0.0483 -0.006,-0.0684 -0.0158,-0.0533 -0.0223,0.0352 -0.0394,-0.37469 -0.0266,-0.63524 0.006,-0.12096 0.0164,-0.21115 0.023,-0.20043 0.007,0.0107 0.0217,-0.0683 0.0339,-0.17567 0.0666,-0.59584 0.31626,-1.31244 0.64534,-1.85214 0.35098,-0.57562 0.87318,-1.11617 1.4534,-1.50443 0.55196,-0.36936 1.34529,-0.66169 1.99178,-0.73393 0.10733,-0.012 0.18638,-0.0273 0.17567,-0.0339 -0.0312,-0.0192 0.38476,-0.034 0.63334,-0.0226 0.13247,0.006 0.21679,0.0169 0.20249,0.026 -0.0155,0.01 0.003,0.0156 0.0477,0.0158 0.10098,3.2e-4 0.41399,0.051 0.63522,0.10277 0.50806,0.11881 1.01725,0.3331 1.44791,0.60934 0.10699,0.0686 0.15177,0.0883 0.16685,0.0732 0.0148,-0.0147 0.0158,-0.08 0.004,-0.22774 -0.01,-0.11391 -0.0128,-0.2098 -0.008,-0.21308 0.02,-0.0124 0.46635,-0.0512 0.47614,-0.0414 0.006,0.006 0.0416,0.31704 0.0799,0.69203 0.0696,0.68108 0.0696,0.68183 0.0312,0.69003 -0.0769,0.0164 -1.33917,0.13907 -1.34735,0.1309 -0.0125,-0.0125 -0.0572,-0.46443 -0.047,-0.47526 0.005,-0.005 0.11488,-0.0219 0.24463,-0.0372 0.30002,-0.0355 0.30962,-0.053 0.10259,-0.18669 -0.55379,-0.35762 -1.27467,-0.58785 -1.97527,-0.63086 -1.92919,-0.11842 -3.68304,1.06955 -4.28791,2.90444 -0.37888,1.14938 -0.23875,2.44575 0.37559,3.47469 0.0536,0.0898 0.10062,0.16917 0.10447,0.17639 0.007,0.0139 -0.37244,0.27543 -0.39995,0.27543 -0.009,0 -0.0668,-0.0859 -0.12899,-0.19083 z"
         id="path1132"
         inkscape:connector-curvature="0" />
      <path
         sodipodi:nodetypes="csscccsscsccccscsccccsscccscssscccsscsscssccccccccscccccccccccscccccscccccccsccscc"
         style="fill:#dd6e24;fill-opacity:1;stroke-width:0.04252284"
         d="m 642.05799,247.2615 c -0.99496,-0.15521 -1.54037,-1.20446 -1.09669,-2.10981 0.15088,-0.3079 0.38693,-0.53488 0.71739,-0.68983 l 0.23898,-0.11205 h 1.14901 1.14901 l 0.28435,0.13999 c 0.30257,0.14895 0.50778,0.35222 0.67632,0.66992 l 0.10046,0.18938 h 0.96299 c 0.84047,0 0.99776,-0.0107 1.23631,-0.0844 0.73125,-0.22586 1.29971,-0.85305 1.46044,-1.61131 0.0757,-0.35712 0.0829,-1.41222 0.0101,-1.48498 -0.0281,-0.0281 -0.0903,-0.051 -0.1382,-0.0511 -0.16429,-5e-5 -0.59627,-0.24051 -0.7617,-0.42398 -0.0903,-0.10019 -0.20515,-0.27061 -0.25514,-0.37872 -0.0893,-0.19309 -0.0909,-0.23703 -0.0909,-2.49279 0,-2.09383 0.007,-2.31538 0.0758,-2.51349 0.13997,-0.40095 0.48702,-0.70752 0.95992,-0.84796 0.21837,-0.0648 0.21866,-0.0652 0.21841,-0.24401 -6.4e-4,-0.49912 -0.23826,-1.58969 -0.49751,-2.28395 -1.44894,-3.88011 -5.49238,-6.11829 -9.56384,-5.29392 -3.14638,0.63707 -5.67151,3.05028 -6.4628,6.17636 -0.14467,0.57152 -0.26592,1.42788 -0.21936,1.54922 0.014,0.0365 0.0988,0.08 0.18835,0.0966 0.41228,0.0765 0.83967,0.4453 0.97913,0.845 0.0703,0.20141 0.0767,0.41264 0.0767,2.5161 v 2.29624 l -0.11781,0.23989 c -0.30059,0.61208 -0.91833,0.89423 -1.63061,0.74478 -0.82685,-0.1735 -1.51142,-0.83614 -1.67429,-1.62067 -0.0317,-0.15288 -0.0433,-0.76603 -0.0346,-1.83781 l 0.013,-1.60839 0.11915,-0.28125 c 0.16168,-0.38165 0.46117,-0.74225 0.8119,-0.97756 0.16046,-0.10766 0.30593,-0.22248 0.32325,-0.25514 0.0173,-0.0327 0.0443,-0.23721 0.06,-0.45453 0.11912,-1.65168 0.79714,-3.41629 1.84964,-4.81391 0.39168,-0.52011 1.39034,-1.49854 1.91754,-1.8787 1.65374,-1.19249 3.46975,-1.78201 5.48545,-1.7807 1.30633,8.1e-4 2.36868,0.20278 3.50467,0.66618 2.71393,1.10706 4.76232,3.45083 5.48696,6.27815 0.14648,0.57152 0.27771,1.39259 0.279,1.74557 8e-4,0.23283 0.0241,0.2642 0.36726,0.49442 0.34886,0.23407 0.64849,0.59523 0.80988,0.97622 l 0.11915,0.28125 0.013,1.60839 c 0.0141,1.75752 0.002,1.89942 -0.21497,2.33431 -0.15247,0.30682 -0.55383,0.73066 -0.83983,0.88687 l -0.19135,0.10451 -0.0261,0.84974 c -0.0281,0.91601 -0.0753,1.18462 -0.29228,1.66319 -0.33726,0.74379 -1.00024,1.33654 -1.80782,1.61628 -0.32813,0.11367 -0.37556,0.11833 -1.33946,0.13155 -0.54961,0.008 -1.04219,0.0231 -1.09462,0.0345 -0.0611,0.0133 -0.13278,0.0947 -0.19963,0.22664 -0.13714,0.27064 -0.47887,0.57289 -0.7808,0.6906 -0.21962,0.0856 -0.32854,0.0956 -1.15669,0.10568 -0.50283,0.006 -1.02331,-0.006 -1.15662,-0.0267 z m 2.12883,-0.97259 c 0.35653,-0.25429 0.33279,-0.75103 -0.047,-0.98256 -0.1272,-0.0776 -0.21545,-0.0845 -1.07409,-0.0845 -1.04407,0 -1.12072,0.0182 -1.29717,0.30758 -0.18735,0.30727 -0.0231,0.73188 0.32521,0.8405 0.0668,0.0208 0.53291,0.0341 1.03575,0.0294 0.89018,-0.008 0.918,-0.0111 1.05725,-0.11045 z m -11.85666,-5.08651 c 0.25616,-0.13247 0.25374,-0.10935 0.25374,-2.42308 0,-2.35315 0.005,-2.30887 -0.28672,-2.43086 -0.41819,-0.17473 -1.06657,0.1647 -1.31309,0.68742 -0.0995,0.21096 -0.10027,0.22448 -0.10068,1.73417 -4.9e-4,1.64398 2e-5,1.64796 0.23884,1.9938 0.26615,0.38542 0.8798,0.60822 1.20791,0.43855 z m 17.24811,-0.0662 c 0.25642,-0.12413 0.46917,-0.34255 0.59328,-0.60909 0.10047,-0.21575 0.10103,-0.22549 0.10103,-1.74778 0,-1.51577 -0.002,-1.53291 -0.0995,-1.74344 -0.24052,-0.5142 -0.9012,-0.85986 -1.31392,-0.68742 -0.29194,0.12199 -0.28672,0.0777 -0.28672,2.43086 0,2.30248 -0.002,2.28403 0.24504,2.42372 0.1545,0.0874 0.50589,0.0565 0.76074,-0.0668 z"
         id="path1114"
         inkscape:connector-curvature="0" />
      <path
         sodipodi:nodetypes="ccccccscccccsccsssccccsscccccccscscccccssccscccccccccccccccccccccscccccccccccccccc"
         inkscape:connector-curvature="0"
         id="path1164"
         d="m 640.96691,237.97469 c 0.006,-0.023 0.20263,-0.59063 0.43736,-1.26132 l 0.42684,-1.21944 0.18201,-0.005 c 0.10013,-0.003 0.1888,10e-4 0.19701,0.01 0.0148,0.0148 -0.82814,2.44992 -0.86367,2.49513 -0.0125,0.0158 -0.0776,0.0233 -0.20421,0.0233 -0.18349,0 -0.18576,-6.4e-4 -0.17534,-0.0419 z m -3.56242,-0.38412 v -0.14676 l 0.4077,-0.38343 c 0.421,-0.39591 0.48591,-0.47675 0.48591,-0.60515 0,-0.14889 -0.0967,-0.22601 -0.28299,-0.22573 -0.0962,1.3e-4 -0.13487,0.0102 -0.21502,0.0562 -0.0537,0.0308 -0.0977,0.0643 -0.0977,0.0743 0,0.01 -0.0135,0.0182 -0.0296,0.0182 -0.041,0 -0.34267,-0.16628 -0.34267,-0.18889 0,-0.0366 0.18799,-0.20021 0.28405,-0.24721 0.28185,-0.1379 0.69044,-0.12994 0.92689,0.0181 0.17106,0.10708 0.25115,0.26862 0.2371,0.47837 -0.0145,0.21826 -0.0552,0.28326 -0.37072,0.59326 -0.1522,0.14956 -0.27676,0.2857 -0.27676,0.30253 0,0.0273 0.038,0.0306 0.35374,0.0306 h 0.35374 v 0.18618 0.18617 h -0.71678 -0.71676 z m 2.69384,0.13488 c -0.007,-0.007 -0.0128,-0.0861 -0.0128,-0.17541 0,-0.13097 -0.006,-0.16465 -0.0296,-0.17376 -0.0161,-0.006 -0.2424,-0.0113 -0.50268,-0.0113 h -0.47322 v -0.15427 -0.15427 l 0.40038,-0.55784 c 0.2202,-0.30682 0.4128,-0.57251 0.42802,-0.59043 0.0237,-0.0278 0.0617,-0.0326 0.26054,-0.0326 0.12807,0 0.23291,0.005 0.23291,0.0116 0,0.006 -0.16025,0.24165 -0.35609,0.52285 -0.19581,0.28121 -0.35711,0.52524 -0.35839,0.5423 -0.003,0.0272 0.023,0.031 0.2025,0.031 h 0.20478 l 0.009,-0.14894 0.009,-0.14894 h 0.2234 0.22343 l 0.009,0.14894 0.009,0.14894 0.13034,0.009 0.13031,0.009 0.005,0.18152 0.005,0.18152 -0.11707,3.2e-4 c -0.0644,1.3e-4 -0.12714,0.007 -0.1395,0.0146 -0.0141,0.009 -0.0246,0.0765 -0.0279,0.18124 l -0.005,0.16694 -0.22444,0.005 c -0.12342,0.003 -0.23025,-6.5e-4 -0.23738,-0.008 z m 2.55623,-0.007 c 0,-0.0109 0.13457,-0.3299 0.29906,-0.70892 0.16449,-0.37901 0.29631,-0.70336 0.29295,-0.72076 -0.005,-0.028 -0.0362,-0.0317 -0.26645,-0.0317 h -0.26041 l -0.009,0.13963 -0.009,0.13963 -0.20056,0.005 -0.20059,0.005 0.005,-0.3311 0.005,-0.33109 0.75866,-0.005 0.75868,-0.005 v 0.16311 0.16311 l -0.32928,0.76331 -0.32931,0.76331 -0.25597,0.005 c -0.17169,0.003 -0.25601,-0.001 -0.25601,-0.0146 z"
         style="fill:#f73e00;fill-opacity:0.91764706;stroke-width:0.01861732" />
    </g>
  </g>
</svg>
