<?xml version="1.0" encoding="UTF-8" standalone="no"?>
<!-- Created with Inkscape (http://www.inkscape.org/) -->

<svg
   xmlns:dc="http://purl.org/dc/elements/1.1/"
   xmlns:cc="http://creativecommons.org/ns#"
   xmlns:rdf="http://www.w3.org/1999/02/22-rdf-syntax-ns#"
   xmlns:svg="http://www.w3.org/2000/svg"
   xmlns="http://www.w3.org/2000/svg"
   xmlns:sodipodi="http://sodipodi.sourceforge.net/DTD/sodipodi-0.dtd"
   xmlns:inkscape="http://www.inkscape.org/namespaces/inkscape"
   width="18.238113mm"
   height="21.166666mm"
   viewBox="0 0 18.238113 21.166666"
   version="1.1"
   id="svg1320"
   inkscape:version="0.92.5 (2060ec1f9f, 2020-04-08)"
   sodipodi:docname="customized_solutions.svg">
  <defs
     id="defs1314" />
  <sodipodi:namedview
     id="base"
     pagecolor="#ffffff"
     bordercolor="#666666"
     borderopacity="1.0"
     inkscape:pageopacity="0.0"
     inkscape:pageshadow="2"
     inkscape:zoom="1.2140625"
     inkscape:cx="415.10923"
     inkscape:cy="-128.13385"
     inkscape:document-units="mm"
     inkscape:current-layer="layer1"
     showgrid="false"
     inkscape:window-width="1920"
     inkscape:window-height="1031"
     inkscape:window-x="0"
     inkscape:window-y="25"
     inkscape:window-maximized="1" />
  <metadata
     id="metadata1317">
    <rdf:RDF>
      <cc:Work
         rdf:about="">
        <dc:format>image/svg+xml</dc:format>
        <dc:type
           rdf:resource="http://purl.org/dc/dcmitype/StillImage" />
        <dc:title></dc:title>
      </cc:Work>
    </rdf:RDF>
  </metadata>
  <g
     inkscape:label="Layer 1"
     inkscape:groupmode="layer"
     id="layer1"
     transform="translate(38.321975,-93.764586)">
    <g
       id="g986"
       transform="matrix(0.23938996,0,0,0.23938996,-168.13379,56.94996)">
      <path
         sodipodi:nodetypes="ccsccsccccssccccssccsccccscsccccccccccsccssccsccscccccccssccccccsccccsccscscccccscccccscccccccccscccc"
         style="fill:#843bee;fill-opacity:1;stroke-width:0.26458332"
         d="m 572.67389,241.58477 c -0.93421,-0.80357 -0.98982,-2.15506 -0.11774,-2.86123 0.5424,-0.4392 1.15165,-0.48793 6.1002,-0.48793 4.94856,0 5.55781,0.0487 6.10021,0.48793 0.87208,0.70617 0.81647,2.05766 -0.11774,2.86123 -0.70313,0.60481 -0.84579,0.61959 -5.98247,0.61959 -5.13667,0 -5.27933,-0.0148 -5.98246,-0.61959 z m -4.86106,-6.59984 c -1.51032,-0.76416 -1.34854,-3.00589 0.25455,-3.52727 1.33746,-0.43498 19.94071,-0.45988 21.16663,-0.0283 1.09433,0.38523 1.56739,1.39065 1.17684,2.50118 -0.47588,1.35317 -0.76168,1.38689 -11.7545,1.38689 -7.65231,0 -10.34992,-0.0827 -10.84352,-0.33246 z m 1.49945,-7.45141 c -2.11677,-0.75493 -3.00177,-2.07405 -3.50861,-5.22968 -0.64656,-4.0256 -4.05273,-13.17722 -6.74043,-18.11002 -1.87978,-3.45 -2.43358,-5.55092 -2.56924,-9.74676 -0.1009,-3.12083 -0.0331,-4.06705 0.43044,-6.00849 1.61911,-6.78102 6.14924,-12.30898 12.53641,-15.29773 3.74005,-1.75009 9.12807,-2.44142 10.25384,-1.31565 0.65698,0.65698 0.68211,1.86916 0.0548,2.64385 -0.39018,0.48184 -0.88711,0.62765 -2.80005,0.82154 -7.15966,0.7257 -13.21266,5.52909 -15.59873,12.37845 -0.64252,1.84438 -0.81614,2.83631 -0.90853,5.19053 -0.15245,3.8848 0.24491,5.44217 2.67188,10.47178 3.43595,7.12062 6.22197,14.7804 6.66466,18.32355 0.2765,2.21307 0.4633,2.29322 5.34462,2.29322 3.68939,0 4.08835,0.0462 4.57134,0.52916 0.78784,0.78784 0.70556,2.2041 -0.16798,2.89122 -0.64138,0.5045 -1.03816,0.54744 -4.96093,0.53675 -2.89861,-0.008 -4.58709,-0.12691 -5.2735,-0.37172 z m 16.00445,-4.07281 c -0.38899,-0.4136 -1.02511,-1.29856 -1.4136,-1.9666 -0.89057,-1.53137 -1.96105,-2.08927 -4.31862,-2.25071 -1.01981,-0.0698 -2.1796,-0.29202 -2.57732,-0.49374 -2.04338,-1.03638 -2.00967,-4.71063 0.053,-5.77728 0.42687,-0.22075 1.35234,-0.40136 2.05659,-0.40136 5.48944,0 11.05043,-4.24577 12.79714,-9.7705 0.75061,-2.37415 0.75061,-5.8661 0,-8.24025 -1.5098,-4.7754 -5.92932,-8.68588 -10.74403,-9.50653 -2.85745,-0.48704 -4.10104,-1.55854 -4.10104,-3.53349 0,-1.91813 1.14429,-3.10908 3.32946,-3.4652 1.62627,-0.26504 2.65293,-1.02825 3.57068,-2.65441 0.93944,-1.6646 1.63348,-2.25253 2.65906,-2.25253 1.10091,0 4.10299,1.45939 4.61756,2.24473 0.43268,0.66034 0.43161,0.7953 -0.0206,2.61147 -0.68683,2.75816 -0.47676,3.50094 1.61822,5.72173 1.16913,1.23934 2.10988,1.97477 2.92361,2.28554 1.14523,0.43737 1.28935,0.43591 3.16848,-0.032 2.68953,-0.66974 3.16645,-0.47654 4.24727,1.72063 0.53294,1.08338 0.85114,2.13684 0.8599,2.84679 0.0148,1.20321 0.0476,1.16834 -2.86963,3.05423 -1.46385,0.94632 -1.87904,2.03875 -1.87856,4.94277 5.3e-4,3.11635 0.39574,4.03241 2.24855,5.21167 3.06812,1.95278 3.15524,2.15251 2.10573,4.82754 -0.9959,2.53838 -1.58445,3.05365 -3.21908,2.81823 -4.60448,-0.66314 -4.9014,-0.5851 -7.28565,1.91481 -2.18002,2.28578 -2.42072,3.17962 -1.65352,6.14035 0.58157,2.24434 0.31606,2.73055 -2.10097,3.84729 -2.41335,1.11503 -3.1449,1.1432 -4.07259,0.15684 z m -9.90152,-14.61505 c -0.3147,-0.1833 -0.46302,-0.59755 -0.46302,-1.29323 0,-1.41158 -0.17892,-1.76447 -1.22118,-2.40862 -0.73807,-0.45616 -1.13981,-0.52634 -2.18775,-0.38221 -1.18147,0.16249 -1.32858,0.11945 -1.84779,-0.54061 -0.7421,-0.94344 -0.71444,-1.19653 0.22964,-2.10101 0.66666,-0.6387 0.79375,-0.96435 0.79375,-2.03388 0,-1.32314 -0.20228,-1.63985 -1.72118,-2.69488 -0.59378,-0.41245 -0.68638,-0.62982 -0.5528,-1.2977 0.23972,-1.19861 0.63195,-1.51416 1.88209,-1.51416 0.96942,0 1.25153,-0.13748 1.97655,-0.96324 0.8515,-0.9698 0.90227,-1.33724 0.4018,-2.90796 -0.36882,-1.15754 2.25157,-2.40558 2.68411,-1.27839 0.24884,0.64845 1.46038,1.11684 2.54025,0.98208 0.70804,-0.0884 1.18387,-0.36243 1.65764,-0.95478 0.36548,-0.45696 0.79535,-0.98917 0.95526,-1.18268 0.30943,-0.37445 1.41517,-0.22451 2.0149,0.27322 0.18271,0.15164 0.33221,0.75308 0.33221,1.33655 0,0.87367 0.16671,1.21807 0.94488,1.95197 0.95536,0.90102 1.78676,1.08538 2.89158,0.6412 0.71848,-0.28886 1.31672,0.0706 1.7141,1.02995 0.30754,0.74248 0.27196,0.868 -0.49288,1.73911 -1.30948,1.49141 -1.03544,3.41197 0.62679,4.39271 0.72393,0.42712 0.93011,0.71894 0.93011,1.31639 0,1.06752 -0.84353,1.85568 -1.7846,1.66747 -1.43077,-0.28616 -3.23088,1.83989 -2.71242,3.20354 0.36392,0.95717 0.3316,1.34715 -0.15169,1.83043 -0.83045,0.83046 -1.63153,0.79682 -2.66657,-0.11195 -0.85895,-0.75417 -1.08774,-0.83029 -2.03852,-0.67826 -1.23655,0.19773 -1.6438,0.48131 -2.17981,1.51784 -0.30449,0.58881 -0.56677,0.74517 -1.23933,0.73883 -0.46921,-0.004 -1.06146,-0.1294 -1.31612,-0.27773 z m 6.27285,-5.34322 c 3.27736,-1.85629 3.74536,-6.59018 0.8929,-9.03178 -3.09007,-2.64499 -7.69933,-1.31241 -8.94982,2.58747 -0.74622,2.32724 0.46079,5.29032 2.61943,6.43037 1.58982,0.83964 3.96892,0.84574 5.43749,0.0139 z"
         id="path879"
         inkscape:connector-curvature="0" />
      <path
         sodipodi:nodetypes="ccscccccccsscscsccssscssssscscscscc"
         inkscape:connector-curvature="0"
         id="path890"
         d="m 543.30503,191.6519 c -0.77023,-0.13608 -0.94039,-0.28873 -1.01131,-0.90721 -0.16426,-1.43262 0.0964,-1.50536 5.39433,-1.50536 4.63567,0 4.86451,0.0245 5.23944,0.55973 0.70239,1.0028 0.18775,1.66373 -1.44947,1.8615 -1.78261,0.21533 -6.93605,0.20987 -8.17299,-0.009 z m 67.00975,0.0362 c -2.13438,-0.0762 -2.47972,-0.15517 -2.73078,-0.62429 -0.22121,-0.41332 -0.19025,-0.68532 0.13436,-1.18075 0.42134,-0.64303 0.4269,-0.64372 5.25756,-0.64372 5.21771,0 5.47077,0.0639 5.47077,1.38239 0,1.2778 -0.47329,1.33986 -8.13191,1.06637 z m -53.71212,-23.1524 c -1.80731,-1.78263 -3.40397,-3.45749 -3.54813,-3.72191 -0.35009,-0.64213 0.38042,-1.7682 1.14707,-1.7682 0.71108,0 7.04674,6.19751 7.27813,7.11942 0.11891,0.47378 0.004,0.77017 -0.43704,1.12731 -0.3291,0.26648 -0.72339,0.48452 -0.87619,0.48452 -0.1528,0 -1.75653,-1.45851 -3.56384,-3.24114 z m 42.79689,2.58312 c -0.17959,-0.21639 -0.25859,-0.66415 -0.17554,-0.99501 0.22162,-0.88301 6.57495,-7.07822 7.25888,-7.07822 0.52567,0 1.38047,0.8825 1.38047,1.4252 0,0.13702 -1.51216,1.7774 -3.36036,3.64529 -2.64107,2.66921 -3.51198,3.39618 -4.06865,3.39618 -0.38955,0 -0.85521,-0.17705 -1.0348,-0.39344 z m -19.78773,-6.63302 c -0.56959,-0.39896 -0.58804,-0.55722 -0.58804,-5.04448 0,-2.68739 0.115,-4.84749 0.27389,-5.14437 0.17511,-0.32719 0.55346,-0.51178 1.04902,-0.51178 0.49557,0 0.87392,0.18459 1.04903,0.51178 0.15811,0.29543 0.27389,2.42054 0.27389,5.02708 0,4.16253 -0.0413,4.55666 -0.52917,5.04448 -0.63698,0.63699 -0.77187,0.64734 -1.52862,0.11729 z"
         style="fill:#843bee;fill-opacity:1;stroke-width:0.26458332" />
    </g>
  </g>
</svg>
