<?xml version="1.0" encoding="utf-8"?>
<!-- Generator: Adobe Illustrator 24.1.2, SVG Export Plug-In . SVG Version: 6.00 Build 0)  -->
<svg version="1.1" id="Layer_1" xmlns="http://www.w3.org/2000/svg" xmlns:xlink="http://www.w3.org/1999/xlink" x="0px" y="0px"
	 viewBox="0 0 2852.1 2852.1" style="enable-background:new 0 0 2852.1 2852.1;" xml:space="preserve">
<style type="text/css">
	.st0{display:none;}
	.st1{display:inline;}
	.st2{fill:#FFFFFF;}
	.st3{display:none;fill:url(#SVGID_1_);}
	.st4{fill:#91B3FA;}
	.st5{fill:#BDD0FB;}
	.st6{fill:url(#SVGID_2_);}
	.st7{fill:url(#SVGID_3_);}
	.st8{fill:url(#SVGID_4_);}
	.st9{fill:url(#SVGID_5_);}
	.st10{fill:url(#SVGID_6_);}
	.st11{fill:url(#SVGID_7_);}
	.st12{fill:url(#SVGID_8_);}
	.st13{fill:url(#SVGID_9_);}
	.st14{fill:url(#SVGID_10_);}
	.st15{fill:url(#SVGID_11_);}
	.st16{fill:url(#SVGID_12_);}
	.st17{fill:url(#SVGID_13_);}
	.st18{fill:url(#SVGID_14_);}
	.st19{fill:url(#SVGID_15_);}
	.st20{fill:url(#SVGID_16_);}
	.st21{display:inline;fill:url(#SVGID_17_);}
	.st22{fill:url(#SVGID_18_);}
	.st23{fill:url(#SVGID_19_);}
	.st24{fill:url(#SVGID_20_);}
	.st25{fill:url(#SVGID_21_);}
	.st26{fill:url(#SVGID_22_);}
	.st27{display:none;fill:#FFFFFF;}
	.st28{fill:url(#SVGID_23_);}
	.st29{display:inline;fill:#FFFFFF;}
	.st30{font-family:'ArialMT';}
	.st31{font-size:166.8425px;}
	.st32{fill:url(#SVGID_24_);}
	.st33{fill:url(#SVGID_25_);}
</style>
<g id="Background" class="st0">
	<g class="st1">
		<g>
			<rect x="-428.9" y="-428.9" class="st2" width="3710" height="3710"/>
		</g>
	</g>
</g>
<g id="Illustration">
	<g>
		
			<linearGradient id="SVGID_1_" gradientUnits="userSpaceOnUse" x1="3060.3635" y1="-1328.2147" x2="1001.4788" y2="-3129.7371" gradientTransform="matrix(1 0 0 1 0 4165.8896)">
			<stop  offset="0" style="stop-color:#DAE3FE"/>
			<stop  offset="1" style="stop-color:#E9EFFD"/>
		</linearGradient>
		<path class="st3" d="M2710.5,1902.1c-266.1,626.5-974.9,977.5-1589.6,882.8c-100-15.4-374.2-61.3-617-277.8
			C36.5,2090.3-63.4,1265,313.6,683.4C588,260.1,1079.8,20.2,1547.2,32.2c100.7,2.6,486.5,18.5,825.6,298.1
			c49.8,41.1,159.6,138.7,258.6,293.5C2863.9,987.3,2883.9,1493.7,2710.5,1902.1z"/>
		<g>
			<g>
				<g>
					<path class="st4" d="M1054.2,945.4c-1.8-0.1-3.6-1.2-4.6-2.9c-3.7-6.5-7.6-13.1-11.6-19.4c-1.7-2.7-0.9-6.2,1.8-7.9
						c2.7-1.7,6.2-0.9,7.9,1.8c4.1,6.5,8.1,13.2,11.9,19.9c1.6,2.8,0.6,6.2-2.2,7.8C1056.5,945.2,1055.3,945.4,1054.2,945.4z"/>
					<path class="st4" d="M599.4,1663.8c-8.7-0.5-17.5-1.5-26.2-2.7c-3.1-0.4-5.4-3.3-4.9-6.4c0.4-3.1,3.3-5.3,6.4-4.9
						c8.4,1.1,17.2,1.9,25.6,2.6c6.2,0.5,12.6,0.8,18.9,1c3.2-0.1,5.6,2.8,5.5,5.9c-0.1,3.2-2.8,5.6-5.9,5.5
						C612.2,1664.6,605.7,1664.3,599.4,1663.8z M691.8,1661.7c-2.7-0.2-4.9-2.3-5.3-5c-0.4-3.1,1.9-6,5-6.4
						c14.3-1.7,28.7-4.1,42.8-7.1l1.2-0.3c3.1-0.7,6.1,1.3,6.8,4.4s-1.3,6.1-4.4,6.8l-1.2,0.3c-14.5,3.1-29.2,5.5-43.8,7.3
						C692.5,1661.7,692.1,1661.7,691.8,1661.7z M806.7,1633.5c-2.1-0.2-4.1-1.5-4.9-3.7c-1.1-3,0.4-6.3,3.3-7.4
						c13.9-5.3,27.7-11.3,40.9-17.8c2.8-1.4,6.3-0.2,7.7,2.6c1.4,2.8,0.2,6.3-2.6,7.7c-13.6,6.7-27.7,12.8-41.9,18.2
						C808.3,1633.4,807.5,1633.6,806.7,1633.5z M911.2,1578.2c-1.7-0.1-3.2-1-4.3-2.4c-1.8-2.6-1.2-6.2,1.4-8
						c12.1-8.5,24-17.7,35.3-27.3c2.4-2,6-1.7,8.1,0.7c2,2.4,1.8,6-0.7,8.1c-11.6,9.8-23.7,19.2-36.2,27.9
						C913.8,1578,912.5,1578.3,911.2,1578.2z M999,1499c-1.2-0.1-2.4-0.5-3.3-1.4c-2.4-2.1-2.6-5.7-0.6-8.1
						c9.7-11.2,19-23,27.6-35.1c1.8-2.6,5.4-3.2,8-1.3c2.6,1.8,3.2,5.4,1.3,8c-8.8,12.4-18.3,24.4-28.3,35.9
						C1002.5,1498.4,1000.8,1499.1,999,1499z M1065,1400.8c-0.7-0.1-1.5-0.2-2.2-0.6c-2.8-1.4-3.9-4.9-2.5-7.7
						c6.7-13.2,12.9-26.9,18.3-40.7c1.2-2.9,4.5-4.4,7.4-3.2c2.9,1.2,4.4,4.5,3.2,7.4c-5.6,14.1-11.9,28.1-18.7,41.7
						C1069.4,1399.8,1067.2,1400.9,1065,1400.8z M1105.1,1289.5c-0.3,0-0.6-0.1-0.8-0.1c-3.1-0.7-5-3.8-4.3-6.8
						c3.3-14.5,5.9-29.3,7.8-44c0.4-3.1,3.3-5.4,6.4-4.9c3.1,0.4,5.3,3.3,4.9,6.4c-1.9,15-4.6,30.2-8,45
						C1110.5,1287.8,1107.9,1289.7,1105.1,1289.5z M1116.8,1171.7c-2.9-0.2-5.2-2.6-5.3-5.6c-0.4-14.8-1.4-29.8-3.2-44.5
						c-0.4-3.1,1.9-6,5-6.4c3.2-0.4,6,1.9,6.4,5c1.8,15.1,2.9,30.4,3.3,45.6c0.1,3.2-2.4,5.8-5.6,5.9
						C1117.2,1171.7,1117,1171.7,1116.8,1171.7z M1099.5,1054.7c-2.3-0.2-4.4-1.8-5.1-4.2c-4-14.3-8.6-28.6-13.9-42.4
						c-1.1-3,0.4-6.3,3.3-7.4c2.9-1.1,6.3,0.4,7.4,3.3c5.4,14.1,10.1,28.8,14.2,43.4c0.8,3-0.9,6.2-4,7
						C1100.8,1054.7,1100.1,1054.7,1099.5,1054.7z"/>
					<path class="st4" d="M501.4,1646.2c-0.4,0-0.8-0.1-1.2-0.2c-7.4-2.1-14.8-4.5-22.1-7c-3-1-4.6-4.3-3.6-7.3s4.3-4.6,7.3-3.6
						c7.1,2.4,14.4,4.7,21.6,6.8c3,0.9,4.8,4.1,3.9,7.1C506.6,1644.7,504.1,1646.4,501.4,1646.2z"/>
				</g>
				<g>
					<path class="st4" d="M207.4,1405.3c-1.9-0.1-3.7-1.2-4.7-3.1c-3.5-6.8-6.9-13.8-10.2-20.8c-1.3-2.9-0.1-6.3,2.8-7.6
						c2.9-1.3,6.3-0.1,7.6,2.8c3.2,6.9,6.5,13.7,9.9,20.3c1.5,2.8,0.4,6.3-2.4,7.7C209.5,1405.2,208.4,1405.4,207.4,1405.3z"/>
					<path class="st4" d="M172.2,1317.1c-2.3-0.2-4.4-1.8-5.1-4.1c-3.2-11.3-6.1-22.8-8.6-34.3c-0.7-3.2-1.3-6.3-1.9-9.5
						c-0.6-3.1,1.4-6.1,4.5-6.7s6.1,1.4,6.7,4.5c0.6,3.1,1.2,6.2,1.9,9.3c2.4,11.2,5.2,22.5,8.4,33.5c0.9,3-0.9,6.2-3.9,7.1
						C173.6,1317.1,172.9,1317.1,172.2,1317.1z M153.5,1202.2c-2.9-0.2-5.2-2.5-5.3-5.5c-0.6-14.9-0.5-30.1,0.3-45
						c0.2-3.2,2.9-5.6,6-5.4c3,0.2,5.6,2.9,5.4,6c-0.8,14.6-0.8,29.3-0.3,43.9c0.1,3.2-2.3,5.8-5.5,6
						C154,1202.2,153.8,1202.2,153.5,1202.2z M163,1086.1c-0.2,0-0.5-0.1-0.7-0.1c-3.1-0.6-5.1-3.7-4.5-6.8
						c3-14.6,6.8-29.3,11.1-43.6c0.9-3,4.1-4.7,7.1-3.8c3,0.9,4.7,4.1,3.8,7.1c-4.3,13.9-7.9,28.3-10.8,42.5
						C168.4,1084.4,165.8,1086.4,163,1086.1z M200.1,975.8c-0.7-0.1-1.4-0.2-2-0.5c-2.9-1.4-4.1-4.8-2.7-7.6
						c6.4-13.5,13.6-26.8,21.2-39.6c1.6-2.7,5.1-3.6,7.8-2s3.6,5.1,2,7.8c-7.5,12.5-14.4,25.5-20.7,38.7
						C204.7,974.8,202.4,976,200.1,975.8z M262.6,877.6c-1.1-0.1-2.3-0.5-3.2-1.3c-2.4-2-2.8-5.6-0.8-8.1
						c9.5-11.5,19.6-22.8,30.1-33.4c2.2-2.2,5.8-2.3,8.1-0.1c2.3,2.2,2.3,5.8,0.1,8.1c-10.2,10.4-20.1,21.4-29.4,32.6
						C266.2,877,264.4,877.7,262.6,877.6z M346.6,797.1c-1.6-0.1-3.1-0.9-4.2-2.3c-1.9-2.5-1.4-6.1,1.2-8
						c11.9-8.9,24.4-17.4,37.2-25.2c2.7-1.6,6.2-0.8,7.9,1.9c1.7,2.7,0.8,6.2-1.9,7.9c-12.4,7.6-24.7,15.9-36.3,24.6
						C349.3,796.8,348,797.2,346.6,797.1z M447.6,739.3c-2.1-0.2-4-1.4-4.9-3.5c-1.2-2.9,0.1-6.3,3.1-7.5c13.8-5.8,28-11,42.2-15.5
						c3-1,6.2,0.7,7.2,3.7s-0.7,6.2-3.7,7.2c-13.9,4.4-27.8,9.5-41.2,15.1C449.4,739.2,448.5,739.3,447.6,739.3z M559.5,707.3
						c-2.6-0.2-4.8-2.1-5.2-4.8c-0.5-3.1,1.6-6.1,4.8-6.6c14.8-2.4,29.8-4.1,44.7-5.1c3.1-0.2,5.9,2.2,6.1,5.3
						c0.2,3.2-2.2,5.9-5.3,6.1c-14.5,1-29.2,2.6-43.6,4.9C560.4,707.3,560,707.4,559.5,707.3z M719.9,708.8c-0.2,0-0.4,0-0.6-0.1
						c-14.4-2.6-29-4.5-43.5-5.7c-3.2-0.3-5.5-3-5.2-6.2c0.3-3.1,3-5.5,6.1-5.2c0,0,0,0,0.1,0c14.9,1.3,29.9,3.2,44.6,5.9
						c3.1,0.6,5.2,3.5,4.6,6.6C725.5,707,722.8,709,719.9,708.8z"/>
					<path class="st4" d="M811.5,734.8c-0.6,0-1.1-0.2-1.7-0.4c-7-2.8-14.1-5.4-21.2-7.8c-3-1-4.6-4.3-3.6-7.3s4.3-4.6,7.3-3.6
						c7.3,2.5,14.6,5.2,21.7,8c2.9,1.2,4.4,4.5,3.2,7.4C816.3,733.6,814,735,811.5,734.8z"/>
				</g>
				<g>
					<path class="st4" d="M813.4,852.9c-2-1.4-4.7-1.4-6.7,0.1l-56.8,41.5c-30.5-12.1-63.3-19.5-97-21.3l-34.3-61.4
						c-1.2-2.2-3.6-3.3-6.1-2.9l-83.1,14.9c-2.4,0.4-4.3,2.4-4.7,4.8l-10.8,69.5c-31.1,13.4-59.2,31.6-83.6,53.6l-67.7-19.2
						c-2.4-0.7-4.9,0.2-6.3,2.3l-48.2,69.3c-1.4,2-1.4,4.7,0.1,6.7l41.5,56.8c-12.1,30.5-19.5,63.3-21.3,97l-61.4,34.3
						c-2.2,1.2-3.3,3.6-2.9,6.1l14.9,83.1c0.4,2.4,2.4,4.3,4.8,4.7l69.5,10.8c13.4,31.1,31.6,59.2,53.6,83.6l-19.2,67.7
						c-0.7,2.4,0.2,4.9,2.3,6.3l69.3,48.2c2,1.4,4.7,1.4,6.7-0.1l56.8-41.5c30.5,12.1,63.3,19.5,97,21.3l34.3,61.4
						c1.2,2.2,3.6,3.3,6.1,2.9l83.1-14.9c2.4-0.4,4.3-2.4,4.7-4.8l10.8-69.5c31.1-13.4,59.2-31.6,83.6-53.6l67.7,19.2
						c2.4,0.7,4.9-0.2,6.3-2.3l48.2-69.3c1.4-2,1.4-4.7-0.1-6.7l-41.5-56.8c12.1-30.5,19.5-63.3,21.3-97l61.4-34.3
						c2.2-1.2,3.3-3.6,2.9-6.1l-14.9-83.1c-0.4-2.4-2.4-4.3-4.8-4.7l-69.5-10.8c-13.4-31.1-31.6-59.2-53.6-83.6l19.2-67.7
						c0.7-2.4-0.2-4.9-2.3-6.3L813.4,852.9z"/>
					<g>
						<path class="st5" d="M630.1,1264.6c-7.9-0.6-15.8-2.3-23.4-5.2c-20.9-7.9-37.4-23.4-46.6-43.8c-9.2-20.3-9.9-43-2-63.9
							s23.4-37.4,43.8-46.6c20.3-9.2,43-9.9,63.9-2s37.4,23.4,46.6,43.8c9.2,20.3,9.9,43,2,63.9s-23.4,37.4-43.8,46.6
							C657.7,1263.2,643.9,1265.6,630.1,1264.6z M641.1,1115c-10.9-0.8-21.9,1.1-32.2,5.7c-33.3,15.1-48.2,54.5-33.1,87.8
							c7.3,16.2,20.5,28.5,37,34.8c16.6,6.3,34.6,5.7,50.8-1.6c16.2-7.3,28.5-20.5,34.8-37c6.3-16.6,5.7-34.6-1.6-50.8
							c-7.3-16.2-20.5-28.5-37.1-34.8C653.6,1116.8,647.4,1115.5,641.1,1115z"/>
					</g>
					<path class="st5" d="M619.2,1394.6c-37.4-2.8-73.5-15.5-105.1-37.5c-46.5-32.4-77.7-81-87.7-136.8c-3.2-17.9-4.1-35.9-2.8-53.6
						c2.8-37.4,15.5-73.5,37.5-105.1c32.4-46.5,81-77.7,136.8-87.7c1.5-0.3,2.9-0.5,4.4-0.7c12-1.9,24.1-2.8,36.2-2.6
						c1.5,0,3,0.1,4.5,0.1l-0.6,17.2c-13.8-0.5-27.7,0.5-41.4,3l0,0c-48.6,8.7-91.2,34.8-120.9,73.9c-1.7,2.2-3.3,4.4-4.9,6.7
						c-20.2,29-31.9,62.2-34.5,96.6c-1.2,16.3-0.4,32.8,2.6,49.3c9.2,51.3,37.8,96,80.6,125.7c42.8,29.8,94.6,41.1,145.9,31.9
						c89.4-16,153.7-90.9,160.2-177.6c1.2-16,0.4-32.4-2.5-48.9c-6.2-34.8-21.8-67.2-44.9-93.7l12.9-11.3
						c25.2,28.9,42.1,64.1,48.8,102c3.2,18,4.1,35.8,2.8,53.2c-7,94.3-77,175.8-174.3,193.2C654.8,1395,636.9,1395.9,619.2,1394.6z"
						/>
				</g>
			</g>
			<g>
				<g>
					<path class="st4" d="M1676.6,723.2c-2.6-0.2-5-1.7-6.2-4.1c-4.5-8.8-9.4-17.5-14.7-25.9c-2.3-3.6-1.2-8.3,2.4-10.5
						s8.3-1.2,10.5,2.4c5.5,8.7,10.7,17.9,15.4,27.1c1.9,3.8,0.4,8.3-3.3,10.3C1679.4,723.1,1678,723.3,1676.6,723.2z"/>
					<path class="st4" d="M1405.9,1201.7c-3.7-0.3-6.8-3.2-7-7.1c-0.3-4.2,2.9-7.9,7.1-8.1c14.8-1.1,29.7-3.2,44.3-6.3
						c5.2-1.1,10.3-2.3,15.3-3.6c4.1-1.1,8.2,1.4,9.3,5.4c1.1,4.1-1.4,8.2-5.4,9.3c-5.3,1.4-10.6,2.7-16,3.8
						c-15.3,3.3-30.9,5.5-46.4,6.6C1406.7,1201.7,1406.3,1201.7,1405.9,1201.7z M1558.8,1151.7c-2.3-0.2-4.5-1.4-5.9-3.5
						c-2.3-3.6-1.2-8.3,2.4-10.5c17-10.7,33.1-23.1,47.8-36.9c3.1-2.9,7.9-2.7,10.8,0.4s2.7,7.9-0.4,10.8
						c-15.4,14.4-32.2,27.4-50,38.6C1562,1151.4,1560.4,1151.8,1558.8,1151.7z M1669.7,1035.2c-1.1-0.1-2.2-0.4-3.2-1
						c-3.7-2.1-5-6.7-2.9-10.4c9.9-17.5,18.2-36.1,24.7-55.1c1.4-4,5.7-6.1,9.7-4.8c4,1.4,6.1,5.7,4.8,9.7
						c-6.8,19.9-15.5,39.3-25.9,57.7C1675.4,1034,1672.6,1035.4,1669.7,1035.2z M1712.4,880.1c-4-0.3-7.1-3.7-7-7.8
						c0.4-20.1-1.1-40.3-4.4-60.2c-0.7-4.2,2.1-8.1,6.3-8.8c4.1-0.7,8.1,2.1,8.8,6.2c3.5,20.8,5.1,42.1,4.6,63.1
						c-0.1,4.2-3.6,7.6-7.8,7.5C1712.7,880.1,1712.6,880.1,1712.4,880.1z"/>
					<path class="st4" d="M1305.7,1193.4c-0.4,0-0.8-0.1-1.2-0.2c-10.1-2.4-20.2-5.4-29.9-8.7c-4-1.4-6.1-5.7-4.7-9.7
						s5.7-6.1,9.7-4.7c9.3,3.2,19,6,28.6,8.3c4.1,1,6.6,5.1,5.6,9.2C1312.8,1191.3,1309.4,1193.7,1305.7,1193.4z"/>
				</g>
				<g>
					<path class="st4" d="M1090.3,1024.8c-2.6-0.2-4.9-1.7-6.2-4.1c-4.8-9.2-9.2-18.7-13.1-28.3c-1.6-3.9,0.3-8.3,4.2-9.9
						c3.9-1.6,8.3,0.3,9.9,4.2c3.7,9.2,7.9,18.3,12.5,27c1.9,3.7,0.5,8.3-3.3,10.3C1093,1024.7,1091.6,1024.9,1090.3,1024.8z"/>
					<path class="st4" d="M1054.4,901.3c-3.7-0.3-6.7-3.2-7-6.9c-1.6-18-1.7-36.3-0.4-54.3c0.2-2.6,0.4-5.3,0.7-7.9
						c0.4-4.2,4.3-7,8.3-6.8c4.2,0.4,7.2,4.2,6.8,8.3c-0.2,2.5-0.5,5-0.7,7.5c-1.3,17.2-1.2,34.7,0.3,51.9c0.4,4.2-2.7,7.9-6.9,8.3
						C1055.2,901.3,1054.8,901.3,1054.4,901.3z M1079,745c-0.8-0.1-1.6-0.2-2.4-0.6c-3.9-1.6-5.7-6.1-4.1-10
						c8.1-19.1,17.9-37.5,29.3-54.8c2.3-3.5,7-4.5,10.6-2.2c3.5,2.3,4.5,7,2.2,10.6c-10.9,16.5-20.3,34.1-28,52.3
						C1085.3,743.4,1082.2,745.2,1079,745z M1173.6,618.1c-2-0.1-3.9-1.1-5.3-2.8c-2.7-3.3-2.2-8.1,1-10.7
						c16-13.2,33.3-24.9,51.5-34.9c3.7-2,8.3-0.7,10.4,3c2,3.7,0.7,8.3-3,10.4c-17.3,9.5-33.9,20.8-49.1,33.3
						C1177.4,617.7,1175.5,618.3,1173.6,618.1z M1316.4,550c-3.3-0.2-6.2-2.6-6.9-6.1c-0.8-4.1,1.8-8.2,5.9-9
						c20.4-4.2,41.2-6.5,61.8-6.9c4.3-0.3,7.7,3.3,7.8,7.5c0.1,4.2-3.3,7.7-7.5,7.8c-19.7,0.4-39.6,2.6-59,6.6
						C1317.8,550.1,1317,550.1,1316.4,550z"/>
					<path class="st4" d="M1503.6,566.1c-0.7-0.1-1.5-0.2-2.2-0.5c-9.2-3.6-18.7-6.9-28.2-9.6c-4-1.2-6.4-5.4-5.2-9.5
						c1.2-4,5.4-6.4,9.5-5.2c9.9,2.9,19.9,6.3,29.5,10.1c3.9,1.5,5.8,6,4.3,9.9C1510,564.5,1506.8,566.4,1503.6,566.1z"/>
				</g>
				<g>
					<path class="st4" d="M1505.1,643.2c-1.4-1-3.2-0.9-4.6,0.1l-38.9,28.4c-20.9-8.3-43.3-13.3-66.4-14.5l-23.5-42
						c-0.8-1.5-2.5-2.3-4.2-2l-56.8,10.2c-1.7,0.3-3,1.6-3.2,3.3l-7.4,47.5c-21.2,9.2-40.5,21.6-57.2,36.7l-46.3-13.1
						c-1.6-0.5-3.4,0.2-4.3,1.5l-33,47.4c-1,1.4-0.9,3.2,0.1,4.6l28.4,38.9c-8.3,20.9-13.3,43.3-14.5,66.4l-42,23.5
						c-1.5,0.8-2.3,2.5-2,4.2l10.2,56.9c0.3,1.7,1.6,3,3.3,3.2l47.5,7.4c9.2,21.2,21.6,40.5,36.7,57.2l-13.1,46.3
						c-0.5,1.6,0.2,3.4,1.5,4.3l47.4,33c1.4,1,3.2,0.9,4.6-0.1l38.9-28.4c20.9,8.3,43.3,13.3,66.4,14.5l23.5,42
						c0.8,1.5,2.5,2.3,4.2,2l56.9-10.2c1.7-0.3,3-1.6,3.2-3.3l7.4-47.5c21.2-9.2,40.5-21.6,57.2-36.7l46.3,13.1
						c1.6,0.5,3.4-0.2,4.3-1.5l33-47.4c1-1.4,0.9-3.2-0.1-4.6l-28.4-38.9c8.3-20.9,13.3-43.3,14.5-66.4l42-23.5
						c1.5-0.8,2.3-2.5,2-4.2l-10.2-56.8c-0.3-1.7-1.6-3-3.3-3.2l-47.5-7.4c-9.2-21.2-21.6-40.5-36.7-57.2l13.1-46.3
						c0.5-1.6-0.2-3.4-1.5-4.3L1505.1,643.2z"/>
					<g>
						<path class="st5" d="M1379.3,930.4c-22.2-1.7-42.8-15.1-52.6-36.7c-14.2-31.5-0.2-68.7,31.3-83l0,0
							c31.5-14.2,68.7-0.2,83,31.3c14.2,31.5,0.2,68.7-31.3,83C1399.9,929.4,1389.5,931.1,1379.3,930.4z M1367.5,831.5
							c-20,9-28.9,32.7-19.9,52.7c9.1,20,32.7,28.9,52.7,19.9s28.9-32.7,19.9-52.7S1387.5,822.5,1367.5,831.5L1367.5,831.5z"/>
					</g>
					<path class="st5" d="M1371.8,1019.3c-26.6-2-52.2-11-74.7-26.7c-33.1-23-55.2-57.5-62.3-97.2c-2.3-12.7-2.9-25.5-2-38.1
						c2-26.6,11-52.2,26.7-74.6c23-33.1,57.5-55.2,97.2-62.3c10.6-1.9,21.4-2.7,32-2.3l-0.8,22.9c-9-0.3-18.2,0.3-27.2,1.9
						c-32.2,5.8-60.4,23.2-79.8,49.2c-0.3,0.4-0.6,0.8-0.9,1.2c-0.6,0.8-1.2,1.6-1.7,2.4c-13.2,19-20.9,40.8-22.6,63.3
						c-0.8,10.7-0.2,21.5,1.7,32.3c6,33.6,24.8,62.9,52.8,82.4s62,27,95.6,20.9c33.6-6,62.9-24.8,82.4-52.8
						c13.2-19,20.9-40.8,22.6-63.3c0.8-10.7,0.2-21.5-1.7-32.3c-4.1-22.8-14.3-44.1-29.4-61.5l17.2-15
						c17.9,20.5,29.9,45.5,34.7,72.5c2.3,12.7,2.9,25.5,2,38.1c-2,26.6-11,52.2-26.7,74.6c-23,33.1-57.5,55.2-97.2,62.3
						C1397.2,1019.6,1384.4,1020.2,1371.8,1019.3z"/>
				</g>
			</g>
		</g>
		<g>
			<g>
				
					<linearGradient id="SVGID_2_" gradientUnits="userSpaceOnUse" x1="979.3961" y1="-1204.4253" x2="602.7346" y2="-1793.9817" gradientTransform="matrix(0.9618 0.2737 -0.2737 0.9618 62.4189 4146.2583)">
					<stop  offset="0" style="stop-color:#4F52FF"/>
					<stop  offset="1" style="stop-color:#4042E2"/>
				</linearGradient>
				<path class="st6" d="M1177,2253.7c-198.2-43.7-48.9-337.8-41.9-349.1l-355.2,124.7c0,0-31.7,170.9,189.3,328.3
					c55.9,39.8,112.5,57,165.9,60.5C1131.5,2349.4,1151.8,2294.5,1177,2253.7z"/>
				
					<linearGradient id="SVGID_3_" gradientUnits="userSpaceOnUse" x1="543.0931" y1="-2101.0942" x2="1077.222" y2="-2101.0942" gradientTransform="matrix(0.9618 0.2737 -0.2737 0.9618 62.4189 4146.2583)">
					<stop  offset="0" style="stop-color:#FEBBBA"/>
					<stop  offset="1" style="stop-color:#FF928E"/>
				</linearGradient>
				<path class="st7" d="M1580.5,2267.2c-58.2-71.2-154.9-44.1-154.9-44.1c-115.2,35.9-194.7,42.4-248.6,30.5
					c-25.2,40.8-45.5,95.7-41.9,164.3c115.4,7.6,215.6-49,261-79.8c16.3-11.1,38.6-7.5,50.1,8.5c11.7,16.2,21.8,36.8,14.2,53.2
					c-14.9,32.4,21.4,54.4,27.9,43c6.5-11.5,10.8-89.1,10.8-89.1s56.2,101.6,78.3,140.8c22.1,39.2,69.4,19.8,69.4,19.8
					S1638.7,2338.4,1580.5,2267.2z"/>
				
					<linearGradient id="SVGID_4_" gradientUnits="userSpaceOnUse" x1="1793.6564" y1="-2159.9321" x2="592.7571" y2="-1286.5498" gradientTransform="matrix(0.9593 -0.2825 0.2825 0.9593 -5.6498 4091.666)">
					<stop  offset="0" style="stop-color:#4F52FF"/>
					<stop  offset="1" style="stop-color:#4042E2"/>
				</linearGradient>
				<path class="st8" d="M386.3,1506.7c0,0,249.4-196.5,903.6,83c0,0,70.7,78,46.6,173.1S971.7,2387,973.4,2624.3
					c0,0-246.1,168.6-589.4,41.8C384,2666.2,229.5,2049.8,386.3,1506.7z"/>
				
					<linearGradient id="SVGID_5_" gradientUnits="userSpaceOnUse" x1="608.1384" y1="-2274.0415" x2="1036.7329" y2="-2843.2686" gradientTransform="matrix(1 0 0 1 0 4165.8896)">
					<stop  offset="0" style="stop-color:#FEBBBA"/>
					<stop  offset="1" style="stop-color:#FF928E"/>
				</linearGradient>
				<path class="st9" d="M915.6,1241.1l-89.5,209.7c-8.9,20.8-5.1,45,10.2,61.7c30.9,33.7,93.7,77.6,193,39.7
					c29.5-11.3,51-37.4,56.1-68.6l38.1-229.9L915.6,1241.1z"/>
				
					<linearGradient id="SVGID_6_" gradientUnits="userSpaceOnUse" x1="1621.4755" y1="-2396.6675" x2="420.5796" y2="-1523.2882" gradientTransform="matrix(0.9593 -0.2825 0.2825 0.9593 -5.6498 4091.666)">
					<stop  offset="0" style="stop-color:#4F52FF"/>
					<stop  offset="1" style="stop-color:#4042E2"/>
				</linearGradient>
				<path class="st10" d="M380.3,2293.9c-72.2-124,172.5-520,172.5-520l-166.4-267.2c0,0-577.2,689.4-281,1019.8
					c42.5,47.4,88.7,75.7,136.6,89.6C253.9,2443.5,325,2345,380.3,2293.9z"/>
				
					<linearGradient id="SVGID_7_" gradientUnits="userSpaceOnUse" x1="957.1908" y1="-2427.7815" x2="477.2562" y2="-2150.9827" gradientTransform="matrix(1 0 0 1 0 4165.8896)">
					<stop  offset="0" style="stop-color:#09005D"/>
					<stop  offset="1" style="stop-color:#1A0F91"/>
				</linearGradient>
				<path class="st11" d="M374.3,2293.7c-3.5,1-7.4-0.4-9.4-3.7c-73.8-126.8,162.5-512,172.6-528.4c2.4-3.8,7.4-5,11.3-2.7
					c3.8,2.4,5,7.4,2.7,11.3c-2.4,3.9-241.3,393.2-172.4,511.5c2.3,3.9,0.9,8.9-3,11.2C375.5,2293.3,374.9,2293.5,374.3,2293.7z"/>
				
					<linearGradient id="SVGID_8_" gradientUnits="userSpaceOnUse" x1="918.4162" y1="-1725.1615" x2="-438.2011" y2="632.2402" gradientTransform="matrix(0.9977 -6.820000e-02 6.820000e-02 0.9977 37.5747 4176.3618)">
					<stop  offset="0" style="stop-color:#FEBBBA"/>
					<stop  offset="1" style="stop-color:#FF928E"/>
				</linearGradient>
				<path class="st12" d="M960.6,2280.2c-44.3,12.3-85.5,34.3-130,45.6c-49.4,12.6-98.3,27.4-148,38.6
					c-77.4,17.4-179.2,37.4-247.2-15.8c-5.7-4.5-51.8-56.6-55.1-54.7c-123.4,71.3-147.4,238-147.4,318.8
					c225,123.1,579-116.6,674.3-186.6c15.7-11.5,35.1-16.5,54.4-13.9c39,5.3,106.2,12.5,141.6,4.6c51.8-11.7,139.7,168,220.7,105.2
					C1323.9,2522,1229.2,2205.7,960.6,2280.2z"/>
				<g>
					
						<linearGradient id="SVGID_9_" gradientUnits="userSpaceOnUse" x1="853.6788" y1="-2684.7791" x2="416.5668" y2="-2350.3215" gradientTransform="matrix(0.9938 0.1109 -0.1109 0.9938 58.2419 3673.4697)">
						<stop  offset="0" style="stop-color:#FEBBBA"/>
						<stop  offset="1" style="stop-color:#FF928E"/>
					</linearGradient>
					<path class="st13" d="M1205.6,944.6c0,0,56.5,183,51.4,275.2c-5.1,92.2,8,153.8-100,160.5c-108,6.6-191.4-56.1-229.5-152.8
						c0,0-60.1-149.1-36.7-204.8C914.3,967.1,1205.6,944.6,1205.6,944.6z"/>
					
						<linearGradient id="SVGID_10_" gradientUnits="userSpaceOnUse" x1="546.6455" y1="-2948.7708" x2="942.4752" y2="-2439.1409" gradientTransform="matrix(0.9938 0.1109 -0.1109 0.9938 58.2419 3673.4697)">
						<stop  offset="0" style="stop-color:#09005D"/>
						<stop  offset="1" style="stop-color:#1A0F91"/>
					</linearGradient>
					<path class="st14" d="M971,1166l13.4,1.5c0,0-42.6-119.3,8.1-133.8s247.1-32.2,296.2-95.7c47.3-61.2,21.1-150.1-29.5-179.8
						c-3.2-1.9-7.4-0.7-9.4,2.3l-5.3,7.9c-3.7,5.4-12,3.6-13.1-2.8l0,0c-1-6.1-8.9-8.3-12.7-3.4c-15,19-53,48.3-147,55
						C938.3,826.7,846,870,833.8,960.1c-0.8,5.7-7.2,8.2-11.8,4.7c-9-7-24.1-11.4-46.7,3.6c-39.3,26.2-33.3,106.1,38.2,179.3
						c3.4,3.5,2.7,9.3-1.6,11.5c-15.3,7.7-39,27.4,12.8,63c53,36.4,86.7,36.8,99.7,35c3.5-0.5,6.1-3.3,6.3-6.8l4-80.6
						c0.2-4.2,3.9-7.3,8-6.8L971,1166z"/>
					
						<linearGradient id="SVGID_11_" gradientUnits="userSpaceOnUse" x1="799.4632" y1="-2755.6265" x2="362.3512" y2="-2421.1692" gradientTransform="matrix(0.9938 0.1109 -0.1109 0.9938 58.2419 3673.4697)">
						<stop  offset="0" style="stop-color:#FEBBBA"/>
						<stop  offset="1" style="stop-color:#FF928E"/>
					</linearGradient>
					<path class="st15" d="M972.4,1183.1c0,0-16.6-114.7-70-89.1c-53.5,25.7,12,127.8,51.7,136.5L972.4,1183.1z"/>
				</g>
				
					<linearGradient id="SVGID_12_" gradientUnits="userSpaceOnUse" x1="19060.8984" y1="-881.1572" x2="18366.1875" y2="-690.7555" gradientTransform="matrix(-1.053 -3.420000e-02 -3.250000e-02 0.9995 20680.8262 3933.6013)">
					<stop  offset="0" style="stop-color:#09005D"/>
					<stop  offset="1" style="stop-color:#1A0F91"/>
				</linearGradient>
				<path class="st16" d="M796.9,2627.9c0.7,0,1.4,0,2.1,0l908.2-14.1c22.4-0.3,40.3-17.9,39.9-39.2s-19.1-38.7-41.5-38l-908.2,14.1
					c-22.5,0.3-40.3,17.9-39.9,39.2C758,2610.6,775.4,2627.2,796.9,2627.9z"/>
			</g>
			<g class="st0">
				<g class="st1">
					<g>
						
							<linearGradient id="SVGID_13_" gradientUnits="userSpaceOnUse" x1="1134.4775" y1="-3116.5635" x2="792.9402" y2="-2656.7163" gradientTransform="matrix(1 0 0 1 0 4165.8896)">
							<stop  offset="0" style="stop-color:#4F52FF"/>
							<stop  offset="1" style="stop-color:#4042E2"/>
						</linearGradient>
						<path class="st17" d="M1150.4,1298.3c-161.8,13.7-294.2-113-295.1-114.9v-28.6c0.9,1.8,140.4,142.6,294.2,129.6L1150.4,1298.3
							z"/>
					</g>
					
						<linearGradient id="SVGID_14_" gradientUnits="userSpaceOnUse" x1="1268.0308" y1="-2995.1335" x2="1064.8944" y2="-2729.4941" gradientTransform="matrix(1 0 0 1 0 4165.8896)">
						<stop  offset="0" style="stop-color:#4F52FF"/>
						<stop  offset="1" style="stop-color:#4042E2"/>
					</linearGradient>
					<path class="st18" d="M1216.4,1291.3c0,10.8-7.8,19.5-17.4,19.5h-46.3c-9.6,0-17.4-8.7-17.4-19.5l0,0
						c0-10.8,7.8-19.5,17.4-19.5h46.3C1208.6,1271.8,1216.4,1280.5,1216.4,1291.3L1216.4,1291.3z"/>
				</g>
				<g class="st1">
					
						<linearGradient id="SVGID_15_" gradientUnits="userSpaceOnUse" x1="2357.0063" y1="-3738.8298" x2="843.293" y2="-3488.7383" gradientTransform="matrix(0.9856 -0.1691 0.1691 0.9856 -195.6025 4810.8506)">
						<stop  offset="0" style="stop-color:#4F52FF"/>
						<stop  offset="1" style="stop-color:#4042E2"/>
					</linearGradient>
					<path class="st19" d="M937.9,1011.2c0,0-37-197.2,191-198.3c3.2,0,3.7-4.5,0.6-5.2c-62.4-14.4-243.7-35.7-246.4,200.9
						C917.8,1021.1,937.9,1011.2,937.9,1011.2z"/>
					
						<linearGradient id="SVGID_16_" gradientUnits="userSpaceOnUse" x1="1060.5687" y1="-3285.9937" x2="893.1498" y2="-3022.5876" gradientTransform="matrix(1 0 0 1 0 4165.8896)">
						<stop  offset="0" style="stop-color:#4F52FF"/>
						<stop  offset="1" style="stop-color:#4042E2"/>
					</linearGradient>
					<path class="st20" d="M896.2,987.1c-88.9,18.1-78,130.5-78,130.5c-6.4,81.6,17.4,122.1,47.9,141.4
						c20.9,13.2,47.1,14.4,69.1,3.3s36.6-33,38.4-57.6c1.6-22.2,3.5-43.3,5.2-50.8C982.8,1135.8,985.1,969.1,896.2,987.1z"/>
				</g>
				
					<linearGradient id="SVGID_17_" gradientUnits="userSpaceOnUse" x1="903.4143" y1="-3026.1208" x2="604.2911" y2="-3626.5991" gradientTransform="matrix(1 0 0 1 0 4165.8896)">
					<stop  offset="0" style="stop-color:#4F52FF"/>
					<stop  offset="1" style="stop-color:#4042E2"/>
				</linearGradient>
				<path class="st21" d="M904.3,1015.6c-18.5-3.2-36.7,6.6-44.1,23.8c-53.2,123.2,12.1,203.3,44.2,204.9
					c33.8,1.8,33.1-160.7,25.9-202.4C927.3,1024.5,916.2,1017.6,904.3,1015.6z"/>
			</g>
		</g>
		<g>
			
				<linearGradient id="SVGID_18_" gradientUnits="userSpaceOnUse" x1="1428.6289" y1="-1087.7064" x2="1467.3652" y2="-1939.8931" gradientTransform="matrix(1 0 0 1 0 4165.8896)">
				<stop  offset="0" style="stop-color:#09005D"/>
				<stop  offset="1" style="stop-color:#1A0F91"/>
			</linearGradient>
			<path class="st22" d="M68.3,2658.9c-1.5-11.2,0.5-22.8,5.6-31.6s12.6-13.9,20.6-13.9h2702.7c10.5,0,20.3,7.7,25.9,20.3
				c5.7,12.7,6.4,28.6,2,42.2l-29.3,90.8c-6.7,20.8-21.2,34.1-37.2,34.1H113.1c-14.9,0-27.7-15.1-30.5-36L68.3,2658.9z"/>
			<path class="st4" d="M2758.6,2804.1H113.1c-16.5,0-30.8-16.4-33.8-38.9L65,2659.4c-1.6-12,0.6-24.3,6-33.7
				c5.7-9.9,14.3-15.6,23.5-15.6h2702.7c11.9,0,22.7,8.3,29,22.3c6,13.5,6.8,30.1,2.1,44.6l-29.3,90.8
				C2791.9,2789.8,2776,2804.1,2758.6,2804.1z M71.6,2658.5l14.3,105.8c2.6,19.2,14,33.1,27.2,33.1h2645.6c14.5,0,27.8-12.5,34-31.8
				l29.3-90.8c4.2-12.9,3.5-27.8-1.9-39.8c-5.1-11.5-13.7-18.3-22.9-18.3H94.5c-6.8,0-13.2,4.5-17.7,12.2
				C72.1,2637.2,70.2,2648,71.6,2658.5L71.6,2658.5z"/>
		</g>
		<g>
			
				<linearGradient id="SVGID_19_" gradientUnits="userSpaceOnUse" x1="1978.4148" y1="-2538.8167" x2="2269.959" y2="-1793.2986" gradientTransform="matrix(1 0 0 1 0 4165.8896)">
				<stop  offset="0" style="stop-color:#09005D"/>
				<stop  offset="1" style="stop-color:#1A0F91"/>
			</linearGradient>
			<path class="st23" d="M1497.5,1582c-15.3,124.7-83.9,631.6-103.6,776.4c-2.8,20.4,13.4,38.3,34,37.7l1165-33.3
				c15.2-0.4,28.2-11.2,31.6-26.1l181.2-816.2c4.8-21.6-12.4-41.7-34.5-40.5l-1242.6,72.8C1512.5,1553.8,1499.4,1566,1497.5,1582z"
				/>
			<g>
				
					<linearGradient id="SVGID_20_" gradientUnits="userSpaceOnUse" x1="1943.3035" y1="-2242.4207" x2="2109.9009" y2="-1217.8528" gradientTransform="matrix(1 0 0 1 0 4165.8896)">
					<stop  offset="0" style="stop-color:#09005D"/>
					<stop  offset="1" style="stop-color:#1A0F91"/>
				</linearGradient>
				<path class="st24" d="M1965.8,2093.8l-172.2,488.7l400.4,8.5l33.3-494.3c1.6-23.2-17.7-42.5-40.9-40.9l-187,12.4
					C1984.1,2069.3,1970.9,2079.3,1965.8,2093.8z"/>
				<path class="st4" d="M2197.1,2594.4l-3.2-0.1l-405-8.6l173.7-493.1c5.6-15.8,19.9-26.7,36.6-27.8l187-12.4
					c12-0.8,23.8,3.6,32.3,12.2c8.5,8.5,12.9,20.3,12.1,32.3L2197.1,2594.4z M1798.3,2579.3l392.5,8.3l33.1-491.1
					c0.7-10.1-3-20-10.2-27.1c-7.1-7.2-17-10.9-27.1-10.2l-187,12.4c-14,0.9-26.1,10.1-30.7,23.3L1798.3,2579.3z"/>
			</g>
			<g>
				
					<linearGradient id="SVGID_21_" gradientUnits="userSpaceOnUse" x1="1868.2759" y1="-1646.4534" x2="2359.7351" y2="-1324.3669" gradientTransform="matrix(1 0 0 1 0 4165.8896)">
					<stop  offset="0" style="stop-color:#09005D"/>
					<stop  offset="1" style="stop-color:#1A0F91"/>
				</linearGradient>
				<path class="st25" d="M1631.3,2589.5L1631.3,2589.5c-4.4,13.4,5.6,27.3,19.8,27.3h627c11.5,0,20.8-9.3,20.8-20.8v-26.9
					c0-11.8-9.9-21.3-21.7-20.8l-627,26.9C1641.5,2575.6,1634,2581.3,1631.3,2589.5z"/>
				<path class="st4" d="M2278,2620.1h-627c-7.8,0-15-3.6-19.6-10c-4.6-6.3-5.8-14.2-3.4-21.7c3.1-9.5,11.9-16.2,21.9-16.6l627-26.9
					c6.6-0.3,12.9,2.1,17.7,6.7c4.8,4.6,7.4,10.8,7.4,17.4v26.9C2302.2,2609.3,2291.3,2620.1,2278,2620.1z M2278,2551.6
					c-0.3,0-0.5,0-0.8,0l-627,26.9c-7.2,0.3-13.6,5.1-15.8,12l0,0c-1.8,5.4-0.9,11.1,2.4,15.7c3.3,4.6,8.5,7.2,14.1,7.2h627
					c9.6,0,17.4-7.8,17.4-17.4v-26.9c0-4.8-1.9-9.3-5.4-12.6C2286.8,2553.3,2282.5,2551.6,2278,2551.6z"/>
			</g>
			<path class="st4" d="M1479.9,2097.6l-8.3-1l57.2-451.4c3.5-28,26.6-49.6,54.7-51.3l1073.8-64.8l0.5,8.3L1584,1602.2
				c-24.2,1.5-43.9,20-47,44L1479.9,2097.6z"/>
			
				<rect x="1403.6" y="2270.6" transform="matrix(0.1251 -0.9921 0.9921 0.1251 -985.8337 3431.6367)" class="st4" width="98.5" height="8.3"/>
		</g>
		<g>
			
				<linearGradient id="SVGID_22_" gradientUnits="userSpaceOnUse" x1="2191.8994" y1="-3887.3125" x2="-168.9635" y2="522.9764" gradientTransform="matrix(1 0 0 1 0 4165.8896)">
				<stop  offset="0" style="stop-color:#FF928E"/>
				<stop  offset="1" style="stop-color:#FE7062"/>
			</linearGradient>
			<path class="st26" d="M1851.7,383v251.3c0,29.9,23.5,54.5,53.3,55.9l314.3,14.8c31.9,1.5,58.5-23.9,58.5-55.9V383
				c0-30.9-25-55.9-55.9-55.9h-314.3C1876.7,327.1,1851.7,352.2,1851.7,383z"/>
			<g class="st0">
				<g class="st1">
					<g>
						<g>
							<g>
								<g>
									<path class="st2" d="M1971.6,450.7l-12.3-45.4l-35.8-19.5l-4.8,8.7l32,17.3l38.2,140l1.2,4.2H2146
										c15.2,0,29.1-7.4,37.4-20.2l7-9.2c7.5-11.6,12.5-25,12.5-38.9v-37L1971.6,450.7L1971.6,450.7z M2191.5,487.7
										c0,11.9-3.8,23.5-10.2,33.6l-6.2,10.4c-6.4,9.9-17.4,16.9-29.1,16.9h-148.1l-8.1-29.9l-15.4-56.6h217.2v25.6H2191.5z"/>
								</g>
								<g>
									<path class="st2" d="M2181.8,606.8c0,2.8-2.2,5.6-5,5.6H1994c-2.8,0-5.6-4.3-5.6-7.1v-86.2c0-0.9,0.6-0.8,1-1.5l8.4,30.8
										h1.9v52.7h177.1C2179.6,601.1,2181.8,604,2181.8,606.8z"/>
								</g>
							</g>
							<g>
								<rect x="2080.3" y="455.7" class="st2" width="6.7" height="93.8"/>
								<g>
									<rect x="2021.4" y="455.7" class="st2" width="6.7" height="93.8"/>
									<rect x="2137.9" y="455.7" class="st2" width="6.7" height="93.8"/>
								</g>
							</g>
							<g>
								<rect x="1976.9" y="483.3" class="st2" width="217" height="6"/>
								<rect x="1986.4" y="516" class="st2" width="202.1" height="6"/>
							</g>
						</g>
						<path class="st2" d="M2017.4,618.9c-11.9,0-21.6,9.6-21.6,21.6c0,11.9,9.6,21.6,21.6,21.6c11.9,0,21.6-9.6,21.6-21.6
							S2029.3,618.9,2017.4,618.9z M2017.4,653.4c-7.2,0-13-5.8-13-13s5.8-13,13-13s13,5.8,13,13
							C2030.4,647.6,2024.6,653.4,2017.4,653.4z"/>
						<path class="st2" d="M2151.3,618.9c-11.9,0-21.6,9.6-21.6,21.6c0,11.9,9.6,21.6,21.6,21.6c11.9,0,21.6-9.6,21.6-21.6
							C2172.9,628.5,2163.2,618.9,2151.3,618.9z M2151.3,653.4c-7.2,0-13-5.8-13-13s5.8-13,13-13s13,5.8,13,13
							C2164.4,647.6,2158.5,653.4,2151.3,653.4z"/>
					</g>
					<path class="st2" d="M1945.8,394.5c0,5.6-4.5,10.1-10.1,10.1H1902c-5.6,0-10.1-4.5-10.1-10.1l0,0c0-5.6,4.5-10.1,10.1-10.1
						h33.7C1941.2,384.4,1945.8,388.9,1945.8,394.5L1945.8,394.5z"/>
				</g>
			</g>
			<path class="st27" d="M2068.8,414.7c-8.6-12.8-10.4-30-10.8-37.1c-21.7,4.7-43.3,13.1-42.1,19.3c0.2,0.8,1.1,1.7,2.8,2.6
				l-2.5,4.6c-3.1-1.7-4.9-3.8-5.4-6.2c-1.4-7,6.5-13.4,24.3-19.4c12.2-4.2,24.4-6.6,24.9-6.7l3.1-0.7v3.2c0,0.2,0.2,22.4,10,37.3
				L2068.8,414.7z"/>
			<path class="st27" d="M2077.6,581.1h-1.3c-42.9,0-90.8-13.5-96.4-36.1c-3.4-13.8,7.8-29.1,32.6-44l2.7,4.5
				c-22.3,13.5-33,27.1-30.2,38.3c4.9,19.6,50.2,31.8,89.9,32.1c4.7-7,30.1-48.6,15.6-104.2l5.1-1.3
				c16.5,63.3-16.9,109.2-17.2,109.7L2077.6,581.1z"/>
			<path class="st27" d="M1999.9,561.6c-2.9,0-4.2-0.3-4.5-0.3c-0.9-0.2-1.6-0.9-1.9-1.9c-0.2-0.9,0-1.9,0.7-2.5
				c0.4-0.4,37.7-37.8,42.8-68l5.1,0.9c-4.3,26-30,55.7-40.2,66.6c10.2-0.6,35.8-5.3,85.1-32.9c-38.4-4.2-44.5-35-44.6-35.3l5.1-1
				c0.2,1.3,6.4,31.5,48.5,31.5l0,0l0,0c1.2,0,2.2,0.8,2.5,2c0.3,1.1-0.2,2.4-1.2,2.9C2038.6,557.6,2010.1,561.6,1999.9,561.6z"/>
			<path class="st27" d="M2023.9,574.2c-1.1,0-2-0.7-2.4-1.7c-0.4-1.1,0-2.4,0.9-3c0.2-0.2,9.5-7,19.4-22.2c-3.8-1.7-7.7-3.7-11.5-6
				c-4.7-2.8-8.2-5.8-10.8-8.9c-13.5,3.6-25.9,5-36.8,4l0.4-5.2c9.8,0.8,21-0.3,33.1-3.3c-8.2-14.1-0.7-28.1-0.6-28.2l4.6,2.5
				c-0.3,0.7-6.6,12.4,1.3,24.3c11.5-3.3,23.8-8.2,36.6-14.6c2.9-9.6,5.2-20.6,6.4-32.9c0.1-0.8,0.6-1.6,1.3-2s1.6-0.5,2.4-0.1
				c0.2,0.1,17.1,7.8,29.4,12.9c0.9,0.3,1.6,1.2,1.6,2.1c0.1,1-0.3,1.9-1.1,2.4c-12,8.2-23.9,15.3-35.5,21.2
				c-3.7,11.7-8.2,21.4-12.9,29.3c19.4,7.3,36.2,7.3,36.5,7.3c1.2,0,2.2,0.8,2.5,2c0.3,1.1-0.2,2.4-1.2,2.9
				c-23.8,13.2-61.7,16.9-63.3,17.1C2024.1,574.2,2024,574.2,2023.9,574.2z M2047,549.4c-5.5,8.5-10.8,14.5-14.8,18.5
				c10.4-1.6,28.8-4.9,44.1-11.2C2068.9,555.8,2058.4,553.8,2047,549.4z M2025.2,530.9c2,2,4.7,4.1,7.8,6c3.8,2.3,7.8,4.2,11.7,6
				c3.9-6.6,7.8-14.6,11.3-23.9C2045.3,523.9,2035,527.9,2025.2,530.9z M2069.5,483.2c-1.1,9.3-2.7,17.7-4.8,25.4
				c8.7-4.7,17.5-10,26.5-15.8C2083.1,489.3,2074.1,485.3,2069.5,483.2z"/>
			<path class="st27" d="M2041.8,411.2c-0.6,0-1.2-0.2-1.7-0.7c-8.4-7.2-18.4-22-18.8-22.5c-0.7-1-0.6-2.4,0.2-3.3
				c0.8-0.9,2.1-1.1,3.2-0.6c0.1,0,4.9,2,37.8,7.5c1,0.2,1.7,0.8,2,1.7s0.1,1.9-0.5,2.6c-9.2,10.2-20.8,14.8-21.4,14.9
				C2042.5,411.1,2042.1,411.2,2041.8,411.2z M2029.9,391c3.3,4.4,8.1,10.4,12.4,14.5c2.7-1.2,8.7-4.2,14.4-9.4
				C2043.1,393.8,2034.9,392.1,2029.9,391z"/>
			<path class="st27" d="M2062.3,483.5c-0.3,0-0.7-0.1-1.1-0.2c-1.1-0.5-1.7-1.6-1.6-2.7c1.6-14.4-20.6-20.2-20.8-20.2
				c-0.9-0.2-1.6-0.9-1.9-1.9c-0.2-0.9,0-1.9,0.7-2.5c1.1-1.1,26.9-26.7,59.3-40.8c0.9-0.4,2-0.2,2.7,0.3c0.7,0.7,1.1,1.6,0.9,2.5
				c-6.2,30.1-35.2,63.1-36.4,64.5C2063.8,483.2,2063,483.5,2062.3,483.5z M2044.6,456.7c6.2,2.4,17.1,7.8,19.8,17.5
				c7.6-9.5,23.8-31.3,29.9-52.1C2071.3,433.3,2051.9,450,2044.6,456.7z"/>
			<path class="st27" d="M2016.4,504.2l-2.4-4.6c9.9-5.3,21.1-15.1,30.4-26.5c-7.9,5.4-12.4,9.1-12.6,9.2l-3.3-4.1
				c0.2-0.2,9.2-7.6,24.2-16.9c4.2-6.6,7.3-13.5,8.9-20c0.2-1.1,0.5-2.2,0.7-3.2c-10.1-3.6-19.4-5.7-25.8-6.6
				c-1-0.2-1.8-0.8-2.1-1.7c-0.3-0.9-0.1-2,0.6-2.7c0.4-0.5,11.1-11.9,24.4-18.2c1.1-0.5,2.3-0.2,3,0.6c0.3,0.4,7.5,8.5,5.7,25.2
				c6,2.4,12.3,5.2,18.3,8.7c14.4-6.5,30.9-12.3,48.4-15.9c0.9-0.2,1.9,0.2,2.5,0.9c0.6,0.7,0.8,1.7,0.4,2.6
				c-6.8,17.5-25.1,36.1-25.9,36.9c-0.5,0.6-1.2,0.8-2,0.7c-0.7,0-1.5-0.4-1.9-1c-5.9-7.3-13.5-13.5-21.8-18.4
				c-11.4,5.2-21.5,10.9-29.8,16C2045.8,481.9,2029.8,497.1,2016.4,504.2z M2091.9,446.8c6.8,4.3,13.1,9.5,18.3,15.4
				c4.3-4.7,14.8-16.6,20.7-28.4C2117,437.1,2103.8,441.6,2091.9,446.8z M2067.4,440.2c-0.2,0.8-0.4,1.7-0.6,2.6
				c-1.1,4.4-2.9,8.9-5.1,13.4c5.7-3.3,12.1-6.7,18.9-10C2076.3,443.9,2071.8,441.9,2067.4,440.2z M2042.5,427.3
				c5.8,1.1,13,3,20.7,5.7c0.8-9.6-1.8-15.6-3.4-18.2C2052.5,418.5,2046.2,423.8,2042.5,427.3z"/>
			<path class="st27" d="M2042.5,452.6c0,22.9-19.1,41.2-32.9,54.5c-2.3,2.3-10.1,2.6-10.1,2.6c2-2,4.2-4.1,6.5-6.4
				c13.1-12.7,31.3-30,31.3-50.8c0-24.6-9.9-34.3-17.7-42c-3.4-3.5-6.4-6.9-8.2-10.9l1.6-0.7c1.8,0.8,3.8,1.7,5.4,2.4
				c1.2,1.9,2.9,3.6,4.9,5.6C2031.2,414.9,2042.5,425.9,2042.5,452.6z"/>
			<path class="st27" d="M2172.9,459.4c0,0-3.2,0.4-4.1,0.6c-45.9,5.1-93.3,18.3-120.4,29.1c-9.8,3.9-20,8.7-29.2,14
				c-0.1,0.1-0.1,0.1-0.2,0.1c-5.5,3.2-18.7,9.6-29.5,15.3c15.8-16.7,45.2-29.6,56.9-34.4c26.6-10.6,72.2-23.5,117.1-29
				c-5.3-6.2-18.3-19.3-43.8-29.1c-14.9-5.8-37.5-9-57.5-11.9c-31.8-4.6-49.9-7.6-51.6-16.2c-0.3-1.7-0.1-3.4,0.7-5.1
				c1.7,2.9,4.2,4.8,5.8,6c0.8,0.5,1.4,0.8,1.6,1l0.1,0.1c7.4,3.9,27.5,6.8,44.2,9.2c20.2,2.9,43.2,6.2,58.6,12.2
				c36,13.9,48.4,33.8,49,34.6C2171.2,456.7,2172.9,459.4,2172.9,459.4z"/>
		</g>
		<g>
			
				<linearGradient id="SVGID_23_" gradientUnits="userSpaceOnUse" x1="2709.9172" y1="-3610.0137" x2="349.0585" y2="800.2675" gradientTransform="matrix(1 0 0 1 0 4165.8896)">
				<stop  offset="0" style="stop-color:#FF928E"/>
				<stop  offset="1" style="stop-color:#FE7062"/>
			</linearGradient>
			<path class="st28" d="M2241.9,929.2v237.1c0,28.2,22.1,51.4,50.3,52.7l296.5,13.9c30.1,1.4,55.2-22.6,55.2-52.7v-251
				c0-29.1-23.6-52.8-52.8-52.8h-296.5C2265.5,876.4,2241.9,900,2241.9,929.2z"/>
			<path class="st27" d="M2317.8,1214.1c-4.3,0-8.2-1.3-11.2-4.1l-8.6-7.9c-4.2-3.8-5.9-9.7-4.9-16.5c1-6.4,4.3-13,9.4-18.6l5.7-6.2
				c0.4-0.4,0.8-0.9,1.2-1.3l107-107c1-1,2.7-1,3.7,0s1,2.7,0,3.7l-107,107c-0.4,0.4-0.7,0.7-1.1,1.1l-5.7,6.2
				c-4.4,4.8-7.3,10.4-8.1,15.8c-0.8,5,0.4,9.2,3.2,11.8l8.6,7.9c6,5.5,18.5,2.2,27.1-7.2l5.7-6.2c0.4-0.4,0.7-0.8,1-1.2l85.4-101.6
				c0.9-1.1,2.6-1.3,3.7-0.3c1.1,0.9,1.3,2.6,0.3,3.7l-85.4,101.6c-0.4,0.5-0.8,0.9-1.2,1.4l-5.7,6.2
				C2334.2,1210,2325.4,1214.1,2317.8,1214.1z M2320.4,1197.3c-2.9,0-5.5-0.9-7.6-2.7c-6-5.5-4-17,4.6-26.3
				c3.9-4.2,8.6-7.3,13.2-8.7c5.1-1.5,9.6-0.8,12.6,1.9c3,2.8,4.1,7.2,3,12.4c-1,4.7-3.7,9.6-7.6,13.9
				C2333,1193.9,2326.1,1197.3,2320.4,1197.3z M2335.7,1164.1c-1.3,0-2.6,0.3-3.6,0.6c-3.7,1.1-7.6,3.7-10.8,7.2
				c-6.2,6.7-8.5,15.5-4.9,18.8c3.2,2.9,11.5,1,18.3-6.5l0,0c3.3-3.6,5.5-7.6,6.3-11.4c0.4-1.9,0.8-5.4-1.4-7.4
				C2338.5,1164.4,2337.1,1164.1,2335.7,1164.1z M2468.8,1049.8c-0.6,0-1.2-0.2-1.7-0.6c-1.1-0.9-1.3-2.6-0.3-3.7l30.8-36.6l1.9,1.2
				c24,14.6,52.8,10.6,71.6-9.9c12.2-13.3,18.1-31,16.3-48.6c-0.3-2.4-1.8-4.2-4-5c-1.8-0.6-4.4-0.5-6.4,1.7l-33.2,36.2
				c-2.9,3.2-7.2,4.8-11.4,4.5l-17.9-1.5c-6.3-0.5-11.4-5.3-12.5-11.5l-3.1-17.7c-0.7-4.2,0.6-8.6,3.5-11.8l33.2-36.2
				c2-2.1,1.8-4.8,1.1-6.5c-0.9-2.2-2.9-3.6-5.3-3.6c-17.6-0.3-34.8,7.1-47,20.4c-18.8,20.5-20.3,49.6-3.7,72.2l1.3,1.8l-39.9,39.9
				c-1,1-2.7,1-3.7,0s-1-2.7,0-3.7l36.7-36.7c-16.8-24.4-14.7-55.1,5.4-77c13.2-14.4,31.8-22.5,51-22.1c4.4,0.1,8.3,2.7,10,6.8
				c1.8,4.2,1,8.8-2.1,12.2l-33.2,36.2c-1.8,2-2.6,4.7-2.1,7.3l3.1,17.7c0.7,3.9,3.9,6.8,7.8,7.1l17.9,1.5c2.7,0.2,5.3-0.8,7.1-2.8
				l33.2-36.2c3.1-3.3,7.6-4.5,11.9-3.1c4.2,1.4,7.2,5,7.6,9.4c2,19.1-4.4,38.3-17.6,52.7c-20.1,21.9-50.5,26.6-76.3,12l-27.9,33.2
				C2470.3,1049.5,2469.6,1049.8,2468.8,1049.8z"/>
			<g class="st0">
				<path class="st29" d="M2549,1215.5c-0.7,0-1.4,0-2.1-0.1c-6.7-0.6-12.7-3.7-16.9-8.9l-99.2-121.5c-4.3-5.3-3.6-12.9,1.5-17.3
					l19.6-17.1c5.1-4.5,12.7-4.1,17.4,0.9l106.9,114.8c4.6,4.9,6.9,11.3,6.5,18c-0.3,6.7-3.3,12.8-8.4,17.2l-9.2,8
					C2560.5,1213.4,2554.9,1215.5,2549,1215.5z M2456.4,1055.9l-19.6,17.1c-2.2,2-2.5,5.3-0.6,7.6l99.2,121.5c3,3.7,7.3,6,12.1,6.4
					s9.4-1.1,12.9-4.2l9.2-8c3.6-3.1,5.7-7.5,6-12.2c0.2-4.8-1.4-9.3-4.7-12.8l-106.9-115C2462,1054.1,2458.6,1053.9,2456.4,1055.9
					L2456.4,1055.9z"/>
			</g>
			<path class="st27" d="M2437,1069.8L2350.9,969c-1.4,0-2.6-0.5-3.7-1.3l-25.8-19.8c-0.7-0.5-1.3-1.2-1.7-2l-11.4-22.7
				c-1.4-2.8-0.5-6.3,2.1-8.6l6.5-5.6c2.6-2.3,6.2-2.7,8.8-0.9l20.9,14.4c0.7,0.5,1.3,1.1,1.7,1.8L2365,952c0.9,1.5,1.1,3.2,0.7,4.9
				l88.7,99.7L2437,1069.8z M2353,963.5l84.8,99.2l8.8-6.6l-87.3-98l0.9-1.6c0.3-0.6,0.4-1.2,0.2-1.5l-16.7-27.7
				c0-0.1-0.1-0.1-0.2-0.2l-20.9-14.4c-0.5-0.3-1.5-0.2-2.4,0.5l-6.5,5.6c-0.9,0.7-1.1,1.8-0.8,2.3l11.4,22.7c0,0.1,0.1,0.2,0.2,0.2
				l25.8,19.8c0.2,0.2,0.6,0.2,1.1,0.1L2353,963.5z"/>
			<g>
				<text transform="matrix(1.1584 -9.981512e-02 0.1164 0.9932 2455.8176 1097.9178)" class="st2 st30 st31">#</text>
				<g>
					<path class="st2" d="M2485.6,1141.1c-10,4.8-32,12.1-60.1,12.1c-63.2,0-104.3-42.8-104.3-106.9c0-64.5,44.1-111.6,112.5-111.6
						c22.5,0,42.4,5.6,52.8,11.3l-8.7,29c-9.1-4.8-23.4-10-44.1-10c-48,0-74,35.9-74,79.2c0,48.5,31.2,78.3,72.7,78.3
						c21.6,0,35.9-5.2,46.7-10L2485.6,1141.1z"/>
				</g>
			</g>
		</g>
		<g>
			
				<linearGradient id="SVGID_24_" gradientUnits="userSpaceOnUse" x1="1557.4408" y1="-4226.9434" x2="-803.4158" y2="183.3336" gradientTransform="matrix(1 0 0 1 0 4165.8896)">
				<stop  offset="0" style="stop-color:#FF928E"/>
				<stop  offset="1" style="stop-color:#FE7062"/>
			</linearGradient>
			<path class="st32" d="M1170.3,92.5v269.6c0,32,25.2,58.4,57.2,59.9l337.1,15.8c34.2,1.6,62.8-25.7,62.8-59.9V92.5
				c0-33.1-26.9-60-60-60h-337.1C1197.2,32.5,1170.3,59.4,1170.3,92.5z"/>
			<g class="st0">
				<path class="st29" d="M1515.6,357.2h-232.3c-17.4,0-31.6-14.2-31.6-31.6V155.7c0-17.4,14.2-31.6,31.6-31.6h232.3
					c17.4,0,31.6,14.2,31.6,31.6v169.9C1547.2,343,1533,357.2,1515.6,357.2z M1283.3,144.9c-5.9,0-10.8,4.8-10.8,10.8v169.9
					c0,5.9,4.8,10.8,10.8,10.8h232.3c5.9,0,10.8-4.8,10.8-10.8V155.7c0-5.9-4.8-10.8-10.8-10.8H1283.3z"/>
				<path class="st29" d="M1399.6,244.4c-2.1,0-4.2-0.6-6-1.9l-130.2-92.3c-4.7-3.3-5.8-9.8-2.5-14.5s9.8-5.8,14.5-2.5l124.2,88.1
					l122.5-87c4.7-3.3,11.2-2.2,14.5,2.5s2.2,11.2-2.5,14.5l-128.6,91.3C1403.9,243.8,1401.8,244.4,1399.6,244.4z"/>
				<path class="st29" d="M1271.1,349.9l-3-20.6l1.4,10.3l-8.7-5.7c2.4-3.9,49.4-86,80.3-140.3c2.8-5,9.2-6.7,14.2-3.9
					s6.7,9.2,3.9,14.2c0,0-20.1,35.2-40.2,70.4c-10.1,17.6-20.1,35.2-27.7,48.4C1276.1,349.1,1276.1,349.1,1271.1,349.9z"/>
				<path class="st29" d="M1527.4,349.9c-5-0.8-5-0.8-20.1-27.1c-7.6-13.2-17.7-30.8-27.7-48.4c-20.1-35.2-40.2-70.4-40.2-70.4
					c-2.8-5-1.1-11.3,3.9-14.2c5-2.8,11.3-1.1,14.2,3.9c31,54.2,77.9,136.4,80.3,140.3l-8.7,5.7L1527.4,349.9z"/>
			</g>
			<path class="st2" d="M1462.9,71.8c-1-1-2.3-1.5-3.6-1.5h-142.8c-19.7,0-35.7,16-35.7,35.7v234.6c0,19.7,16,35.7,35.7,35.7h173.4
				c19.7,0,35.7-16,35.7-35.7v-204c0-1.4-0.5-2.7-1.5-3.6L1462.9,71.8z M1464.4,87.7l43.8,43.8h-18.3c-14.1,0-25.5-11.4-25.5-25.5
				V87.7z M1316.5,80.5h137.7V106c0,19.7,16,35.7,35.7,35.7h25.5v142.8H1291V106C1291,91.9,1302.4,80.5,1316.5,80.5z M1489.9,366.1
				h-173.4c-14.1,0-25.5-11.4-25.5-25.5v-45.9h224.4v45.9C1515.4,354.7,1504,366.1,1489.9,366.1z M1318,206.5c-2-2-2-5.2,0-7.2l0,0
				l30.6-30.6c2-2,5.2-2,7.2,0s2,5.2,0,7.2l-27,27l27,27c2,2,2,5.2,0,7.2s-5.2,2-7.2,0L1318,206.5z M1450.6,229.9l27-27l-27-27
				c-2-2-2-5.2,0-7.2s5.2-2,7.2,0l30.6,30.6c2,2,2,5.2,0,7.2l0,0l-30.6,30.6c-2,2-5.2,2-7.2,0S1448.6,231.9,1450.6,229.9z
				 M1378.6,230.7l40.8-61.2c1.6-2.3,4.7-3,7.1-1.4c2.3,1.6,2.9,4.7,1.4,7l-40.8,61.2c-1.6,2.4-4.7,3-7.1,1.5
				S1377,233.1,1378.6,230.7L1378.6,230.7L1378.6,230.7z M1382.2,192.7c0.2,0,0.4,0,0.6,0c8.5,0,15.3-6.8,15.3-15.3
				s-6.8-15.3-15.3-15.3s-15.3,6.8-15.3,15.3C1367.5,185.6,1374,192.4,1382.2,192.7z M1379.4,173.7c0.9-0.9,2.2-1.4,3.5-1.3
				c0.1,0,0.1,0,0.2,0c2.8,0.1,5,2.5,4.9,5.3s-2.5,5-5.3,4.9s-5-2.5-4.9-5.3C1377.8,175.9,1378.4,174.6,1379.4,173.7L1379.4,173.7z
				 M1408.3,228.4c0,8.5,6.9,15.3,15.3,15.3c8.5,0,15.3-6.9,15.3-15.3c0-8.5-6.9-15.3-15.3-15.3
				C1415.2,213.1,1408.3,220,1408.3,228.4z M1428.7,228.4c0,2.8-2.3,5.1-5.1,5.1s-5.1-2.3-5.1-5.1s2.3-5.1,5.1-5.1
				C1426.4,223.3,1428.7,225.6,1428.7,228.4z"/>
		</g>
		<g>
			
				<linearGradient id="SVGID_25_" gradientUnits="userSpaceOnUse" x1="1077.8918" y1="-4483.6499" x2="-1282.9648" y2="-73.3725" gradientTransform="matrix(1 0 0 1 0 4165.8896)">
				<stop  offset="0" style="stop-color:#FF928E"/>
				<stop  offset="1" style="stop-color:#FE7062"/>
			</linearGradient>
			<path class="st33" d="M446.1,263.3v283.6c0,33.7,26.5,61.4,60.1,63l354.6,16.7c36,1.7,66-27,66-63V263.3
				c0-34.8-28.2-63.1-63.1-63.1H509.2C474.4,200.2,446.1,228.5,446.1,263.3z"/>
			<g class="st0">
				<g class="st1">
					<g>
						<g>
							<path class="st2" d="M699.7,438.4c0,25.2-1.8,50.4-6.2,75.3c-1.1,6.2-2.4,12.4-4,18.5s-3.3,12.2-5.5,18.1
								c-2.2,5.9-4.8,11.7-8.3,17.1c-1.8,2.6-3.7,5.2-6.2,7.3c-1.2,1-2.6,2-4.1,2.6c-1.5,0.7-3.1,1.1-4.7,1.1
								c-1.6,0-3.3-0.3-4.8-0.9c-1.5-0.6-2.9-1.5-4.2-2.5c-2.5-2-4.5-4.5-6.3-7.1c-3.5-5.3-6.1-11.1-8.4-17c-2.2-5.9-4-12-5.6-18.1
								s-2.9-12.3-4-18.5c-2.3-12.4-3.8-24.9-4.8-37.5s-1.5-25.2-1.6-37.8c0-6.3,0.1-12.6,0.4-18.9c0.2-6.3,0.6-12.6,1-18.9
								c0.9-12.6,2.3-25.1,4.4-37.5c1-6.2,2.2-12.4,3.7-18.5s3.1-12.2,5.2-18.2c1.1-3,2.2-5.9,3.5-8.8s2.8-5.7,4.5-8.3
								c1.7-2.6,3.7-5.2,6.2-7.2c1.2-1,2.6-1.9,4.1-2.5s3.1-0.9,4.7-0.8c1.6,0,3.2,0.4,4.7,1.1c1.5,0.6,2.8,1.5,4,2.5
								c2.5,2,4.5,4.5,6.3,7.1c3.6,5.2,6.3,11,8.7,16.8c2.3,5.9,4.3,11.9,5.9,18c1.7,6.1,3.1,12.2,4.3,18.4
								C697.6,387.9,699.6,413.1,699.7,438.4z M697.8,438.4c0-12.6-0.5-25.1-1.5-37.6s-2.6-25-4.9-37.3c-1.2-6.2-2.5-12.3-4.1-18.4
								s-3.5-12.1-5.7-17.9c-2.3-5.8-4.9-11.6-8.4-16.7c-1.8-2.6-3.7-5-6.1-7c-1.2-1-2.5-1.9-3.9-2.5s-2.9-1-4.4-1.1
								c-1.5,0-3.1,0.3-4.5,0.8c-1.4,0.6-2.7,1.4-3.9,2.4c-2.4,2-4.3,4.5-6,7.1s-3.1,5.4-4.4,8.3c-1.3,2.9-2.4,5.8-3.4,8.8
								c-2,5.9-3.6,12-5,18.1s-2.5,12.3-3.5,18.5c-1.9,12.4-3.2,24.9-4,37.4s-1.1,25.1-1,37.7c0,12.6,0.4,25.1,1.3,37.6
								c0.9,12.5,2.4,25,4.5,37.4c1.1,6.2,2.3,12.3,3.8,18.4c1.5,6.1,3.3,12.1,5.4,18c2.2,5.9,4.7,11.6,8.1,16.8
								c1.7,2.6,3.7,5,6.1,7c1.2,1,2.5,1.8,3.9,2.4c1.4,0.6,2.9,0.9,4.4,0.8c1.5,0,3-0.4,4.3-1.1c1.4-0.6,2.6-1.5,3.8-2.5
								c2.3-2,4.2-4.5,5.9-7.1c3.4-5.2,5.9-11,8-16.9s3.9-11.9,5.3-18c1.5-6.1,2.7-12.2,3.8-18.4c2.1-12.4,3.6-24.9,4.5-37.4
								C697.4,463.5,697.8,450.9,697.8,438.4z"/>
						</g>
						<g>
							<path class="st2" d="M660.4,582c-1.9,0-3.9-0.4-5.8-1.2c-1.7-0.7-3.4-1.7-5.1-3c-2.5-2-4.8-4.5-7.1-8
								c-3.2-4.8-6-10.4-8.8-17.8c-2.1-5.6-4-11.6-5.7-18.5c-1.5-5.9-2.8-12-4.1-18.7c-2.2-11.9-3.8-24.3-4.9-37.9
								c-1-12.3-1.6-25.1-1.6-38.1c0-6.7,0.2-13.4,0.4-19c0.2-6.4,0.6-12.8,1.1-19c1-13.7,2.5-26,4.4-37.9
								c1.1-6.7,2.3-12.9,3.7-18.8c1.6-6.9,3.4-13,5.4-18.5c1.2-3.4,2.4-6.3,3.6-9.1c1.5-3.3,3.1-6.2,4.8-8.8c2.3-3.5,4.5-6,7-8
								c1.7-1.3,3.4-2.4,5.1-3c2-0.8,4.1-1.2,6.2-1.1c2,0.1,4,0.5,6,1.4c1.7,0.7,3.3,1.7,4.9,3c2.5,2,4.7,4.5,7,7.8
								c3.3,4.8,6.2,10.3,9.1,17.5c2.2,5.6,4.2,11.6,6.1,18.3c1.6,5.9,3.1,12,4.4,18.7c4.6,23.5,6.9,48.3,7,75.9l0,0
								c0,27.7-2.1,52.6-6.2,75.9c-1.2,6.7-2.5,12.8-4,18.8c-1.7,6.8-3.6,12.9-5.7,18.5c-2.7,7.3-5.5,13-8.6,17.8
								c-2.3,3.4-4.5,6-6.9,8c-1.6,1.4-3.2,2.4-4.9,3.2c-2.1,0.9-4.1,1.4-6.2,1.4C660.6,582,660.5,582,660.4,582z M658.5,303.5
								c-0.9,0-1.9,0.2-2.8,0.6c-1,0.4-2,1-3,1.9c-1.8,1.5-3.5,3.5-5.2,6.2c-1.4,2.3-2.8,4.8-4.1,7.8c-1.1,2.5-2.2,5.3-3.3,8.5
								c-1.8,5.3-3.4,11.1-4.9,17.7c-1.3,5.7-2.4,11.7-3.4,18.3c-1.8,11.6-3.1,23.8-3.9,37.1c-0.7,11.4-1.1,23.7-1,37.4
								c0,12.7,0.4,25.3,1.3,37.4c1,13.3,2.5,25.4,4.5,37c1.1,6.5,2.4,12.4,3.8,18.2c1.6,6.6,3.4,12.3,5.3,17.6
								c2.5,6.7,4.9,11.8,7.7,16.1c1.8,2.7,3.5,4.6,5.3,6.1c1,0.8,2,1.4,2.9,1.8c1,0.4,2,0.6,2.9,0.6c1,0,1.9-0.3,2.9-0.7
								s2-1.1,2.9-2c1.8-1.5,3.5-3.5,5.3-6.3c2.7-4.3,5.2-9.4,7.6-16.1c1.9-5.3,3.6-11.1,5.2-17.6c1.4-5.7,2.6-11.6,3.7-18.2
								c2-11.5,3.4-23.6,4.4-37c0.9-12.1,1.4-24.6,1.4-37.4l0,0c0-12.7-0.5-25.2-1.5-37.3c-1.1-13.3-2.7-25.4-4.8-36.9
								c-1.2-6.4-2.5-12.4-4-18.1c-1.7-6.5-3.6-12.2-5.6-17.5c-2.6-6.6-5.1-11.7-8-16c-1.9-2.7-3.6-4.7-5.4-6.2
								c-1-0.9-2.1-1.5-3.1-2s-2.1-0.7-3-0.8C658.6,303.5,658.5,303.5,658.5,303.5z"/>
						</g>
					</g>
					<g>
						<g>
							<path class="st2" d="M763,438.4c-0.1,16.2-2.2,32.5-6.5,48.1c-4.4,15.6-11,30.6-20.1,44.1c-4.5,6.7-9.6,13.1-15.3,18.8
								s-12,10.9-18.9,15.2s-14.3,7.8-22,10.1s-15.8,3.6-23.9,3.6c-8.1,0-16.2-1.2-23.9-3.6c-7.7-2.3-15.2-5.8-22-10.1
								c-6.9-4.3-13.2-9.5-18.9-15.2s-10.8-12.1-15.3-18.8c-9-13.5-15.7-28.5-20.1-44.1c-2.2-7.8-3.8-15.8-4.9-23.9
								c-1.1-8.1-1.6-16.2-1.6-24.3c0-8.1,0.6-16.2,1.7-24.3c1.1-8,2.7-16,4.9-23.8c4.4-15.6,11.1-30.6,20.1-44.1
								c4.5-6.7,9.6-13.1,15.3-18.8c5.7-5.7,12-10.9,18.9-15.2c6.9-4.3,14.3-7.7,22-10s15.8-3.6,23.9-3.6c8.1,0,16.1,1.2,23.9,3.6
								c7.7,2.3,15.1,5.8,22,10.1c6.8,4.3,13.1,9.5,18.8,15.2s10.8,12.1,15.3,18.8c9,13.5,15.7,28.5,20.1,44.1
								C760.8,405.9,762.9,422.1,763,438.4z M760.9,438.4c0-16-2-32.1-6.2-47.6s-10.6-30.4-19.4-43.8c-4.4-6.7-9.4-13-15-18.8
								c-5.6-5.7-11.8-10.9-18.5-15.2c-6.8-4.3-14.1-7.7-21.7-10.1c-7.7-2.3-15.6-3.6-23.6-3.6s-16,1.3-23.6,3.6
								c-7.7,2.3-14.9,5.8-21.7,10.1c-6.7,4.3-12.9,9.5-18.5,15.3c-5.7,5.7-10.7,12-15.1,18.7c-8.8,13.4-15.1,28.3-19.4,43.8
								c-2.1,7.7-3.6,15.6-4.7,23.6c-1,7.9-1.5,16-1.6,24c0,8,0.5,16,1.6,24c1,7.9,2.6,15.8,4.7,23.6c4.2,15.4,10.6,30.4,19.4,43.8
								c4.4,6.7,9.4,13,14.9,18.8c5.6,5.7,11.7,10.9,18.5,15.2c6.7,4.3,14,7.7,21.7,10.1c7.6,2.3,15.6,3.6,23.6,3.6s16-1.3,23.6-3.6
								s14.9-5.8,21.7-10c6.8-4.3,12.9-9.5,18.5-15.2s10.6-12.1,15-18.7c8.8-13.4,15.2-28.3,19.4-43.8
								C758.8,470.5,760.8,454.4,760.9,438.4z"/>
						</g>
						<g>
							<path class="st2" d="M656.4,582c-8.4,0-16.8-1.2-25-3.7c-7.9-2.4-15.6-5.9-22.9-10.5c-6.9-4.3-13.5-9.6-19.5-15.7
								c-5.7-5.7-11-12.3-15.8-19.4c-9-13.4-15.9-28.6-20.6-45.2c-2.2-7.9-3.9-16.1-5-24.4c-1.1-8.1-1.6-16.4-1.7-24.8
								c0-8.4,0.6-16.7,1.7-24.8c1.1-8.3,2.8-16.5,5-24.3c4.7-16.6,11.6-31.8,20.6-45.2c4.8-7.1,10.1-13.6,15.8-19.3
								c6.1-6.1,12.6-11.4,19.5-15.7c7.3-4.5,15-8.1,22.9-10.4c8.1-2.5,16.5-3.7,24.9-3.7s16.8,1.3,24.9,3.7
								c7.9,2.4,15.6,5.9,22.9,10.5c6.9,4.3,13.4,9.6,19.5,15.7c5.7,5.8,11,12.3,15.8,19.3c9,13.4,15.9,28.6,20.6,45.1
								c4.3,15.6,6.6,32.1,6.7,49.1l0,0c-0.1,17-2.3,33.5-6.6,49.1c-4.7,16.6-11.6,31.8-20.5,45.2c-4.7,7.1-10.1,13.6-15.8,19.4
								c-6,6.1-12.6,11.4-19.5,15.8c-7.3,4.6-15,8.1-22.9,10.5C673.2,580.7,664.8,582,656.4,582z M656.4,302.9
								c-7.6,0-15.2,1.2-22.6,3.4c-7.1,2.2-14.1,5.4-20.8,9.7c-6.2,4-12.2,8.9-17.8,14.7c-5.3,5.4-10.1,11.6-14.5,18.2
								c-8.2,12.6-14.6,27-18.9,42.8c-2,7.3-3.5,15.1-4.6,23.1c-1,7.7-1.5,15.6-1.5,23.5s0.5,15.8,1.5,23.5c1,8,2.6,15.8,4.6,23.1
								c4.3,15.8,10.7,30.1,18.9,42.7c4.4,6.7,9.2,12.8,14.5,18.2c5.6,5.8,11.6,10.7,17.8,14.7c6.6,4.2,13.6,7.4,20.8,9.6
								c7.4,2.3,14.9,3.4,22.5,3.5c7.6,0,15.2-1.2,22.5-3.4c7.2-2.2,14.2-5.4,20.8-9.6c6.2-3.9,12.2-8.9,17.8-14.7
								c5.3-5.4,10.2-11.5,14.5-18.2c8.2-12.6,14.6-27,19-42.7c4-14.8,6.1-30.5,6.1-46.6s-2.1-31.8-6.1-46.6
								c-4.3-15.8-10.7-30.2-18.9-42.8c-4.4-6.7-9.3-12.8-14.5-18.2C712,325,706,320,699.8,316c-6.7-4.2-13.7-7.5-20.8-9.7
								C671.6,304.1,664,303,656.4,302.9z"/>
						</g>
					</g>
					<g>
						<g>
							<path class="st2" d="M532,383l32-0.3l32-0.1l64-0.1l64,0.1l32,0.2l32,0.3c0.1,0,0.1,0,0.1,0.1c0,0,0,0.1-0.1,0.1l-32,0.3
								l-32,0.2l-64,0.1l-64-0.1l-32-0.1l-32-0.3c-0.1,0-0.1-0.1-0.1-0.1C531.8,383,531.9,383,532,383z"/>
						</g>
						<g>
							<polygon class="st2" points="660,387.4 564,387.2 530.4,386.9 528.2,384.7 528.2,383 528.3,379.4 531.9,379.3 596,378.9 
								660,378.8 756.1,379.1 791.8,379.4 791.8,386.8 788.1,386.9 724.1,387.3 							"/>
						</g>
					</g>
					<g>
						<g>
							<path class="st2" d="M569.1,329.1c7.6-0.1,15.2-0.2,22.7-0.3l22.7-0.1c7.6-0.1,15.2-0.1,22.7-0.1h22.7l45.5,0.1l22.7,0.2
								c7.6,0.1,15.2,0.2,22.7,0.3c0.1,0,0.1,0,0.1,0c0,0.1,0,0.1-0.1,0.1c-7.6,0.1-15.2,0.2-22.7,0.3l-22.7,0.2l-45.5,0.1h-22.7
								c-7.6,0-15.2,0-22.7-0.1l-22.7-0.1c-7.6-0.1-15.2-0.1-22.7-0.3c-0.1,0-0.1-0.1-0.1-0.1C569,329.2,569,329.1,569.1,329.1z"/>
						</g>
						<g>
							<path class="st2" d="M660,333.6l-28.6-0.1c-5.6,0-11.2,0-16.9-0.1l-30.3-0.2c-5.1-0.1-10.1-0.1-15.2-0.2l-3.6-0.1l-0.1-7.4
								l3.7-0.1c4.9-0.1,9.8-0.1,14.7-0.2l30.8-0.2c5.3,0,10.7-0.1,16-0.1l29.5-0.1l76.5,0.4c4.8,0.1,9.7,0.1,14.5,0.2l3.7,0.1
								l-0.2,7.4L751,333c-5,0.1-10.1,0.1-15.1,0.2l-30.3,0.2L660,333.6z"/>
						</g>
					</g>
					<g>
						<g>
							<path class="st2" d="M520.8,436.8l34.8-0.3l34.8-0.1l69.6-0.1l69.6,0.1l34.8,0.2l34.8,0.3c0.1,0,0.1,0,0.1,0.1
								c0,0,0,0.1-0.1,0.1l-34.8,0.3l-34.8,0.2l-69.6,0.1l-69.6-0.1l-34.8-0.1l-34.8-0.3c-0.1,0-0.1-0.1-0.1-0.1
								C520.7,436.9,520.8,436.8,520.8,436.8z"/>
						</g>
						<g>
							<polygon class="st2" points="660,441.3 555.6,441 517.2,440.7 517,433.3 520.8,433.1 590.4,432.7 660,432.6 764.4,432.9 
								800.8,433.2 803,435.4 802.9,440.6 799.2,440.7 729.6,441.2 							"/>
						</g>
					</g>
					<g>
						<g>
							<path class="st2" d="M532,490.6l32-0.3l32-0.1l64-0.1l64,0.1l32,0.2l32,0.3c0.1,0,0.1,0,0.1,0c0,0.1,0,0.1-0.1,0.1l-32,0.3
								l-32,0.2l-64,0.1l-64-0.1l-32-0.1l-32-0.3c-0.1,0-0.1-0.1-0.1-0.1C531.8,490.7,531.9,490.6,532,490.6z"/>
						</g>
						<g>
							<polygon class="st2" points="660,495.1 564,494.8 530.4,494.6 528.2,492.3 528.2,490.7 528.2,487.1 531.9,487 596,486.6 
								660,486.4 756.1,486.7 791.8,487 791.8,494.4 788.1,494.5 724.1,495 							"/>
						</g>
					</g>
					<g>
						<g>
							<path class="st2" d="M755.5,545.1H573.7c-0.3,0-0.5-0.2-0.5-0.5s0.2-0.5,0.5-0.5h181.8c0.3,0,0.5,0.2,0.5,0.5
								S755.8,545.1,755.5,545.1z"/>
						</g>
						<g>
							<path class="st2" d="M755.5,548.8H573.7c-2.3,0-4.2-1.9-4.2-4.2s1.9-4.2,4.2-4.2h181.8c2.3,0,4.1,1.9,4.1,4.2
								S757.8,548.8,755.5,548.8z"/>
						</g>
					</g>
				</g>
				<g class="st1">
					<path class="st2" d="M660,584.9c-82.5,0-149.5-66.4-149.5-147.9c0-81.6,67.1-147.9,149.5-147.9c82.5,0,149.5,66.4,149.5,147.9
						C809.6,518.5,742.5,584.9,660,584.9z M660,302.2c-75.2,0-136.4,60.5-136.4,134.8S584.8,571.8,660,571.8S796.4,511.3,796.4,437
						C796.4,362.6,735.2,302.2,660,302.2z"/>
				</g>
			</g>
			<g class="st0">
				<path class="st29" d="M803.8,317.3h-42.9v-11.1l14.2-20.2c3.9-5.6,6.6-9.7,8.1-12.4c1.5-2.7,2.5-5.3,3.2-7.7c0.7-2.5,1-5,1-7.6
					c0-3.1-0.7-5.4-2.1-6.9c-1.4-1.5-3.1-2.3-5.3-2.3c-1.9,0-3.7,0.5-5.4,1.5s-3.7,2.9-6.1,5.5l-8.3-8.8c3.8-4.3,7.4-7.3,10.7-8.9
					c3.3-1.6,6.8-2.4,10.7-2.4c6.5,0,11.5,1.9,15.1,5.7s5.4,9.1,5.4,15.8c0,3.1-0.3,6-1,8.7s-1.7,5.5-3,8.2c-1.3,2.8-3,5.6-5,8.6
					s-7.2,9.8-15.6,20.5v0.4h26.2L803.8,317.3L803.8,317.3z"/>
				<path class="st29" d="M859,300.5h-8.1v16.8h-14v-16.8h-26.1v-12.1l24.2-51.2h15.9v50.9h8.1L859,300.5L859,300.5z M836.9,288.1
					v-16.9l0.3-7.4l0.4-7.1h-0.4c-1.3,4-2.7,7.6-4.2,10.8l-9.6,20.6H836.9z"/>
			</g>
			<g>
				<path class="st2" d="M518.6,409.5c0-6.6,4.6-11.6,11.1-11.6s10.9,4.8,10.9,11.6c0,6.6-4.4,11.6-11.3,11.6
					C523,421.2,518.6,416.2,518.6,409.5z"/>
				<path class="st2" d="M561.2,419.1V294.7h17.7l39.7,62.9c9,14.6,16.4,27.7,22.1,40.4l0.6-0.2c-1.5-16.6-1.8-31.7-1.8-51.1v-52.1
					h15.1V419h-16.2l-39.5-63c-8.7-13.8-17-28.1-23.1-41.5l-0.6,0.2c0.9,15.7,1.1,30.6,1.1,51.3v53.2h-15.1V419.1z"/>
				<path class="st2" d="M746.9,360.8h-48.2v44.9h53.9v13.5h-70.1V294.7h67.4v13.5h-51.1v39.3H747L746.9,360.8L746.9,360.8z"/>
				<path class="st2" d="M800,308.4h-37.8v-13.7h60.2h31.9v13.7h-38v110.7H800V308.4z"/>
			</g>
			<g>
				<path class="st2" d="M643.9,510.2c-2.8,1.4-8.6,2.9-15.9,2.9c-16.9,0-29.6-10.7-29.6-30.5c0-18.9,12.8-31.6,31.4-31.6
					c7.4,0,12.2,1.6,14.3,2.7l-2,6.3c-2.9-1.4-7-2.5-12-2.5c-14.1,0-23.5,9-23.5,24.8c0,14.8,8.5,24.2,23,24.2c4.8,0,9.6-1,12.8-2.5
					L643.9,510.2z"/>
				<path class="st2" d="M691.5,490.2c0,16-11.2,22.9-21.5,22.9c-11.6,0-20.7-8.6-20.7-22.2c0-14.4,9.5-22.8,21.4-22.8
					C683.1,468,691.5,477,691.5,490.2z M657.3,490.6c0,9.5,5.4,16.6,13,16.6c7.5,0,13.1-7,13.1-16.8c0-7.3-3.7-16.5-12.9-16.5
					C661.4,473.9,657.3,482.5,657.3,490.6z"/>
				<path class="st2" d="M701.4,482.4c0-5.1-0.1-9.5-0.4-13.5h6.9l0.4,8.6h0.3c2-5.8,6.8-9.5,12-9.5c0.8,0,1.4,0.1,2.1,0.2v7.4
					c-0.8-0.2-1.6-0.2-2.7-0.2c-5.5,0-9.5,4.1-10.5,10c-0.2,1.1-0.3,2.4-0.3,3.7v23h-7.9v-29.7L701.4,482.4L701.4,482.4z"/>
				<path class="st2" d="M734,491.9c0.2,10.6,6.9,15,14.8,15c5.6,0,9.1-1,12-2.2l1.4,5.6c-2.8,1.2-7.6,2.8-14.5,2.8
					c-13.3,0-21.2-8.8-21.2-21.9c0-13,7.7-23.2,20.2-23.2c14.2,0,17.8,12.3,17.8,20.2c0,1.6-0.1,2.8-0.3,3.7H734z M757.1,486.3
					c0.1-4.9-2.1-12.7-10.9-12.7c-8,0-11.4,7.2-12,12.7H757.1z"/>
			</g>
		</g>
	</g>
</g>
<path class="st2" d="M2083.4,414.9c-9.4-14.4-11.7-33.5-12.1-41.3c-24.2,5.3-48.3,14.6-47,21.6c0.2,0.8,1.2,1.8,3.1,2.9l-2.9,5.1
	c-3.5-1.8-5.5-4.1-6-7c-1.6-7.8,7.4-15,27.1-21.8c13.6-4.5,27.1-7.4,27.7-7.4l3.5-0.6v3.5c0,0.2,0.2,25.1,11.3,41.7L2083.4,414.9z"
	/>
<path class="st2" d="M2093.1,600.4h-1.4c-47.8,0-101.2-15-107.4-40.2c-3.9-15.4,8.6-32.4,36.3-49.1l3.1,4.9
	c-24.8,15-36.8,30.2-33.7,42.7c5.5,21.8,55.9,35.5,100.2,35.7c5.3-7.8,33.5-54,17.5-116l5.8-1.4c18.5,70.6-18.9,121.8-19.1,122.2
	L2093.1,600.4z"/>
<path class="st2" d="M2006.6,578.8c-3.1,0-4.7-0.4-4.9-0.4c-1-0.2-1.8-1-2.1-2.1c-0.2-1,0-2.1,0.8-2.9c0.4-0.4,42.1-42.1,47.6-75.8
	l5.8,1c-4.9,29-33.5,62-44.8,74.3c11.3-0.6,39.8-6,94.9-36.8c-42.9-4.7-49.7-39-49.7-39.4l5.7-1c0.2,1.4,7.2,35.1,54,35.1l0,0l0,0
	c1.2,0,2.5,0.8,2.9,2.3c0.4,1.2-0.2,2.7-1.4,3.3C2049.7,574.3,2017.9,578.8,2006.6,578.8z"/>
<path class="st2" d="M2033.3,592.8c-1.2,0-2.3-0.8-2.7-1.8c-0.4-1.2,0-2.7,1-3.5c0.2-0.2,10.7-7.8,21.6-24.6
	c-4.3-1.8-8.6-4.1-12.9-6.6c-5.1-3.1-9-6.4-12.1-9.9c-15,3.9-29,5.5-41.1,4.5l0.4-5.7c10.9,1,23.4-0.4,37-3.7
	c-9.2-15.8-0.8-31.2-0.6-31.4l5.1,2.9c-0.4,0.6-7.4,13.8,1.4,27.1c12.9-3.7,26.5-9.2,40.9-16.2c3.3-10.7,5.8-23,7.2-36.8
	c0-1,0.6-1.8,1.4-2.3c0.8-0.4,1.8-0.4,2.7-0.2c0.2,0,19.1,8.6,32.7,14.4c1,0.4,1.6,1.4,1.8,2.5s-0.4,2.1-1.2,2.7
	c-13.3,9-26.7,17-39.6,23.6c-4.1,12.9-9.2,23.8-14.4,32.7c21.6,8,40.5,8.2,40.7,8.2c1.4,0,2.5,0.8,2.9,2.3c0.4,1.2-0.2,2.7-1.4,3.3
	c-26.5,14.8-68.8,18.9-70.4,19.1C2033.5,592.8,2033.5,592.8,2033.3,592.8z M2059,565c-6.2,9.4-12.1,16.2-16.4,20.5
	c11.7-1.6,32.2-5.5,49.1-12.5C2083.4,572.2,2071.7,570,2059,565z M2034.7,544.5c2.3,2.3,5.1,4.5,8.6,6.6c4.3,2.7,8.6,4.7,12.9,6.6
	c4.3-7.4,8.8-16.2,12.5-26.7C2057.1,536.7,2045.6,541.2,2034.7,544.5z M2084,491.3c-1.2,10.3-3.1,19.7-5.3,28.3
	c9.7-5.1,19.5-11.1,29.6-17.7C2099.2,498.1,2089.4,493.6,2084,491.3z"/>
<path class="st2" d="M2053.2,411c-0.6,0-1.4-0.2-1.8-0.6c-9.4-8-20.5-24.4-20.9-25.1c-0.8-1-0.6-2.7,0.2-3.7s2.5-1.2,3.5-0.6
	c0,0,5.5,2.3,42.1,8.4c1,0.2,1.8,0.8,2.3,1.8c0.4,1,0.2,2.1-0.6,2.9c-10.3,11.5-23.2,16.4-23.8,16.6C2054,411,2053.6,411,2053.2,411
	z M2039.9,388.4c3.7,4.9,9,11.7,14,16.2c3.1-1.4,9.7-4.7,16-10.5C2054.7,391.7,2045.6,389.9,2039.9,388.4z"/>
<path class="st2" d="M2076.2,491.7c-0.4,0-0.8,0-1.2-0.2c-1.2-0.4-1.8-1.6-1.6-2.9c1.6-16-23-22.6-23.2-22.6c-1-0.2-1.8-1-2.1-2.1
	s0-2.1,0.8-2.9c1.2-1.2,30-29.8,66.1-45.4c1-0.4,2.1-0.2,3.1,0.4c0.8,0.6,1.2,1.8,1,2.9c-7,33.5-39.2,70.4-40.7,71.9
	C2077.9,491.3,2077,491.7,2076.2,491.7z M2056.3,461.8c7,2.7,19.1,8.6,22.2,19.5c8.4-10.5,26.5-34.9,33.3-58.1
	C2086.1,435.7,2064.5,454.4,2056.3,461.8z"/>
<path class="st2" d="M2024.9,514.7l-2.9-5.1c11.1-6,23.6-16.8,33.9-29.6c-8.8,6-13.8,10.1-14,10.3l-3.7-4.5
	c0.2-0.2,10.3-8.4,27.1-18.9c4.5-7.4,8.2-15,9.9-22.4c0.2-1.2,0.6-2.5,0.8-3.5c-11.3-4.1-21.6-6.4-28.7-7.4c-1-0.2-2.1-0.8-2.3-1.8
	s-0.2-2.3,0.6-2.9c0.4-0.6,12.3-13.3,27.1-20.3c1.2-0.6,2.5-0.2,3.5,0.6c0.4,0.4,8.4,9.4,6.4,28.1c6.8,2.7,13.8,5.7,20.3,9.7
	c16-7.2,34.5-13.8,54-17.7c1-0.2,2.1,0.2,2.9,1c0.6,0.8,0.8,1.8,0.4,2.9c-7.6,19.5-27.9,40.2-28.7,41.1c-0.6,0.6-1.4,0.8-2.3,0.8
	c-0.8,0-1.6-0.4-2.1-1c-6.6-8.2-15.2-15-24.2-20.5c-12.7,6-24,12.1-33.3,17.9C2057.7,489.9,2039.9,506.7,2024.9,514.7z
	 M2109.1,450.7c7.6,4.9,14.6,10.5,20.3,17.2c4.9-5.3,16.4-18.5,23-31.6C2137,439.8,2122.4,445.1,2109.1,450.7z M2081.8,443.3
	c-0.2,1-0.4,1.8-0.6,2.9c-1.2,4.9-3.1,9.9-5.7,15c6.4-3.7,13.6-7.4,21.2-11.1C2091.6,447.6,2086.7,445.3,2081.8,443.3z M2054,429.1
	c6.6,1.2,14.6,3.3,23,6.4c0.8-10.7-2.1-17.5-3.7-20.3C2065.1,419.2,2058.2,425.2,2054,429.1z"/>
<path class="st2" d="M2054,457.2c0,25.7-21.4,46-36.8,60.8c-2.7,2.5-11.3,2.9-11.3,2.9c2.3-2.3,4.5-4.5,7.2-7
	c14.6-14.2,34.9-33.5,34.9-56.7c0-27.3-11.1-38.2-19.7-46.8c-3.9-3.9-7.2-7.6-9-12.1l1.8-0.8c2.1,0.8,4.3,1.8,6,2.7
	c1.4,2.1,3.3,4.1,5.3,6.2C2041.5,415.1,2054,427.5,2054,457.2z"/>
<path class="st2" d="M2199.4,464.8c0,0-3.5,0.4-4.5,0.6c-51.1,5.7-103.9,20.3-134.3,32.4c-10.9,4.3-22.2,9.7-32.7,15.6
	c0,0-0.2,0-0.2,0.2c-6.2,3.5-20.9,10.7-32.9,17c17.5-18.7,50.3-33.1,63.5-38.2c29.6-11.9,80.5-26.1,130.6-32.2
	c-6-7-20.3-21.6-48.7-32.4c-16.6-6.4-41.9-10.1-64.1-13.3c-35.3-5.1-55.7-8.4-57.5-18.1c-0.4-1.8-0.2-3.9,0.8-5.7
	c1.8,3.1,4.7,5.3,6.6,6.6c0.8,0.6,1.4,1,1.8,1l0,0c8.2,4.3,30.6,7.6,49.3,10.3c22.6,3.3,48.1,7,65.3,13.6c40,15.4,54,37.6,54.6,38.6
	C2197.6,461.8,2199.4,464.8,2199.4,464.8z"/>
<g>
	<path class="st2" d="M1970,642.9c0,2.9-1.2,5.3-3.7,7.1s-5.8,2.7-10.1,2.7c-2.4,0-4.6-0.2-6.4-0.6c-1.8-0.4-3.5-1-5.1-1.6v-7.1h0.8
		c1.6,1.3,3.3,2.2,5.3,2.9s3.8,1,5.6,1c0.5,0,1.1,0,1.8-0.1c0.8-0.1,1.4-0.2,1.8-0.4c0.6-0.2,1.1-0.5,1.4-0.9
		c0.4-0.4,0.6-0.9,0.6-1.6c0-0.6-0.3-1.2-0.8-1.7s-1.4-0.8-2.4-1.1c-1.1-0.3-2.3-0.5-3.5-0.7s-2.4-0.5-3.5-0.9
		c-2.5-0.8-4.3-1.9-5.4-3.3c-1.1-1.4-1.6-3.1-1.6-5.2c0-2.8,1.2-5,3.7-6.7s5.6-2.6,9.5-2.6c1.9,0,3.9,0.2,5.8,0.6
		c1.9,0.4,3.5,0.9,4.9,1.4v6.8h-0.8c-1.2-1-2.7-1.7-4.4-2.4c-1.7-0.6-3.5-1-5.3-1c-0.6,0-1.3,0-1.9,0.1s-1.2,0.2-1.8,0.5
		c-0.5,0.2-1,0.5-1.3,0.9c-0.4,0.4-0.6,0.9-0.6,1.4c0,0.8,0.3,1.4,0.9,1.8c0.6,0.4,1.7,0.8,3.4,1.1c1.1,0.2,2.1,0.4,3.1,0.7
		c1,0.2,2.1,0.5,3.2,0.9c2.3,0.7,3.9,1.8,5,3C1969.4,639.3,1970,640.9,1970,642.9z"/>
	<path class="st2" d="M1994.6,651.9c0.1,1.3,0.4,2.3,1.1,2.8c0.7,0.6,1.8,0.9,3.4,0.9c0.5,0,1.2-0.1,1.9-0.3
		c0.7-0.2,1.3-0.4,1.5-0.5h0.8v5.2c-0.7,0.2-1.5,0.3-2.4,0.5s-2.2,0.2-4,0.2c-1.6,0-2.9-0.2-4.1-0.6c-1.2-0.4-2.1-0.9-2.9-1.7
		c-0.8-0.7-1.3-1.5-1.7-2.5c-0.4-1-0.6-2-0.7-3.2c-4.4-0.3-7.9-1.7-10.3-4.4c-2.5-2.7-3.7-6.3-3.7-10.9c0-4.8,1.3-8.5,4-11.3
		s6.4-4.1,11.2-4.1c4.7,0,8.5,1.4,11.2,4.1c2.7,2.8,4.1,6.5,4.1,11.3c0,3.5-0.8,6.5-2.4,9.1C1999.9,649.1,1997.6,650.9,1994.6,651.9
		z M1993.8,645c0.7-0.9,1.3-2,1.6-3.2c0.4-1.2,0.5-2.7,0.5-4.3c0-1.8-0.2-3.3-0.6-4.5s-0.9-2.3-1.6-3c-0.7-0.8-1.5-1.4-2.3-1.7
		c-0.9-0.4-1.8-0.5-2.8-0.5s-1.9,0.2-2.7,0.5c-0.9,0.3-1.6,0.9-2.4,1.7c-0.7,0.7-1.2,1.8-1.6,3.1s-0.6,2.8-0.6,4.5
		c0,1.8,0.2,3.3,0.6,4.5s0.9,2.2,1.6,3s1.4,1.4,2.3,1.7c0.9,0.4,1.8,0.6,2.8,0.6s1.9-0.2,2.8-0.6
		C1992.4,646.3,1993.2,645.7,1993.8,645z"/>
	<path class="st2" d="M2031.1,652.2h-21.3v-29.6h7.6v23.8h13.7L2031.1,652.2L2031.1,652.2z"/>
	<path class="st2" d="M2073.2,642.9c0,2.9-1.2,5.3-3.7,7.1s-5.8,2.7-10.1,2.7c-2.4,0-4.6-0.2-6.4-0.6c-1.8-0.4-3.5-1-5.1-1.6v-7.1
		h0.8c1.6,1.3,3.3,2.2,5.3,2.9s3.8,1,5.6,1c0.5,0,1.1,0,1.8-0.1c0.8-0.1,1.4-0.2,1.8-0.4c0.6-0.2,1.1-0.5,1.4-0.9
		c0.4-0.4,0.6-0.9,0.6-1.6c0-0.6-0.3-1.2-0.8-1.7s-1.4-0.8-2.4-1.1c-1.1-0.3-2.3-0.5-3.5-0.7s-2.4-0.5-3.5-0.9
		c-2.5-0.8-4.3-1.9-5.4-3.3c-1.1-1.4-1.6-3.1-1.6-5.2c0-2.8,1.2-5,3.7-6.7s5.6-2.6,9.5-2.6c1.9,0,3.9,0.2,5.8,0.6
		c1.9,0.4,3.5,0.9,4.9,1.4v6.8h-0.8c-1.2-1-2.7-1.7-4.4-2.4c-1.7-0.6-3.5-1-5.3-1c-0.6,0-1.3,0-1.9,0.1c-0.6,0.1-1.2,0.2-1.8,0.5
		c-0.5,0.2-1,0.5-1.3,0.9c-0.4,0.4-0.6,0.9-0.6,1.4c0,0.8,0.3,1.4,0.9,1.8c0.6,0.4,1.7,0.8,3.4,1.1c1.1,0.2,2.1,0.4,3.1,0.7
		c1,0.2,2.1,0.5,3.2,0.9c2.3,0.7,3.9,1.8,5,3C2072.7,639.3,2073.2,640.9,2073.2,642.9z"/>
	<path class="st2" d="M2100,642.4h-16.4c0.1,1.7,0.8,3.1,2,4s3,1.4,5.4,1.4c1.5,0,3-0.3,4.4-0.8s2.5-1.1,3.4-1.7h0.8v5.7
		c-1.6,0.6-3.1,1.1-4.6,1.4c-1.4,0.3-3,0.4-4.7,0.4c-4.5,0-7.9-1-10.3-3c-2.4-2-3.6-4.9-3.6-8.6c0-3.7,1.1-6.6,3.4-8.7
		c2.3-2.2,5.4-3.2,9.3-3.2c3.6,0,6.4,0.9,8.2,2.8c1.8,1.8,2.7,4.5,2.7,7.9L2100,642.4L2100,642.4z M2092.9,638.2
		c0-1.5-0.4-2.6-1.1-3.4s-1.8-1.1-3.3-1.1c-1.4,0-2.5,0.4-3.4,1.1c-0.9,0.7-1.4,1.9-1.5,3.4H2092.9z"/>
	<path class="st2" d="M2121.2,636.8h-0.6c-0.3-0.1-0.8-0.2-1.5-0.2c-0.7-0.1-1.2-0.1-1.7-0.1c-1,0-1.9,0.1-2.7,0.2
		c-0.8,0.1-1.6,0.4-2.5,0.7v14.9h-7.2V630h7.2v3.3c1.6-1.4,2.9-2.2,4.1-2.7c1.2-0.4,2.2-0.7,3.2-0.7c0.2,0,0.5,0,0.9,0
		c0.3,0,0.6,0,0.8,0.1V636.8z"/>
	<path class="st2" d="M2147.7,629.9l-8.6,22.3h-8.1l-8.5-22.3h7.5l5.2,15.3l5.1-15.3H2147.7z"/>
	<path class="st2" d="M2173.6,642.4h-16.4c0.1,1.7,0.8,3.1,2,4s3,1.4,5.4,1.4c1.5,0,3-0.3,4.4-0.8s2.5-1.1,3.4-1.7h0.8v5.7
		c-1.6,0.6-3.1,1.1-4.6,1.4c-1.4,0.3-3,0.4-4.7,0.4c-4.5,0-7.9-1-10.3-3c-2.4-2-3.6-4.9-3.6-8.6c0-3.7,1.1-6.6,3.4-8.7
		c2.3-2.2,5.4-3.2,9.3-3.2c3.6,0,6.4,0.9,8.2,2.8c1.8,1.8,2.7,4.5,2.7,7.9L2173.6,642.4L2173.6,642.4z M2166.5,638.2
		c0-1.5-0.4-2.6-1.1-3.4c-0.7-0.8-1.8-1.1-3.3-1.1c-1.4,0-2.5,0.4-3.4,1.1c-0.9,0.7-1.4,1.9-1.5,3.4H2166.5z"/>
	<path class="st2" d="M2194.8,636.8h-0.6c-0.3-0.1-0.8-0.2-1.5-0.2c-0.7-0.1-1.2-0.1-1.7-0.1c-1,0-1.9,0.1-2.7,0.2
		c-0.8,0.1-1.6,0.4-2.5,0.7v14.9h-7.2V630h7.2v3.3c1.6-1.4,2.9-2.2,4.1-2.7c1.2-0.4,2.2-0.7,3.2-0.7c0.2,0,0.5,0,0.9,0
		c0.3,0,0.6,0,0.8,0.1V636.8z"/>
</g>
<g>
	<path class="st2" d="M1954.3,617h-1.7v-10.8l-3.5,7.3h-1l-3.5-7.3V617h-1.6v-12.5h2.3l3.3,7l3.2-7h2.3V617H1954.3z"/>
	<path class="st2" d="M1959.3,606h-1.8v-1.6h1.8V606z M1959.2,617h-1.6v-9.4h1.6V617z"/>
	<path class="st2" d="M1969.2,616.4c-0.5,0.3-1,0.4-1.5,0.6c-0.5,0.1-1,0.2-1.5,0.2c-0.7,0-1.3-0.1-1.9-0.3s-1-0.5-1.5-0.9
		c-0.4-0.4-0.7-0.9-0.9-1.5c-0.2-0.6-0.3-1.3-0.3-2.2c0-1.5,0.4-2.7,1.3-3.6c0.8-0.9,2-1.3,3.3-1.3c0.5,0,1.1,0.1,1.6,0.2
		c0.5,0.2,1,0.3,1.4,0.6v1.8h-0.1c-0.5-0.4-1-0.7-1.5-0.9s-1-0.3-1.5-0.3c-0.9,0-1.6,0.3-2.1,0.9c-0.5,0.6-0.8,1.5-0.8,2.7
		c0,1.1,0.3,2,0.8,2.6s1.2,0.9,2.1,0.9c0.3,0,0.6,0,1-0.1s0.6-0.2,0.9-0.3c0.2-0.1,0.4-0.2,0.6-0.4c0.2-0.1,0.4-0.2,0.5-0.3h0.1
		V616.4z"/>
	<path class="st2" d="M1977.1,609.3L1977.1,609.3c-0.3-0.1-0.5-0.1-0.8-0.1c-0.2,0-0.5,0-0.8,0c-0.5,0-1,0.1-1.4,0.3
		c-0.5,0.2-0.9,0.5-1.3,0.8v6.7h-1.6v-9.4h1.6v1.4c0.6-0.5,1.2-0.9,1.7-1.1c0.5-0.2,1-0.3,1.5-0.3c0.3,0,0.5,0,0.6,0s0.3,0,0.6,0.1
		L1977.1,609.3L1977.1,609.3z"/>
	<path class="st2" d="M1986.6,612.3c0,1.5-0.4,2.7-1.2,3.6c-0.8,0.9-1.8,1.3-3.1,1.3c-1.3,0-2.4-0.4-3.2-1.3
		c-0.8-0.9-1.2-2.1-1.2-3.6s0.4-2.7,1.2-3.6c0.8-0.9,1.8-1.3,3.2-1.3c1.3,0,2.4,0.4,3.1,1.3C1986.2,609.6,1986.6,610.8,1986.6,612.3
		z M1985,612.3c0-1.2-0.2-2.1-0.7-2.7c-0.5-0.6-1.1-0.9-2-0.9s-1.5,0.3-2,0.9c-0.5,0.6-0.7,1.5-0.7,2.7s0.2,2.1,0.7,2.7
		c0.5,0.6,1.1,0.9,2,0.9c0.8,0,1.5-0.3,2-0.9C1984.7,614.4,1985,613.5,1985,612.3z"/>
	<path class="st2" d="M1995.7,614.3c0,0.9-0.4,1.6-1.1,2.1s-1.7,0.8-2.9,0.8c-0.7,0-1.3-0.1-1.9-0.2s-1.1-0.3-1.5-0.5v-1.8h0.1
		c0.5,0.4,1.1,0.7,1.7,0.9s1.2,0.3,1.8,0.3c0.7,0,1.2-0.1,1.6-0.3s0.6-0.6,0.6-1.1c0-0.4-0.1-0.6-0.3-0.8c-0.2-0.2-0.6-0.4-1.2-0.5
		c-0.2,0-0.5-0.1-0.9-0.2c-0.4-0.1-0.7-0.1-1-0.2c-0.8-0.2-1.4-0.5-1.8-1c-0.3-0.4-0.5-0.9-0.5-1.6c0-0.4,0.1-0.7,0.2-1.1
		c0.2-0.3,0.4-0.6,0.7-0.9c0.3-0.3,0.7-0.5,1.2-0.6c0.5-0.2,1-0.2,1.6-0.2s1.1,0.1,1.7,0.2s1.1,0.3,1.4,0.5v1.7h-0.1
		c-0.4-0.3-0.9-0.5-1.5-0.8c-0.6-0.2-1.1-0.3-1.7-0.3s-1.1,0.1-1.5,0.3s-0.6,0.5-0.6,1c0,0.4,0.1,0.7,0.4,0.9
		c0.2,0.2,0.6,0.4,1.1,0.5c0.3,0.1,0.6,0.1,1,0.2c0.4,0.1,0.7,0.1,0.9,0.2c0.7,0.2,1.3,0.5,1.7,0.9
		C1995.5,613.1,1995.7,613.6,1995.7,614.3z"/>
	<path class="st2" d="M2006,612.3c0,1.5-0.4,2.7-1.2,3.6c-0.8,0.9-1.8,1.3-3.1,1.3c-1.3,0-2.4-0.4-3.2-1.3c-0.8-0.9-1.2-2.1-1.2-3.6
		s0.4-2.7,1.2-3.6c0.8-0.9,1.8-1.3,3.2-1.3c1.3,0,2.4,0.4,3.1,1.3C2005.6,609.6,2006,610.8,2006,612.3z M2004.4,612.3
		c0-1.2-0.2-2.1-0.7-2.7c-0.5-0.6-1.1-0.9-2-0.9s-1.5,0.3-2,0.9c-0.5,0.6-0.7,1.5-0.7,2.7s0.2,2.1,0.7,2.7c0.5,0.6,1.1,0.9,2,0.9
		c0.8,0,1.5-0.3,2-0.9C2004.1,614.4,2004.4,613.5,2004.4,612.3z"/>
	<path class="st2" d="M2013.5,605.4L2013.5,605.4c-0.3,0-0.5-0.1-0.8-0.2c-0.3-0.1-0.5-0.1-0.7-0.1c-0.7,0-1.2,0.1-1.5,0.4
		c-0.3,0.3-0.5,0.8-0.5,1.6v0.3h2.8v1.3h-2.8v8.1h-1.6v-8.1h-1.1v-1.3h1.1v-0.3c0-1.1,0.3-2,0.8-2.6c0.6-0.6,1.4-0.9,2.4-0.9
		c0.4,0,0.7,0,1,0s0.5,0.1,0.8,0.1L2013.5,605.4L2013.5,605.4z"/>
	<path class="st2" d="M2019.4,616.9c-0.3,0.1-0.6,0.1-1,0.2c-0.3,0.1-0.7,0.1-0.9,0.1c-1,0-1.7-0.3-2.2-0.8s-0.7-1.3-0.7-2.5v-5
		h-1.1v-1.3h1.1v-2.7h1.6v2.7h3.3v1.3h-3.3v4.3c0,0.5,0,0.9,0,1.2s0.1,0.5,0.2,0.8c0.1,0.2,0.3,0.4,0.5,0.5s0.5,0.2,1,0.2
		c0.3,0,0.5,0,0.8-0.1s0.5-0.1,0.6-0.2h0.1V616.9z"/>
</g>
<g>
	<path class="st2" d="M1383.4,350.4h-10.5v-27.4l-7.6,17.8h-7.3l-7.6-17.8v27.4h-10v-41h12.3l9.2,20.6l9.2-20.6h12.3V350.4z"/>
	<path class="st2" d="M1431,309.4l-14.9,41h-11.8l-14.9-41h11.1l9.9,28.8l9.9-28.8H1431z"/>
	<path class="st2" d="M1455.4,351.2c-3,0-5.9-0.5-8.4-1.3c-2.6-0.9-4.8-2.2-6.6-4c-1.9-1.8-3.3-4-4.3-6.7c-1-2.7-1.5-5.7-1.5-9.2
		c0-3.2,0.5-6.2,1.5-8.8c1-2.6,2.4-4.9,4.2-6.8c1.8-1.8,4-3.2,6.6-4.2c2.6-1,5.5-1.5,8.6-1.5c1.7,0,3.3,0.1,4.7,0.3
		c1.4,0.2,2.7,0.4,3.8,0.8c1.2,0.3,2.3,0.7,3.3,1.2c1,0.4,1.9,0.8,2.6,1.2v9.9h-1.2c-0.5-0.4-1.2-1-1.9-1.6
		c-0.8-0.6-1.7-1.2-2.7-1.8c-1-0.6-2.1-1.1-3.3-1.5c-1.2-0.4-2.4-0.6-3.8-0.6c-1.5,0-2.9,0.2-4.2,0.7c-1.3,0.5-2.6,1.2-3.7,2.3
		c-1.1,1-2,2.4-2.6,4.1c-0.7,1.7-1,3.8-1,6.3c0,2.6,0.4,4.7,1.1,6.4c0.7,1.7,1.6,3.1,2.7,4.1c1.1,1,2.4,1.7,3.7,2.2
		c1.4,0.4,2.7,0.6,4.1,0.6c1.3,0,2.6-0.2,3.8-0.6c1.3-0.4,2.4-0.9,3.5-1.6c0.9-0.5,1.7-1.1,2.5-1.7c0.8-0.6,1.4-1.1,1.9-1.6h1.1v9.8
		c-1,0.5-2,0.9-2.9,1.3c-0.9,0.4-1.9,0.8-2.9,1c-1.3,0.4-2.6,0.7-3.8,0.9C1459.1,351.1,1457.5,351.2,1455.4,351.2z"/>
</g>
</svg>
