<?xml version="1.0" encoding="utf-8"?>
<!-- Generator: Adobe Illustrator 24.1.2, SVG Export Plug-In . SVG Version: 6.00 Build 0)  -->
<svg version="1.1" id="Layer_1" xmlns="http://www.w3.org/2000/svg" xmlns:xlink="http://www.w3.org/1999/xlink" x="0px" y="0px"
	 viewBox="0 0 1962 1370" style="enable-background:new 0 0 1962 1370;" xml:space="preserve">
<style type="text/css">
	.st0{display:none;}
	.st1{display:inline;fill:#FFFFFF;}
	.st2{display:none;opacity:0.5;fill:url(#SVGID_1_);enable-background:new    ;}
	.st3{display:none;opacity:0.5;fill:url(#SVGID_2_);enable-background:new    ;}
	.st4{display:none;opacity:0.2;fill:url(#SVGID_3_);enable-background:new    ;}
	.st5{display:none;opacity:0.2;fill:#FFFFFF;enable-background:new    ;}
	.st6{display:none;opacity:0.2;fill:url(#SVGID_4_);enable-background:new    ;}
	.st7{opacity:0.2;}
	.st8{display:none;opacity:0.75;fill:url(#SVGID_5_);enable-background:new    ;}
	.st9{display:none;opacity:0.5;fill:#FFFFFF;enable-background:new    ;}
	.st10{display:none;opacity:0.2;}
	.st11{display:inline;fill:url(#SVGID_6_);}
	.st12{display:inline;opacity:0.5;fill:#FFFFFF;enable-background:new    ;}
	.st13{fill:#FFFFFF;}
	.st14{fill:#91B3FA;}
	.st15{fill:url(#SVGID_7_);}
	.st16{fill:url(#SVGID_8_);}
	.st17{fill:#4B4EF8;}
	.st18{fill:url(#SVGID_9_);}
	.st19{fill:#1A0F91;}
	.st20{fill:url(#SVGID_10_);}
	.st21{fill:url(#SVGID_11_);}
	.st22{fill:url(#SVGID_12_);}
	.st23{fill:url(#SVGID_13_);}
	.st24{fill:url(#SVGID_14_);}
	.st25{display:inline;}
	.st26{fill:url(#SVGID_15_);}
	.st27{fill:url(#SVGID_16_);}
	.st28{fill:url(#SVGID_17_);}
	.st29{fill:url(#SVGID_18_);}
	.st30{display:inline;fill:url(#SVGID_19_);}
	.st31{fill:url(#SVGID_20_);}
	.st32{fill:url(#SVGID_21_);}
	.st33{fill:url(#SVGID_22_);}
	.st34{fill:url(#SVGID_23_);}
	.st35{fill:url(#SVGID_24_);}
	.st36{fill:url(#SVGID_25_);}
	.st37{fill:url(#SVGID_26_);}
	.st38{fill:url(#SVGID_27_);}
	.st39{fill:url(#SVGID_28_);}
	.st40{fill:url(#SVGID_29_);}
	.st41{fill:url(#SVGID_30_);}
	.st42{fill:url(#SVGID_31_);}
	.st43{display:inline;fill:url(#SVGID_32_);}
	.st44{display:inline;fill:url(#SVGID_33_);}
	.st45{display:inline;fill:url(#SVGID_34_);}
	.st46{fill:#FF908C;}
	.st47{display:none;fill:#FFFFFF;}
	.st48{font-family:'ArialMT';}
	.st49{font-size:53.2085px;}
</style>
<g id="Background" class="st0">
	<rect x="-296.9" y="-135" class="st1" width="2475" height="1650"/>
</g>
<g id="Illustration">
	<g>
		
			<linearGradient id="SVGID_1_" gradientUnits="userSpaceOnUse" x1="-148.5202" y1="-1704.799" x2="2029.6761" y2="-1704.799" gradientTransform="matrix(1 0 0 1 0 2405.8899)">
			<stop  offset="0" style="stop-color:#B37CFF"/>
			<stop  offset="1" style="stop-color:#F895E7"/>
		</linearGradient>
		<path class="st2" d="M1960.6,985.3c88.3-110.9,105.6-176-29.6-283.7s-58.2-219-17.6-297.5s71.8-221-91.1-261.6
			s-349.6,78.6-431.5-3.8s-73.5-123.8-252.4-96.3s-227,159.9-383,148.1c-156-11.7-231.4-252.3-496.1-85.8
			c-124.9,78.5-177-12.2-252.5,71c-235.4,259.6,63,358-75.6,397.8c-150.5,43.2-56.9,234,27.8,289.2s147.7,88.3,27.3,144.7
			c-120.3,56.4-141.4,118.7-90.9,220.1s146.1,133.4,543.4,139.4s1166.8-6.7,1376.7-64.4C2025.4,1244.7,1872.4,1096.2,1960.6,985.3z"
			/>
		
			<linearGradient id="SVGID_2_" gradientUnits="userSpaceOnUse" x1="-46.6521" y1="-1707.3284" x2="2006.0966" y2="-1707.3284" gradientTransform="matrix(1 0 0 1 0 2405.8899)">
			<stop  offset="0" style="stop-color:#B37CFF"/>
			<stop  offset="1" style="stop-color:#F895E7"/>
		</linearGradient>
		<path class="st3" d="M371.8,140c-117.7,71.2-200.9,16.2-272,91.6C-122.1,466.9,159.1,556,28.5,592.1
			c-141.9,39.2-53.6,212.1,26.2,262.1s139.2,80,25.8,131.1C-32.9,1036.5-52.7,1093-5.2,1185c47.6,91.9,137.6,120.9,512.1,126.4
			s1099.5-6.1,1297.3-58.4s53.6-186.9,136.8-287.5c83.2-100.5,99.5-159.6-27.8-257.1c-127.4-97.5-54.8-198.5-16.6-269.7
			c38.2-71.2,67.6-200.3-85.8-237.1c-153.5-36.8-332,110.1-409.2,35.5s-43.2-173.6-211.8-148.7S976.9,253,829.9,242.4
			C682.9,231.7,621.3-10.9,371.8,140z"/>
		
			<linearGradient id="SVGID_3_" gradientUnits="userSpaceOnUse" x1="1815.1254" y1="-1511.4906" x2="1019.9505" y2="-857.266" gradientTransform="matrix(0.9892 0.1469 -0.1469 0.9892 45.0463 2086.687)">
			<stop  offset="0" style="stop-color:#53D8FF"/>
			<stop  offset="1" style="stop-color:#3840F7"/>
		</linearGradient>
		<path class="st4" d="M1972,756c4.3,143.1-23.6,567.2-506.9,556.3c0,0,201.9-397.7,464.6-577.7C1947.3,722.4,1971.3,734.6,1972,756
			z"/>
		<path class="st5" d="M1513.6,1295.2c-1.3,0.8-0.3,2.7,1.1,2.1c50.3-21.4,252.6-137.2,388.4-432.8c0.4-1-0.9-1.7-1.4-0.8
			C1863.6,930.7,1714.9,1175.4,1513.6,1295.2z"/>
		<g>
			
				<linearGradient id="SVGID_4_" gradientUnits="userSpaceOnUse" x1="1690.736" y1="-2161.5264" x2="1206.7404" y2="-1157.5349" gradientTransform="matrix(0.9832 0.1826 -0.1826 0.9832 -2.5218 2058.6658)">
				<stop  offset="0" style="stop-color:#B37CFF"/>
				<stop  offset="1" style="stop-color:#F895E7"/>
			</linearGradient>
			<path class="st6" d="M1239.8,1319.9c0,0,192.1-718.6,558.5-1103.1c24.6-25.9,68.1-14.4,76.5,20.3
				C1931.3,469.1,2032.2,1170.8,1239.8,1319.9z"/>
			<path class="st5" d="M1313.2,1275.3c-1.8,1.7,0.4,4.5,2.5,3.1c74.6-52.3,364.8-311.2,484.3-840.3c0.4-1.7-2.1-2.4-2.6-0.8
				C1758.3,559.6,1600.3,1010.3,1313.2,1275.3z"/>
		</g>
		<g class="st7">
			
				<linearGradient id="SVGID_5_" gradientUnits="userSpaceOnUse" x1="-347.1933" y1="-1490.0262" x2="311.037" y2="-1490.0262" gradientTransform="matrix(0.9844 0.176 -0.176 0.9844 -24.157 2318.9775)">
				<stop  offset="0" style="stop-color:#53D8FF"/>
				<stop  offset="1" style="stop-color:#3840F7"/>
			</linearGradient>
			<path class="st8" d="M467.4,1336.9c0,0-120.6-606-417.6-952.6c-20-23.3-59.1-17.5-68.9,10.2
				C-84.6,580.2-221.2,1147.6,467.4,1336.9z"/>
			<path class="st9" d="M405.7,1294.1c1.5,1.5-0.7,3.6-2.4,2.3c-62.3-49.2-300.5-286.2-370-730.6c-0.2-1.4,2-1.8,2.4-0.4
				C61.8,669.1,170.5,1052.4,405.7,1294.1z"/>
		</g>
		<g class="st10">
			
				<linearGradient id="SVGID_6_" gradientUnits="userSpaceOnUse" x1="553.6161" y1="-2273.0691" x2="223.6801" y2="-1103.2987" gradientTransform="matrix(1 0 0 1 0 2405.8899)">
				<stop  offset="0" style="stop-color:#53D8FF"/>
				<stop  offset="1" style="stop-color:#F895E7"/>
			</linearGradient>
			<path class="st11" d="M616.6,1196.2c0,0-35.1-685.6-308.7-1109.6c-18.4-28.5-62.8-27.6-78.2,1.7
				C126.5,284-118.2,891.2,616.6,1196.2z"/>
			<path class="st12" d="M554.9,1140.3c1.4,1.9-1.4,3.9-3,2.2c-61.2-63-287.4-357.8-292-857.9c0-1.6,2.5-1.7,2.7-0.1
				C274.7,402.6,333,840.7,554.9,1140.3z"/>
		</g>
		<g>
			<g>
				<g>
					<path class="st13" d="M556.6,234.9c-0.5,0.1-1.1-0.1-1.4-0.6c-1.4-1.6-2.8-3.2-4.3-4.8c-0.6-0.6-0.6-1.7,0.1-2.3
						c0.7-0.6,1.7-0.6,2.3,0.1c1.5,1.6,3,3.2,4.4,4.9c0.6,0.7,0.5,1.7-0.2,2.3C557.2,234.8,556.9,234.9,556.6,234.9z"/>
					<path class="st13" d="M469.9,460.5c-2.4,0.3-5,0.5-7.5,0.7c-0.9,0.1-1.7-0.6-1.7-1.5c-0.1-0.9,0.6-1.6,1.5-1.7
						c2.4-0.2,4.9-0.4,7.3-0.7c1.8-0.2,3.5-0.5,5.3-0.8c0.9-0.2,1.7,0.5,1.9,1.3c0.2,0.9-0.5,1.7-1.3,1.9
						C473.5,460,471.7,460.3,469.9,460.5z M495.5,454.8c-0.8,0.1-1.5-0.4-1.7-1.1c-0.3-0.9,0.2-1.8,1-2c3.9-1.3,7.8-2.7,11.5-4.4
						l0.3-0.1c0.8-0.4,1.8,0,2.1,0.9c0.4,0.8,0,1.8-0.8,2.1l-0.3,0.1c-3.9,1.7-7.8,3.2-11.8,4.5
						C495.7,454.7,495.6,454.7,495.5,454.8z M525.9,440.5c-0.6,0.1-1.2-0.2-1.6-0.8c-0.5-0.8-0.3-1.8,0.5-2.2
						c3.6-2.3,7.1-4.7,10.4-7.2c0.7-0.5,1.7-0.4,2.3,0.3c0.5,0.7,0.4,1.7-0.3,2.3c-3.4,2.6-7,5.1-10.7,7.4
						C526.4,440.4,526.2,440.5,525.9,440.5z M552,419.2c-0.5,0.1-1-0.1-1.3-0.4c-0.7-0.6-0.7-1.6,0-2.3c2.9-3,5.7-6.3,8.3-9.6
						c0.6-0.7,1.6-0.8,2.3-0.3c0.7,0.6,0.8,1.6,0.3,2.3c-2.7,3.4-5.5,6.7-8.5,9.8C552.7,419,552.4,419.2,552,419.2z M572,392.3
						c-0.3,0-0.7,0-1-0.2c-0.8-0.4-1.1-1.4-0.6-2.2c2.1-3.7,4-7.5,5.7-11.3c0.4-0.8,1.3-1.2,2.2-0.8s1.2,1.3,0.8,2.1
						c-1.8,3.9-3.8,7.8-5.9,11.6C573,391.9,572.5,392.2,572,392.3z M585,361.2c-0.2,0-0.4,0-0.6,0c-0.9-0.2-1.4-1.1-1.1-2
						c1.1-4.1,2.1-8.2,2.8-12.4c0.2-0.9,1-1.5,1.9-1.3s1.5,1,1.3,1.9c-0.8,4.2-1.7,8.5-2.9,12.7C586.1,360.7,585.6,361.1,585,361.2z
						 M589.9,328c-0.1,0-0.2,0-0.2,0c-0.9,0-1.6-0.8-1.6-1.7c0.1-4.2,0-8.5-0.3-12.7c-0.1-0.9,0.6-1.7,1.5-1.7
						c0.9-0.1,1.7,0.6,1.7,1.5c0.3,4.3,0.4,8.7,0.3,13C591.3,327.2,590.7,327.9,589.9,328z M586.6,294.5c-0.8,0.1-1.6-0.4-1.8-1.3
						c-0.9-4.1-2.1-8.2-3.4-12.2c-0.3-0.9,0.2-1.8,1-2c0.9-0.3,1.8,0.2,2,1c1.3,4.1,2.5,8.3,3.5,12.5
						C588.1,293.4,587.6,294.3,586.6,294.5C586.7,294.5,586.7,294.5,586.6,294.5z M575.3,262.9c-0.7,0.1-1.3-0.3-1.7-0.9
						c-1.9-3.8-4-7.5-6.2-11.1c-0.5-0.8-0.3-1.8,0.5-2.2c0.8-0.5,1.8-0.3,2.2,0.5c2.3,3.6,4.4,7.4,6.4,11.3c0.4,0.8,0.1,1.8-0.7,2.2
						C575.6,262.8,575.4,262.8,575.3,262.9z"/>
					<path class="st13" d="M441.6,461c-0.1,0-0.2,0-0.3,0c-2.2-0.2-4.4-0.4-6.5-0.7c-0.9-0.1-1.5-0.9-1.4-1.8s0.9-1.5,1.8-1.4
						c2.1,0.3,4.3,0.5,6.4,0.7c0.9,0.1,1.6,0.9,1.5,1.8C442.9,460.4,442.3,461,441.6,461z"/>
				</g>
				<g>
					<path class="st13" d="M346.2,410.3c-0.5,0.1-1.1-0.1-1.5-0.6c-1.4-1.7-2.7-3.5-4-5.2c-0.5-0.7-0.4-1.7,0.4-2.3
						c0.7-0.5,1.7-0.4,2.3,0.4c1.3,1.7,2.6,3.5,3.9,5.1c0.6,0.7,0.5,1.7-0.3,2.3C346.8,410.2,346.5,410.3,346.2,410.3z"/>
					<path class="st13" d="M331.5,387.7c-0.7,0.1-1.3-0.2-1.6-0.9c-1.5-3-3-6-4.3-9.1c-0.4-0.8-0.7-1.7-1.1-2.5
						c-0.3-0.8,0.1-1.8,0.9-2.1c0.8-0.3,1.8,0.1,2.1,0.9c0.3,0.8,0.7,1.6,1,2.5c1.3,3,2.7,6,4.2,8.9c0.4,0.8,0.1,1.8-0.7,2.2
						C331.9,387.6,331.7,387.7,331.5,387.7z M319.9,356.7c-0.8,0.1-1.6-0.4-1.8-1.2c-1-4.1-1.8-8.4-2.4-12.5
						c-0.1-0.9,0.5-1.7,1.4-1.9c0.9-0.1,1.7,0.5,1.9,1.4c0.6,4.1,1.4,8.2,2.4,12.3c0.2,0.9-0.3,1.8-1.2,2
						C320,356.7,319.9,356.7,319.9,356.7z M316,323.9c-0.1,0-0.1,0-0.2,0c-0.9,0-1.6-0.7-1.6-1.6c0-4.2,0.3-8.5,0.7-12.8
						c0.1-0.9,0.9-1.5,1.8-1.5c0.9,0.1,1.5,0.9,1.5,1.8c-0.4,4.1-0.6,8.3-0.6,12.5C317.5,323.1,316.8,323.8,316,323.9z M320.2,291
						c-0.2,0-0.4,0-0.6,0c-0.9-0.2-1.4-1.1-1.2-2c1-4.1,2.3-8.2,3.7-12.2c0.3-0.9,1.2-1.3,2.1-1s1.3,1.2,1,2.1
						c-1.4,3.9-2.6,7.9-3.6,11.9C321.4,290.5,320.9,291,320.2,291z M332.2,260.2c-0.3,0-0.7,0-1-0.2c-0.8-0.4-1.1-1.4-0.7-2.2
						c2-3.7,4.2-7.4,6.5-11c0.5-0.8,1.5-1,2.3-0.5s1,1.5,0.5,2.3c-2.3,3.5-4.4,7.1-6.4,10.7C333.1,259.8,332.7,260.1,332.2,260.2z
						 M351.1,233.1c-0.5,0.1-0.9-0.1-1.3-0.4c-0.7-0.6-0.7-1.6-0.1-2.3c2.8-3.1,5.8-6.2,9-9.1c0.7-0.6,1.7-0.6,2.3,0.1
						s0.6,1.7-0.1,2.3c-3,2.8-6,5.8-8.8,8.9C351.8,232.8,351.5,233,351.1,233.1z M376,211.3c-0.6,0.1-1.2-0.2-1.5-0.7
						c-0.5-0.7-0.3-1.8,0.4-2.3c3.5-2.4,7.2-4.6,10.9-6.7c0.8-0.4,1.8-0.1,2.2,0.6s0.1,1.8-0.6,2.2c-3.6,2-7.2,4.2-10.6,6.5
						C376.5,211.2,376.3,211.3,376,211.3z M405.4,196.2c-0.7,0.1-1.5-0.3-1.7-1.1c-0.3-0.8,0.1-1.8,1-2.1c4-1.5,8.1-2.8,12.2-3.9
						c0.9-0.2,1.8,0.3,2,1.1c0.2,0.9-0.3,1.8-1.1,2c-4,1.1-8,2.4-11.9,3.8C405.7,196.1,405.5,196.1,405.4,196.2z M450.2,187.6
						c-0.1,0-0.1,0-0.2,0c-4.2,0.1-8.3,0.4-12.5,0.8c-0.9,0.1-1.7-0.5-1.8-1.4s0.5-1.7,1.4-1.8l0,0c4.2-0.5,8.5-0.8,12.8-0.9
						c0.9,0,1.6,0.7,1.7,1.6C451.6,186.8,451,187.5,450.2,187.6z"/>
					<path class="st13" d="M477.2,189.8c-0.2,0-0.3,0-0.5,0c-2.1-0.4-4.2-0.7-6.3-1c-0.9-0.1-1.5-0.9-1.4-1.8
						c0.1-0.9,0.9-1.5,1.8-1.4c2.2,0.3,4.4,0.6,6.5,1c0.9,0.2,1.5,1,1.3,1.9C478.4,189.2,477.9,189.7,477.2,189.8z"/>
				</g>
				<g>
					<path class="st14" d="M484.3,222.6c-0.6-0.3-1.4-0.1-1.9,0.4l-13.5,14.7c-9.2-1.7-18.7-1.9-28.2-0.5l-13-15.2
						c-0.5-0.5-1.2-0.7-1.9-0.5l-22.3,8.8c-0.6,0.3-1.1,0.9-1,1.6l0.9,20c-7.9,5.5-14.7,12.1-20.3,19.6l-19.9-1.6
						c-0.7,0-1.4,0.3-1.6,1l-9.6,22c-0.3,0.6-0.1,1.4,0.4,1.9l14.7,13.5c-1.7,9.2-1.9,18.7-0.5,28.2l-15.2,13
						c-0.5,0.5-0.7,1.2-0.5,1.9l8.8,22.3c0.3,0.6,0.9,1.1,1.6,1l20-0.9c5.5,7.9,12.1,14.7,19.6,20.3l-1.6,19.9c0,0.7,0.3,1.4,1,1.6
						l22,9.6c0.6,0.3,1.4,0.1,1.9-0.4l13.5-14.7c9.2,1.7,18.7,1.9,28.2,0.5l13,15.2c0.5,0.5,1.2,0.7,1.8,0.5l22.3-8.8
						c0.7-0.3,1.1-0.9,1-1.6l-0.8-20c7.9-5.5,14.7-12.1,20.3-19.6l19.9,1.6c0.7,0.1,1.4-0.3,1.6-1l9.6-22c0.3-0.6,0.1-1.4-0.4-1.9
						l-14.7-13.5c1.7-9.2,1.9-18.7,0.5-28.2l15.2-13c0.5-0.5,0.7-1.2,0.5-1.9l-8.8-22.3c-0.3-0.6-0.9-1.1-1.6-1l-20,0.9
						c-5.5-7.9-12.1-14.7-19.6-20.3l1.6-19.9c0.1-0.7-0.3-1.4-1-1.6L484.3,222.6z"/>
					<path class="st13" d="M456.2,347.5c-2.2,0.3-4.5,0.2-6.8-0.1c-6.3-1-11.7-4.4-15.4-9.6s-5.2-11.4-4.1-17.7
						c1-6.3,4.4-11.7,9.6-15.4s11.4-5.2,17.7-4.1s11.7,4.4,15.4,9.6s5.2,11.4,4.1,17.7c-1,6.3-4.4,11.7-9.6,15.4
						C463.8,345.6,460.1,347,456.2,347.5z M450.9,305.2c-3.1,0.4-6,1.5-8.7,3.4c-8.5,6.1-10.4,17.9-4.3,26.3
						c2.9,4.1,7.3,6.8,12.3,7.6c5,0.8,10-0.4,14.1-3.3s6.8-7.3,7.6-12.3s-0.3-10-3.3-14.1c-2.9-4.1-7.3-6.8-12.3-7.6
						C454.5,305,452.7,305,450.9,305.2z"/>
					<path class="st13" d="M460.4,384.4c-10.6,1.3-21.4-0.2-31.4-4.6c-14.8-6.4-26.2-18.2-32.1-33.2c-1.9-4.8-3.1-9.8-3.8-14.8
						c-1.3-10.6,0.2-21.4,4.6-31.4c6.4-14.8,18.2-26.2,33.2-32.1c0.4-0.1,0.8-0.3,1.2-0.5c3.2-1.2,6.6-2.1,9.9-2.7
						c0.4-0.1,0.8-0.1,1.3-0.2l0.8,4.8c-3.9,0.6-7.7,1.7-11.4,3.1c-13,5.1-23.5,14.8-29.6,27.3c-0.3,0.7-0.7,1.4-1,2.1
						c-4,9.2-5.4,19.1-4.2,28.8c0.6,4.6,1.7,9.2,3.5,13.6c5.4,13.8,15.9,24.6,29.5,30.5s28.7,6.2,42.4,0.8
						c24-9.5,37.8-33.9,34.7-58.4c-0.6-4.5-1.7-9-3.4-13.5c-3.7-9.4-9.8-17.5-17.7-23.6l3-3.9c8.6,6.6,15.3,15.5,19.3,25.7
						c1.9,4.8,3.1,9.8,3.7,14.7c3.3,26.7-11.7,53.3-37.8,63.6C470.3,382.5,465.4,383.7,460.4,384.4z"/>
				</g>
			</g>
			<g>
				<g>
					<path class="st13" d="M737.7,107.9c-0.7,0.1-1.5-0.2-2-0.8c-1.8-2.2-3.6-4.4-5.5-6.4c-0.8-0.9-0.8-2.2,0.1-3.1
						c0.9-0.8,2.2-0.8,3.1,0.1c2,2.1,4,4.4,5.8,6.7c0.7,0.9,0.6,2.3-0.4,3C738.5,107.7,738.1,107.8,737.7,107.9z"/>
					<path class="st13" d="M689,256.3c-1,0.1-2.1-0.5-2.3-1.6c-0.3-1.1,0.4-2.4,1.5-2.7c4-1.1,8.1-2.5,12-4.2
						c1.4-0.6,2.7-1.2,4.1-1.9c1.1-0.5,2.4-0.1,2.9,1s0.1,2.4-1,2.9c-1.4,0.7-2.8,1.3-4.3,1.9c-4.1,1.8-8.3,3.3-12.5,4.4
						C689.2,256.3,689.1,256.3,689,256.3z M728.8,233.8c-0.7,0.1-1.3-0.1-1.8-0.7c-0.8-0.9-0.8-2.2,0.1-3.1
						c4.1-3.9,7.9-8.3,11.3-12.9c0.7-1,2-1.2,3-0.5s1.2,2.1,0.5,3c-3.5,4.9-7.5,9.4-11.8,13.6C729.6,233.6,729.2,233.8,728.8,233.8z
						 M753.2,195.2c-0.3,0-0.6,0-0.9-0.1c-1.1-0.4-1.8-1.6-1.4-2.7c1.8-5.4,3.1-11.1,3.8-16.7c0.2-1.2,1.2-2,2.4-1.9s2,1.2,1.9,2.4
						c-0.8,5.9-2.1,11.8-4,17.5C754.7,194.5,754,195.1,753.2,195.2z M756.4,149.6c-1.1,0.1-2.2-0.6-2.4-1.8
						c-1-5.6-2.5-11.2-4.6-16.5c-0.4-1.1,0.1-2.4,1.3-2.8c1.1-0.4,2.4,0.1,2.8,1.3c2.1,5.6,3.8,11.4,4.8,17.3
						C758.5,148.3,757.7,149.4,756.4,149.6C756.5,149.6,756.5,149.6,756.4,149.6z"/>
					<path class="st13" d="M660.6,259.6c-0.1,0-0.2,0-0.3,0c-3-0.1-5.9-0.4-8.8-0.8c-1.2-0.2-2-1.3-1.9-2.4c0.2-1.2,1.3-2,2.4-1.9
						c2.8,0.4,5.6,0.6,8.4,0.7c1.2,0.1,2.1,1.1,2.1,2.3C662.4,258.6,661.6,259.5,660.6,259.6z"/>
				</g>
				<g>
					<path class="st13" d="M591.1,224.6c-0.7,0.1-1.5-0.2-2-0.8c-1.8-2.3-3.6-4.7-5.2-7.2c-0.7-1-0.4-2.3,0.6-3s2.3-0.4,3,0.6
						c1.5,2.4,3.2,4.7,5,6.8c0.8,0.9,0.6,2.3-0.3,3.1C591.9,224.4,591.5,224.6,591.1,224.6z"/>
					<path class="st13" d="M574.2,192.2c-1,0.1-2-0.5-2.3-1.5c-1.5-4.9-2.5-10-3.1-15.1c-0.1-0.8-0.2-1.5-0.3-2.2
						c-0.1-1.2,0.8-2.2,1.9-2.4c1.2-0.1,2.3,0.8,2.4,1.9c0.1,0.7,0.2,1.4,0.2,2.1c0.6,4.9,1.6,9.7,3,14.4c0.3,1.1-0.3,2.4-1.5,2.7
						C574.5,192.1,574.3,192.2,574.2,192.2z M572.4,147.3c-0.2,0-0.5,0-0.7,0c-1.2-0.2-1.9-1.4-1.7-2.6c1.2-5.8,2.9-11.4,5.1-16.9
						c0.5-1.1,1.7-1.6,2.8-1.2s1.6,1.7,1.2,2.8c-2.1,5.2-3.8,10.6-4.9,16.1C574,146.5,573.3,147.1,572.4,147.3z M591.6,106.6
						c-0.6,0.1-1.2-0.1-1.6-0.5c-0.9-0.8-1.1-2.1-0.3-3.1c3.7-4.6,7.9-8.8,12.4-12.6c0.9-0.8,2.3-0.7,3,0.3c0.8,0.9,0.7,2.3-0.3,3.1
						c-4.3,3.6-8.3,7.7-11.8,12C592.7,106.3,592.2,106.6,591.6,106.6z M627.6,79.7c-0.9,0.1-1.9-0.4-2.3-1.3c-0.5-1.1,0-2.4,1.2-2.8
						c5.4-2.3,11.1-4.1,16.8-5.4c1.2-0.3,2.3,0.5,2.6,1.7s-0.5,2.3-1.7,2.6c-5.5,1.2-10.9,2.9-16.1,5.1
						C628,79.6,627.8,79.7,627.6,79.7z"/>
					<path class="st13" d="M680.7,73.7c-0.2,0-0.4,0-0.7,0c-2.8-0.5-5.6-0.9-8.4-1.1c-1.2-0.1-2.1-1.2-2-2.3c0.1-1.2,1.2-2.1,2.3-2
						c2.9,0.3,5.9,0.6,8.8,1.2c1.2,0.2,2,1.3,1.8,2.5C682.4,72.9,681.6,73.6,680.7,73.7z"/>
				</g>
				<g>
					<path class="st14" d="M685.4,95.1c-0.4-0.2-1-0.1-1.3,0.3l-9.3,10.1c-6.3-1.2-12.8-1.3-19.3-0.3l-8.9-10.4
						c-0.3-0.4-0.8-0.5-1.3-0.3l-15.3,6c-0.5,0.2-0.7,0.6-0.7,1.1l0.6,13.7c-5.4,3.7-10.1,8.3-13.9,13.4l-13.6-1.1
						c-0.5,0-0.9,0.2-1.1,0.7l-6.5,15.1c-0.2,0.4-0.1,0.9,0.3,1.3l10.1,9.3c-1.2,6.3-1.3,12.8-0.3,19.3l-10.4,8.9
						c-0.4,0.3-0.5,0.8-0.3,1.3l6,15.3c0.2,0.4,0.6,0.7,1.1,0.7l13.7-0.6c3.7,5.4,8.3,10.1,13.4,13.9l-1.1,13.6
						c0,0.5,0.2,0.9,0.7,1.1l15,6.6c0.4,0.2,1,0.1,1.3-0.3l9.3-10.1c6.3,1.1,12.8,1.3,19.3,0.4l8.9,10.4c0.3,0.4,0.8,0.5,1.3,0.3
						l15.3-6c0.5-0.2,0.7-0.6,0.7-1.1l-0.6-13.7c5.4-3.7,10.1-8.3,13.9-13.4l13.6,1.1c0.5,0,0.9-0.2,1.1-0.7l6.5-15.1
						c0.2-0.4,0.1-0.9-0.3-1.3l-10.1-9.3c1.2-6.3,1.3-12.8,0.3-19.3l10.4-8.9c0.4-0.3,0.5-0.8,0.3-1.3l-6-15.3
						c-0.2-0.4-0.6-0.7-1.1-0.7l-13.7,0.6c-3.7-5.4-8.3-10.1-13.4-13.9l1.1-13.6c0-0.5-0.2-0.9-0.7-1.1L685.4,95.1z"/>
					<path class="st13" d="M666.4,182.2c-6.3,0.8-12.8-1.8-16.7-7.3c-5.7-8-3.9-19.1,4.1-24.9s19.2-3.9,24.9,4.1s3.9,19.1-4.1,24.9
						C672.1,180.8,669.3,181.8,666.4,182.2z M657.6,155.3c-5.1,3.6-6.2,10.7-2.6,15.8c3.6,5.1,10.7,6.2,15.8,2.6s6.2-10.7,2.6-15.8
						C669.8,152.8,662.7,151.6,657.6,155.3z"/>
					<path class="st13" d="M669.3,207.4c-7.5,0.9-15.2-0.2-22.3-3.3c-10.5-4.6-18.6-12.9-22.8-23.6c-1.3-3.4-2.2-6.9-2.7-10.5
						c-0.9-7.5,0.2-15.2,3.3-22.3c4.6-10.5,13-18.6,23.6-22.8c2.8-1.1,5.8-1.9,8.8-2.4l1,6.4c-2.5,0.4-5,1.1-7.5,2.1
						c-8.6,3.4-15.5,9.8-19.5,18.2c-0.1,0.1-0.1,0.3-0.2,0.4c-0.1,0.3-0.2,0.5-0.3,0.8c-2.6,6-3.6,12.5-2.8,18.9
						c0.4,3,1.1,6,2.3,8.9c3.6,9,10.4,16.1,19.3,20c8.9,3.9,18.8,4.1,27.8,0.5s16.2-10.4,20-19.3c2.6-6,3.6-12.5,2.8-18.9
						c-0.4-3-1.1-6-2.3-8.9c-2.4-6.1-6.4-11.5-11.6-15.5l4-5.1c6.1,4.7,10.9,11,13.7,18.3c1.3,3.4,2.2,6.9,2.7,10.5
						c0.9,7.5-0.2,15.2-3.3,22.3c-4.6,10.5-13,18.6-23.6,22.8C676.3,206,672.8,206.9,669.3,207.4z"/>
				</g>
			</g>
		</g>
		<g>
			<g>
				
					<linearGradient id="SVGID_7_" gradientUnits="userSpaceOnUse" x1="586.8593" y1="-1570.0542" x2="394.89" y2="-1870.5276" gradientTransform="matrix(0.9618 0.2737 -0.2737 0.9618 -181.5199 2662.4934)">
					<stop  offset="0" style="stop-color:#FDF53F"/>
					<stop  offset="1" style="stop-color:#D93C65"/>
				</linearGradient>
				<path class="st15" d="M818.1,1087.6c-101-22.3-24.9-172.1-21.3-177.9l-181,63.6c0,0-16.2,87.1,96.5,167.3
					c28.5,20.3,57.3,29,84.5,30.8C794.9,1136.4,805.2,1108.4,818.1,1087.6z"/>
				
					<linearGradient id="SVGID_8_" gradientUnits="userSpaceOnUse" x1="524.8668" y1="-1775.942" x2="797.0389" y2="-1775.942" gradientTransform="matrix(0.9618 0.2737 -0.2737 0.9618 -181.5199 2662.4934)">
					<stop  offset="0" style="stop-color:#F9B776"/>
					<stop  offset="1" style="stop-color:#F47960"/>
				</linearGradient>
				<path class="st16" d="M1023.7,1094.5c-29.7-36.3-78.9-22.5-78.9-22.5c-58.7,18.3-99.2,21.6-126.7,15.6
					c-12.8,20.8-23.2,48.8-21.3,83.8c58.8,3.9,109.9-25,133-40.7c8.3-5.7,19.7-3.8,25.5,4.3c6,8.3,11.1,18.7,7.2,27.1
					c-7.6,16.5,10.9,27.7,14.2,21.9c3.3-5.8,5.5-45.4,5.5-45.4s28.7,51.8,39.9,71.8c11.3,20,35.4,10.1,35.4,10.1
					S1053.4,1130.8,1023.7,1094.5z"/>
				<path class="st17" d="M415.1,706.9c0,0,127.1-100.1,460.5,42.3c0,0,36.1,39.8,23.8,88.2c-12.3,48.5-186.9,318.1-186.1,439.1
					c0,0-125.5,85.9-300.4,21.3C412.9,1297.8,335.2,983.7,415.1,706.9z"/>
				
					<linearGradient id="SVGID_9_" gradientUnits="userSpaceOnUse" x1="825.4971" y1="-1124.7705" x2="1006.1159" y2="-1124.7705" gradientTransform="matrix(0.9593 -0.2825 0.2825 0.9593 157.0301 1987.5703)">
					<stop  offset="0" style="stop-color:#F9B776"/>
					<stop  offset="1" style="stop-color:#F47960"/>
				</linearGradient>
				<path class="st18" d="M684.8,571.5l-45.6,106.9c-4.5,10.6-2.6,23,5.2,31.5c15.8,17.2,47.7,39.5,98.4,20.3
					c15.1-5.7,26-19.1,28.6-35L790.8,578L684.8,571.5z"/>
				<path class="st17" d="M412,1108.1c-36.8-63.2,87.9-265,87.9-265l-84.8-136.2c0,0-294.2,351.3-143.2,519.8
					c21.6,24.1,44.2,38.6,68.6,45.7C346.6,1184.4,383.9,1134.2,412,1108.1z"/>
				<path class="st19" d="M409,1108c-1.8,0.5-3.8-0.2-4.8-1.9c-37.6-64.6,82.8-261,88-269.3c1.2-2,3.8-2.6,5.8-1.4
					c2,1.2,2.6,3.8,1.4,5.8s-123,200.4-87.9,260.7c1.2,2,0.5,4.6-1.5,5.7C409.6,1107.8,409.3,1107.9,409,1108z"/>
				
					<linearGradient id="SVGID_10_" gradientUnits="userSpaceOnUse" x1="638.1647" y1="-1139.5088" x2="-54.1137" y2="63.4675" gradientTransform="matrix(0.9977 -6.820000e-02 6.820000e-02 0.9977 85.2167 2338.8306)">
					<stop  offset="0" style="stop-color:#F9B776"/>
					<stop  offset="1" style="stop-color:#F47960"/>
				</linearGradient>
				<path class="st20" d="M707.8,1101.1c-22.6,6.3-43.6,17.5-66.3,23.3c-25.2,6.4-50.1,13.9-75.4,19.7c-39.5,8.9-91.4,19.1-126-8.1
					c-2.9-2.3-26.4-28.8-28.1-27.9c-62.9,36.3-76.1,121.3-76.1,162.5c114.7,62.7,296.1-59.4,344.7-95.1c8-5.9,17.9-8.4,27.7-7.1
					c19.9,2.7,54.1,6.4,72.2,2.3c26.4-5.9,71.2,85.6,112.5,53.6C892.9,1224.3,844.7,1063.2,707.8,1101.1z"/>
				<g>
					
						<linearGradient id="SVGID_11_" gradientUnits="userSpaceOnUse" x1="687.0764" y1="-1618.7993" x2="464.2975" y2="-1448.3396" gradientTransform="matrix(0.9938 0.1109 -0.1109 0.9938 -30.282 2032.2263)">
						<stop  offset="0" style="stop-color:#F9B776"/>
						<stop  offset="1" style="stop-color:#F47960"/>
					</linearGradient>
					<path class="st21" d="M832.7,420.4c0,0,28.8,93.3,26.2,140.3s4.1,78.4-51,81.8c-55,3.4-97.5-28.6-117-77.8
						c0,0-30.6-76-18.7-104.4C684.2,431.9,832.7,420.4,832.7,420.4z"/>
					
						<linearGradient id="SVGID_12_" gradientUnits="userSpaceOnUse" x1="530.5995" y1="-1753.4231" x2="732.3382" y2="-1493.6851" gradientTransform="matrix(0.9938 0.1109 -0.1109 0.9938 -30.282 2032.2263)">
						<stop  offset="0" style="stop-color:#2B3582"/>
						<stop  offset="1" style="stop-color:#150E42"/>
					</linearGradient>
					<path class="st22" d="M713.1,533.2l6.8,0.8c0,0-21.7-60.8,4.2-68.2s126-16.4,151-48.8c24.1-31.2,10.8-76.5-15.1-91.6
						c-1.6-1-3.8-0.4-4.8,1.2l-2.7,4c-1.9,2.7-6.1,1.8-6.7-1.5c-0.5-3.1-4.5-4.2-6.5-1.7c-7.6,9.7-27,24.6-74.9,28
						c-68,4.9-115,26.9-121.3,72.8c-0.4,2.9-3.7,4.2-6,2.4c-4.6-3.5-12.3-5.8-23.8,1.8c-20,13.3-17,54.1,19.5,91.4
						c1.7,1.8,1.4,4.8-0.8,5.9c-7.8,3.9-19.9,14,6.5,32.1c27,18.6,44.2,18.8,50.8,17.8c1.8-0.3,3.1-1.7,3.2-3.5l2-41.1
						c0.1-2.1,2-3.7,4.1-3.5L713.1,533.2z"/>
					
						<linearGradient id="SVGID_13_" gradientUnits="userSpaceOnUse" x1="659.4438" y1="-1654.9087" x2="436.6653" y2="-1484.449" gradientTransform="matrix(0.9938 0.1109 -0.1109 0.9938 -30.282 2032.2263)">
						<stop  offset="0" style="stop-color:#F9B776"/>
						<stop  offset="1" style="stop-color:#F47960"/>
					</linearGradient>
					<path class="st23" d="M713.8,542c0,0-8.4-58.5-35.7-45.4s6.1,65.2,26.4,69.6L713.8,542z"/>
				</g>
				
					<linearGradient id="SVGID_14_" gradientUnits="userSpaceOnUse" x1="16945.1387" y1="-393.0916" x2="16591.1387" y2="-296.0693" gradientTransform="matrix(-1.053 -3.420000e-02 -3.250000e-02 0.9995 18373.9824 2135.2026)">
					<stop  offset="0" style="stop-color:#2B3582"/>
					<stop  offset="1" style="stop-color:#150E42"/>
				</linearGradient>
				<path class="st24" d="M623.4,1278.3c0.3,0,0.7,0,1.1,0l462.9-7.2c11.4-0.2,21.5-9.1,21.3-20s-9.7-19.7-21.1-19.3l-462.9,7.2
					c-11.4,0.2-20.5,9.1-20.3,20C604.5,1269.5,612.4,1278,623.4,1278.3z"/>
			</g>
			<g class="st0">
				<g class="st25">
					<g>
						
							<linearGradient id="SVGID_15_" gradientUnits="userSpaceOnUse" x1="1069.6821" y1="-2035.1877" x2="1257.4215" y2="-2162.4688" gradientTransform="matrix(0.9856 -0.1691 0.1691 0.9856 -87.1468 2852.2134)">
							<stop  offset="0" style="stop-color:#CB236D"/>
							<stop  offset="1" style="stop-color:#4C246D"/>
						</linearGradient>
						<path class="st26" d="M803.5,600.7c-82.5,7-149.9-57.6-150.4-58.5v-14.5c0.5,0.9,71.5,72.7,149.9,66L803.5,600.7z"/>
					</g>
					
						<linearGradient id="SVGID_16_" gradientUnits="userSpaceOnUse" x1="795.8403" y1="-1808.7899" x2="837.1403" y2="-1808.7899" gradientTransform="matrix(1 0 0 1 0 2405.8899)">
						<stop  offset="0" style="stop-color:#CB236D"/>
						<stop  offset="1" style="stop-color:#4C246D"/>
					</linearGradient>
					<path class="st27" d="M837.1,597.1c0,5.5-4,9.9-8.8,9.9h-23.6c-4.9,0-8.8-4.5-8.8-9.9s4-9.9,8.8-9.9h23.6
						C833.2,587.2,837.1,591.6,837.1,597.1z"/>
				</g>
				<g class="st25">
					
						<linearGradient id="SVGID_17_" gradientUnits="userSpaceOnUse" x1="1480.9874" y1="-2325.7034" x2="709.5078" y2="-2198.2417" gradientTransform="matrix(0.9856 -0.1691 0.1691 0.9856 -87.1468 2852.2134)">
						<stop  offset="0" style="stop-color:#CB236D"/>
						<stop  offset="1" style="stop-color:#4C246D"/>
					</linearGradient>
					<path class="st28" d="M695.2,454.3c0,0-18.8-100.5,97.3-101.1c1.6,0,1.9-2.3,0.3-2.7c-31.8-7.3-124.2-18.2-125.6,102.4
						C685,459.4,695.2,454.3,695.2,454.3z"/>
					
						<linearGradient id="SVGID_18_" gradientUnits="userSpaceOnUse" x1="1310.9545" y1="-2201.6265" x2="827.5698" y2="-2121.7629" gradientTransform="matrix(0.9856 -0.1691 0.1691 0.9856 -87.1468 2852.2134)">
						<stop  offset="0" style="stop-color:#CB236D"/>
						<stop  offset="1" style="stop-color:#4C246D"/>
					</linearGradient>
					<path class="st29" d="M674,442.1c-45.3,9.2-39.8,66.5-39.8,66.5c-3.3,41.6,8.9,62.2,24.4,72.1c10.6,6.7,24,7.3,35.2,1.7
						c11.2-5.7,18.7-16.8,19.6-29.3c0.8-11.3,1.8-22.1,2.6-25.9C718.1,517.8,719.3,432.9,674,442.1z"/>
				</g>
				
					<linearGradient id="SVGID_19_" gradientUnits="userSpaceOnUse" x1="1196.6692" y1="-2175.6604" x2="1448.8699" y2="-2179.8635" gradientTransform="matrix(0.9856 -0.1691 0.1691 0.9856 -87.1468 2852.2134)">
					<stop  offset="0" style="stop-color:#CB236D"/>
					<stop  offset="1" style="stop-color:#4C246D"/>
				</linearGradient>
				<path class="st30" d="M678.1,456.6c-9.4-1.6-18.7,3.4-22.5,12.1c-27.1,62.8,6.2,103.6,22.5,104.4c17.2,0.9,16.9-81.9,13.2-103.1
					C689.8,461.1,684.2,457.6,678.1,456.6z"/>
			</g>
		</g>
		<g>
			
				<linearGradient id="SVGID_20_" gradientUnits="userSpaceOnUse" x1="948.075" y1="-882.8055" x2="969.0775" y2="-1344.855" gradientTransform="matrix(1 0 0 1 0 2405.8899)">
				<stop  offset="0" style="stop-color:#2B3582"/>
				<stop  offset="1" style="stop-color:#150E42"/>
			</linearGradient>
			<path class="st31" d="M141.6,1297.4c-0.9-5.7,0.3-11.6,3.3-16.1s7.5-7.1,12.2-7.1h1600.3c6.2,0,12,3.9,15.3,10.3
				s3.8,14.6,1.2,21.5l-17.3,46.3c-4,10.6-12.6,17.4-22,17.4H168.1c-8.8,0-16.4-7.7-18-18.4L141.6,1297.4z"/>
			<path class="st13" d="M1734.6,1370.7H168.1c-9.3,0-17.3-8.1-19-19.2l-8.5-53.9c-0.9-6,0.3-12.1,3.5-16.8c3.2-4.8,8-7.5,13-7.5
				h1600.3c6.6,0,12.7,4.1,16.2,10.9c3.5,6.7,4,15.1,1.2,22.3l-17.3,46.3C1753.4,1363.6,1744.4,1370.7,1734.6,1370.7z M142.6,1297.2
				l8.5,53.9c1.6,10.2,8.8,17.5,17.1,17.5h1566.4c9,0,17.3-6.6,21.1-16.7l17.3-46.3c2.5-6.7,2.1-14.5-1.1-20.7s-8.6-9.8-14.5-9.8
				H157.1c-4.4,0-8.5,2.4-11.4,6.7C142.9,1286.1,141.7,1291.7,142.6,1297.2z"/>
		</g>
		<g>
			<g>
				
					<linearGradient id="SVGID_21_" gradientUnits="userSpaceOnUse" x1="1289.6985" y1="-1744.6042" x2="1469.7969" y2="-1284.0686" gradientTransform="matrix(1 0 0 1 0 2405.8899)">
					<stop  offset="0" style="stop-color:#2B3582"/>
					<stop  offset="1" style="stop-color:#150E42"/>
				</linearGradient>
				<path class="st32" d="M992.6,633.4c-9.4,77.1-51.9,390.1-64,479.6c-1.7,12.6,8.3,23.6,21,23.3l719.7-20.6
					c9.4-0.3,17.4-6.9,19.5-16.1l111.9-504.2c3-13.3-7.7-25.8-21.3-25l-767.6,45C1001.9,616,993.8,623.6,992.6,633.4z"/>
				<path class="st13" d="M949,1137.3c-6.1,0-12-2.6-16.1-7.2c-4.2-4.7-6.2-11-5.3-17.3c12.6-93.1,54.6-402.7,64-479.6l1,0.1l-1-0.1
					c1.3-10.3,9.7-18.3,20.2-18.9l767.6-45c6.8-0.4,13.3,2.3,17.7,7.5s6.1,12,4.6,18.7l-111.9,504.3c-2.2,9.7-10.6,16.6-20.4,16.9
					l-719.7,20.6C949.4,1137.3,949.2,1137.3,949,1137.3z M1780.7,571.4c-0.4,0-0.8,0-1.2,0l-767.6,45c-9.4,0.5-17.1,7.8-18.3,17.2
					c-9.4,76.9-51.4,386.5-64,479.6c-0.8,5.7,1,11.4,4.8,15.7c3.8,4.3,9.4,6.6,15.1,6.5l719.7-20.6c9-0.3,16.6-6.6,18.5-15.3
					l112.1-504.3c1.3-6-0.2-12.2-4.2-16.9C1791.8,573.9,1786.4,571.4,1780.7,571.4z"/>
			</g>
			<g>
				
					<linearGradient id="SVGID_22_" gradientUnits="userSpaceOnUse" x1="1267.9705" y1="-1561.5122" x2="1370.8842" y2="-928.5964" gradientTransform="matrix(1 0 0 1 0 2405.8899)">
					<stop  offset="0" style="stop-color:#2B3582"/>
					<stop  offset="1" style="stop-color:#150E42"/>
				</linearGradient>
				<path class="st33" d="M1281.9,949.6l-106.4,301.9l247.3,5.2l20.6-305.3c1-14.3-10.9-26.2-25.3-25.3l-115.5,7.7
					C1293.3,934.4,1285.1,940.7,1281.9,949.6z"/>
				<path class="st13" d="M1423.8,1257.8l-249.7-5.3l106.8-303.2l0.9,0.3l-0.9-0.3c3.3-9.3,11.8-15.8,21.7-16.5l115.5-7.7
					c7.1-0.5,14.1,2.2,19.1,7.2s7.7,12,7.2,19.1L1423.8,1257.8z M1177,1250.5l245,5.2l20.5-304.4c0.4-6.5-2-13-6.6-17.6
					s-11-7-17.6-6.6l-115.5,7.7c-9.1,0.6-16.9,6.5-19.9,15.1L1177,1250.5z"/>
			</g>
			<g>
				
					<linearGradient id="SVGID_23_" gradientUnits="userSpaceOnUse" x1="1221.5242" y1="-1193.2191" x2="1524.9148" y2="-994.3872" gradientTransform="matrix(1 0 0 1 0 2405.8899)">
					<stop  offset="0" style="stop-color:#2B3582"/>
					<stop  offset="1" style="stop-color:#150E42"/>
				</linearGradient>
				<path class="st34" d="M1075.3,1255.8c-2.7,8.3,2.5,16.8,11.2,16.8h387.3c7.1,0,13.8-5.8,13.8-12.8v-16.6
					c0-7.3-6.1-13.2-13.4-12.8l-387.3,16.6C1081.6,1247.2,1077,1250.7,1075.3,1255.8z"/>
				<path class="st13" d="M1473.8,1273.6h-387.3c-4.5,0-8.6-2.1-11.2-5.7s-2.3-8.2-0.9-12.4c1.8-5.4,6.8-9.3,12.6-9.5l387.3-16.6
					c3.8-0.2,7.4,1.2,10.2,3.8s4.3,6.2,4.3,10v16.6C1488.7,1267.4,1481.5,1273.6,1473.8,1273.6z M1076.2,1256.1
					c-1.2,3.7-1.6,7.5,0.7,10.6s5.8,4.9,9.6,4.9h387.3c6.5,0,12.8-5.3,12.8-11.8v-16.6c0-3.3-1.3-6.3-3.7-8.6
					c-2.3-2.3-5.5-3.4-8.7-3.3l-387.3,16.6C1082.1,1248.2,1077.8,1251.4,1076.2,1256.1z"/>
			</g>
			<path class="st13" d="M981.8,951.9l-5.1-0.6l35.4-278.9c2.2-17.3,16.4-30.6,33.8-31.7l663.3-40.1l0.3,5.1l-663.3,40.1
				c-14.9,0.9-27.1,12.3-29,27.2L981.8,951.9z"/>
			
				<rect x="935.4" y="1058.2" transform="matrix(0.125 -0.9922 0.9922 0.125 -207.3929 1886.5092)" class="st13" width="60.9" height="5.2"/>
		</g>
		<g class="st0">
			<g class="st25">
				
					<linearGradient id="SVGID_24_" gradientUnits="userSpaceOnUse" x1="1706.7892" y1="-1582.6519" x2="1552.3729" y2="-1413.6685" gradientTransform="matrix(0.9997 -2.610000e-02 2.610000e-02 0.9997 22.4754 2454.4785)">
					<stop  offset="0" style="stop-color:#FDF53F"/>
					<stop  offset="1" style="stop-color:#D93C65"/>
				</linearGradient>
				<circle class="st35" cx="1655.5" cy="864.6" r="37"/>
				
					<linearGradient id="SVGID_25_" gradientUnits="userSpaceOnUse" x1="1659.8406" y1="-1559.0166" x2="1645.285" y2="-1543.0879" gradientTransform="matrix(0.9997 -2.610000e-02 2.610000e-02 0.9997 22.4754 2454.4785)">
					<stop  offset="0" style="stop-color:#2B3582"/>
					<stop  offset="1" style="stop-color:#150E42"/>
				</linearGradient>
				<path class="st36" d="M1641.6,856c0.1,1.9-1.5,3.5-3.4,3.6s-3.5-1.5-3.6-3.4s1.5-3.5,3.4-3.6S1641.6,854.1,1641.6,856z"/>
				
					<linearGradient id="SVGID_26_" gradientUnits="userSpaceOnUse" x1="1693.6101" y1="-1558.9894" x2="1679.0544" y2="-1543.0604" gradientTransform="matrix(0.9997 -2.610000e-02 2.610000e-02 0.9997 22.4754 2454.4785)">
					<stop  offset="0" style="stop-color:#2B3582"/>
					<stop  offset="1" style="stop-color:#150E42"/>
				</linearGradient>
				<path class="st37" d="M1675.4,855.1c0.1,1.9-1.5,3.5-3.4,3.6s-3.5-1.5-3.6-3.4s1.5-3.5,3.4-3.6
					C1673.7,851.7,1675.3,853.2,1675.4,855.1z"/>
				
					<linearGradient id="SVGID_27_" gradientUnits="userSpaceOnUse" x1="1686.6338" y1="-1548.479" x2="1664.0332" y2="-1523.7461" gradientTransform="matrix(0.9997 -2.610000e-02 2.610000e-02 0.9997 22.4754 2454.4785)">
					<stop  offset="0" style="stop-color:#2B3582"/>
					<stop  offset="1" style="stop-color:#150E42"/>
				</linearGradient>
				<path class="st38" d="M1657,889.3c-12.3,0-19.3-7.6-20.8-15.2c-0.3-1.3,0.6-2.5,1.9-2.8s2.5,0.6,2.8,1.9
					c1.6,8,9.4,11.5,16.4,11.4c10.7-0.1,15.6-6.8,16.6-12.5c0.2-1.3,1.4-2.2,2.7-1.9c1.3,0.2,2.2,1.5,1.9,2.7
					c-1.9,11.2-12,16.4-21.2,16.5C1657.2,889.3,1657.1,889.3,1657,889.3z"/>
			</g>
			<g class="st25">
				
					<linearGradient id="SVGID_28_" gradientUnits="userSpaceOnUse" x1="1276.6692" y1="-1742.6322" x2="1122.2529" y2="-1573.6486" gradientTransform="matrix(0.9997 -2.610000e-02 2.610000e-02 0.9997 22.4754 2454.4785)">
					<stop  offset="0" style="stop-color:#FDF53F"/>
					<stop  offset="1" style="stop-color:#D93C65"/>
				</linearGradient>
				<circle class="st39" cx="1079.4" cy="879.6" r="37"/>
				
					<linearGradient id="SVGID_29_" gradientUnits="userSpaceOnUse" x1="1083.6508" y1="-1558.9381" x2="1069.0952" y2="-1543.0094" gradientTransform="matrix(0.9997 -2.610000e-02 2.610000e-02 0.9997 22.4754 2454.4785)">
					<stop  offset="0" style="stop-color:#2B3582"/>
					<stop  offset="1" style="stop-color:#150E42"/>
				</linearGradient>
				<path class="st40" d="M1065.6,871.1c0.1,1.9-1.5,3.5-3.4,3.6s-3.5-1.5-3.6-3.4s1.5-3.5,3.4-3.6S1065.5,869.1,1065.6,871.1z"/>
				
					<linearGradient id="SVGID_30_" gradientUnits="userSpaceOnUse" x1="1117.3647" y1="-1558.9617" x2="1102.8091" y2="-1543.0327" gradientTransform="matrix(0.9997 -2.610000e-02 2.610000e-02 0.9997 22.4754 2454.4785)">
					<stop  offset="0" style="stop-color:#2B3582"/>
					<stop  offset="1" style="stop-color:#150E42"/>
				</linearGradient>
				<path class="st41" d="M1099.3,870.2c0.1,1.9-1.5,3.5-3.4,3.6s-3.5-1.5-3.6-3.4s1.5-3.5,3.4-3.6S1099.2,868.3,1099.3,870.2z"/>
				
					<linearGradient id="SVGID_31_" gradientUnits="userSpaceOnUse" x1="9097.7637" y1="4753.7998" x2="9075.1377" y2="4778.5605" gradientTransform="matrix(-0.9997 2.610000e-02 -2.610000e-02 -0.9997 10289.5957 5426.1577)">
					<stop  offset="0" style="stop-color:#2B3582"/>
					<stop  offset="1" style="stop-color:#150E42"/>
				</linearGradient>
				<path class="st42" d="M1062.5,903.5c-0.1,0-0.3,0-0.4,0c-1.3-0.2-2.2-1.5-1.9-2.7c1.9-11.2,12-16.4,21.2-16.5
					c12.5-0.2,19.6,7.6,21.1,15.2c0.3,1.3-0.6,2.5-1.9,2.8s-2.5-0.6-2.8-1.9c-1.6-8-9.3-11.5-16.4-11.4
					c-10.7,0.1-15.6,6.8-16.6,12.5C1064.6,902.6,1063.6,903.5,1062.5,903.5z"/>
			</g>
			
				<linearGradient id="SVGID_32_" gradientUnits="userSpaceOnUse" x1="1616.7253" y1="-1613.3203" x2="1174.113" y2="-1638.0703" gradientTransform="matrix(0.9997 -2.610000e-02 2.610000e-02 0.9997 22.4754 2454.4785)">
				<stop  offset="0" style="stop-color:#FDF53F"/>
				<stop  offset="0.6645" style="stop-color:#E57A58"/>
				<stop  offset="1" style="stop-color:#D93C65"/>
			</linearGradient>
			<path class="st43" d="M1197.1,911.4c0.1-92.8,74.2-169.3,167.5-171.7s171.3,70,176.3,162.7l54.7-1.4c8.6-0.2,15.2-7.7,14.4-16.2
				c-12-125.5-119.3-222.1-247.3-218.8c-127.5,3.3-229.4,104.7-235.4,230.2c-0.4,9.2,7,16.8,16.2,16.6L1197.1,911.4z"/>
			<path class="st1" d="M1364.7,748.3c-4.6,0-8.4-3.7-8.5-8.3l-1.9-73.6c-0.1-4.7,3.6-8.6,8.3-8.7c4.7-0.1,8.6,3.6,8.7,8.3l1.9,73.6
				c0.1,4.7-3.6,8.6-8.3,8.7C1364.8,748.3,1364.7,748.3,1364.7,748.3z"/>
			<path class="st1" d="M1448.8,767.7c-1.1,0-2.3-0.2-3.4-0.7c-4.3-1.9-6.3-6.9-4.4-11.2l29.5-67.2c1.9-4.3,6.9-6.3,11.2-4.4
				c4.3,1.9,6.3,6.9,4.4,11.2l-29.5,67.2C1455.2,765.8,1452.1,767.7,1448.8,767.7z"/>
			<path class="st1" d="M1510.7,822.3c-3,0-5.9-1.6-7.5-4.4c-2.3-4.1-0.8-9.3,3.3-11.6l63.2-34.9c4.1-2.3,9.3-0.8,11.6,3.3
				c2.3,4.1,0.8,9.3-3.3,11.6l-63.2,34.9C1513.5,822,1512,822.3,1510.7,822.3z"/>
			<path class="st1" d="M1268.4,779.8c-2.5,0-4.9-1.1-6.6-3.1l-46.3-56.9c-3-3.7-2.4-9,1.2-12s9-2.4,12,1.2l46.3,56.9
				c3,3.7,2.4,9-1.2,12C1272.2,779.2,1270.3,779.8,1268.4,779.8z"/>
			<path class="st1" d="M1219.7,832c-0.7,0-1.3-0.1-2-0.2l-70.2-16.8c-4.6-1.1-7.4-5.7-6.3-10.3s5.7-7.4,10.3-6.3l70.2,16.8
				c4.6,1.1,7.4,5.7,6.3,10.3C1227.1,829.4,1223.6,832,1219.7,832z"/>
			
				<linearGradient id="SVGID_33_" gradientUnits="userSpaceOnUse" x1="1738.7638" y1="-1753.2679" x2="1287.8839" y2="-1346.5922" gradientTransform="matrix(0.9997 -2.610000e-02 2.610000e-02 0.9997 22.4754 2454.4785)">
				<stop  offset="0" style="stop-color:#53D8FF"/>
				<stop  offset="1" style="stop-color:#3840F7"/>
			</linearGradient>
			<polygon class="st44" points="1368.4,884.1 1580.7,885.6 1374.9,905.6 			"/>
			
				<linearGradient id="SVGID_34_" gradientUnits="userSpaceOnUse" x1="1440.3369" y1="-1569.3054" x2="1353.7341" y2="-1491.1931" gradientTransform="matrix(0.9997 -2.610000e-02 2.610000e-02 0.9997 22.4754 2454.4785)">
				<stop  offset="0" style="stop-color:#53D8FF"/>
				<stop  offset="1" style="stop-color:#3840F7"/>
			</linearGradient>
			<path class="st45" d="M1390.2,892.2c0.2,8.6-6.6,15.8-15.2,16s-15.8-6.6-16.1-15.2c-0.2-8.6,6.6-15.8,15.2-16
				C1382.8,876.7,1390,883.5,1390.2,892.2z"/>
		</g>
		<g>
			<path class="st46" d="M1800.4,291.4h-106.3c-8.1,0-14.7-6.6-14.7-14.7V170.1c0-7.7,5.9-14.1,13.5-14.7l113.3-9.2
				c8.9-0.7,16.4,6.6,15.9,15.6l-7,115.8C1814.6,285.3,1808.2,291.4,1800.4,291.4z"/>
			<path class="st47" d="M1709.2,270.6c-2.8,0-5.6-1.1-7.7-3.1c-2.3-2.1-3.5-5.1-3.5-8.2V191c0-1.9,1.6-3.5,3.5-3.5s3.5,1.6,3.5,3.5
				v68.4c0,1.2,0.5,2.3,1.3,3.1c0.9,0.8,2,1.2,3.2,1.2l81-4.8c2.3-0.1,4-2,4-4.3v-67.1c0-1.2-0.5-2.4-1.4-3.2s-2.1-1.2-3.3-1.1
				l-67.4,6.7c-2.2,0.2-3.2,1.8-3.5,2.5s-0.9,2.5,0.4,4.3l25.7,35.5c0.8,1.1,2.1,1.8,3.4,1.8l0,0c1.4,0,2.6-0.6,3.4-1.7l28.3-37.7
				c1.2-1.5,3.3-1.9,4.9-0.7c1.5,1.2,1.8,3.4,0.7,4.9l-28.3,37.7c-2.2,2.9-5.4,4.6-9.1,4.5c-3.6,0-6.9-1.7-9-4.6l-25.7-35.5
				c-2.4-3.3-2.8-7.5-1.2-11.2c1.7-3.7,5.1-6.2,9.2-6.6l67.4-6.7c3.2-0.3,6.3,0.7,8.7,2.9c2.3,2.1,3.7,5.2,3.7,8.3v67.1
				c0,5.9-4.7,10.9-10.6,11.2l-81,4.8C1709.7,270.6,1709.5,270.6,1709.2,270.6z"/>
			<path class="st13" d="M1753.5,177.8c-4.1-6.2-5.1-14.4-5.2-17.7c-10.5,2.3-20.8,6.3-20.3,9.3c0.1,0.3,0.6,0.8,1.3,1.2l-1.2,2.2
				c-1.5-0.8-2.4-1.8-2.5-3c-0.7-3.4,3.2-6.5,11.7-9.4c5.8-2,11.7-3.2,11.9-3.2l1.5-0.2v1.5c0,0.1,0.1,10.8,4.8,18L1753.5,177.8z"/>
			<path class="st13" d="M1757.5,257.6h-0.7c-20.6,0-43.6-6.5-46.3-17.3c-1.7-6.6,3.7-14,15.6-21.1l1.3,2.1
				c-10.7,6.5-15.9,13-14.5,18.4c2.4,9.4,24,15.3,43.2,15.4c2.3-3.4,14.4-23.2,7.5-50l2.4-0.7c7.9,30.4-8.1,52.4-8.3,52.6
				L1757.5,257.6z"/>
			<path class="st13" d="M1720.3,248.3c-1.3,0-2-0.2-2.1-0.2c-0.4-0.1-0.8-0.4-0.9-0.9c-0.1-0.4,0-0.9,0.3-1.2
				c0.2-0.2,18.2-18.2,20.5-32.6l2.4,0.4c-2.1,12.4-14.4,26.7-19.3,32c4.8-0.2,17.2-2.5,40.9-15.9c-18.5-2-21.4-16.8-21.4-17
				l2.4-0.4c0.1,0.7,3.1,15.1,23.2,15.1l0,0l0,0c0.6,0,1.1,0.3,1.2,1c0.2,0.6-0.1,1.1-0.7,1.4
				C1738.9,246.5,1725.3,248.3,1720.3,248.3z"/>
			<path class="st13" d="M1731.9,254.4c-0.6,0-1-0.3-1.1-0.8c-0.2-0.6,0-1.1,0.4-1.5c0.1-0.1,4.6-3.4,9.3-10.6
				c-1.9-0.8-3.7-1.8-5.6-2.9c-2.2-1.3-3.9-2.8-5.2-4.3c-6.5,1.7-12.4,2.4-17.7,2l0.2-2.4c4.7,0.4,10.1-0.2,16-1.5
				c-4-6.8-0.3-13.4-0.2-13.5l2.2,1.2c-0.2,0.2-3.2,5.9,0.7,11.7c5.6-1.5,11.5-4,17.6-6.9c1.4-4.6,2.4-9.9,3.1-15.9
				c0-0.4,0.2-0.8,0.7-1c0.3-0.2,0.8-0.2,1.1-0.1c0.1,0,8.3,3.7,14.1,6.2c0.4,0.2,0.7,0.7,0.8,1.1c0.1,0.4-0.2,0.9-0.6,1.1
				c-5.7,3.9-11.5,7.4-17.1,10.1c-1.8,5.6-4,10.2-6.2,14.1c9.3,3.4,17.4,3.5,17.5,3.5c0.7,0,1.1,0.3,1.2,1c0.2,0.6-0.1,1.1-0.7,1.4
				c-11.5,6.4-29.6,8.1-30.3,8.3C1732,254.4,1732,254.4,1731.9,254.4z M1742.9,242.4c-2.6,4.1-5.2,6.9-7,8.8
				c5.1-0.7,13.9-2.4,21.1-5.4C1753.5,245.5,1748.4,244.6,1742.9,242.4z M1732.4,233.6c1,1,2.2,2,3.7,2.9c1.9,1.1,3.7,2,5.6,2.9
				c1.9-3.2,3.9-6.9,5.4-11.5C1742.1,230.3,1737.2,232.2,1732.4,233.6z M1753.7,210.7c-0.6,4.4-1.3,8.5-2.3,12.2
				c4.2-2.2,8.4-4.7,12.8-7.6C1760.3,213.7,1756,211.7,1753.7,210.7z"/>
			<path class="st13" d="M1740.5,176.1c-0.2,0-0.7-0.1-0.8-0.2c-4.1-3.4-8.8-10.6-9-10.8c-0.3-0.4-0.2-1.1,0.1-1.5
				c0.3-0.4,1.1-0.6,1.5-0.2c0,0,2.4,1,18.2,3.6c0.4,0.1,0.8,0.3,1,0.8c0.2,0.4,0.1,0.9-0.2,1.2c-4.4,5-10,7-10.2,7.2
				C1740.8,176.1,1740.6,176.1,1740.5,176.1z M1734.7,166.4c1.5,2.1,3.9,5.1,6.1,6.9c1.3-0.7,4.2-2,6.9-4.5
				C1741,167.8,1737.2,167.1,1734.7,166.4z"/>
			<path class="st13" d="M1750.4,210.9c-0.2,0-0.3,0-0.6-0.1c-0.6-0.2-0.8-0.7-0.7-1.2c0.7-6.9-9.9-9.7-10-9.7
				c-0.4-0.1-0.8-0.4-0.9-0.9c-0.1-0.4,0-0.9,0.3-1.2c0.6-0.6,12.9-12.8,28.5-19.5c0.4-0.2,0.9-0.1,1.3,0.2c0.3,0.2,0.6,0.8,0.4,1.2
				c-3,14.4-16.8,30.3-17.5,30.9C1751,210.7,1750.7,210.9,1750.4,210.9z M1741.8,198c3,1.1,8.3,3.7,9.6,8.4c3.6-4.5,11.5-15,14.3-25
				C1754.6,186.8,1745.3,194.8,1741.8,198z"/>
			<path class="st13" d="M1728.2,220.8l-1.2-2.2c4.7-2.5,10.1-7.3,14.5-12.8c-3.9,2.5-5.9,4.3-6.1,4.4l-1.5-2
				c0.1-0.1,4.4-3.6,11.7-8.1c2-3.2,3.5-6.5,4.3-9.7c0.1-0.6,0.2-1.1,0.3-1.5c-4.8-1.8-9.3-2.8-12.3-3.2c-0.4-0.1-0.9-0.3-1-0.8
				c-0.1-0.4-0.1-1,0.2-1.2c0.2-0.2,5.3-5.7,11.7-8.7c0.6-0.2,1.1-0.1,1.5,0.2c0.2,0.2,3.6,4.1,2.8,12.1c2.9,1.1,5.9,2.4,8.7,4.2
				c6.9-3.1,14.9-5.9,23.2-7.6c0.4-0.1,0.9,0.1,1.2,0.4c0.2,0.3,0.3,0.8,0.2,1.2c-3.3,8.4-12,17.3-12.3,17.7c-0.2,0.2-0.7,0.3-1,0.3
				s-0.7-0.2-0.9-0.4c-2.9-3.5-6.5-6.5-10.5-8.8c-5.5,2.5-10.4,5.2-14.3,7.7C1742.3,210.1,1734.7,217.3,1728.2,220.8z M1764.5,193.2
				c3.3,2.1,6.3,4.5,8.7,7.4c2.1-2.3,7-7.9,9.9-13.7C1776.5,188.5,1770.2,190.8,1764.5,193.2z M1752.7,190c-0.1,0.4-0.2,0.8-0.2,1.2
				c-0.6,2.1-1.3,4.3-2.4,6.5c2.8-1.5,5.8-3.2,9.1-4.7C1757,191.9,1754.9,190.9,1752.7,190z M1740.8,183.9c2.9,0.6,6.3,1.4,9.9,2.8
				c0.3-4.6-0.9-7.5-1.5-8.7C1745.5,179.6,1742.6,182.3,1740.8,183.9z"/>
			<path class="st13" d="M1740.8,196c0,11-9.1,19.8-15.9,26.2c-1.1,1.1-4.8,1.2-4.8,1.2c1-1,2-2,3.1-3c6.3-6.1,15-14.4,15-24.4
				c0-11.8-4.7-16.4-8.5-20.2c-1.7-1.7-3.1-3.3-3.9-5.2l0.8-0.3c0.9,0.3,1.9,0.8,2.5,1.1c0.7,0.9,1.4,1.8,2.3,2.6
				C1735.4,177.9,1740.8,183.2,1740.8,196z"/>
			<path class="st13" d="M1803.4,199.3c0,0-1.5,0.2-2,0.2c-22,2.4-44.7,8.7-57.8,14c-4.7,1.9-9.6,4.2-14.1,6.7c0,0-0.1,0-0.1,0.1
				c-2.6,1.5-9,4.6-14.1,7.4c7.5-8,21.7-14.2,27.3-16.4c12.8-5.2,34.7-11.2,56.3-13.9c-2.5-3-8.7-9.3-20.9-14
				c-7.2-2.8-18.1-4.3-27.5-5.7c-15.2-2.2-24-3.6-24.8-7.8c-0.2-0.8-0.1-1.7,0.3-2.4c0.8,1.3,2,2.3,2.9,2.9c0.3,0.2,0.7,0.4,0.8,0.4
				l0,0c3.5,1.9,13.2,3.3,21.3,4.4c9.7,1.4,20.7,3,28.1,5.8c17.3,6.6,23.2,16.2,23.6,16.6C1802.6,198,1803.4,199.3,1803.4,199.3z"/>
			<g>
				<path class="st13" d="M1710.1,274.3c0,1.1-0.5,2.1-1.4,2.8c-1,0.7-2.3,1.1-3.9,1.1c-1,0-1.8-0.1-2.5-0.3c-0.7-0.2-1.4-0.4-2-0.6
					v-2.8h0.3c0.6,0.5,1.3,0.9,2.1,1.1c0.8,0.3,1.5,0.4,2.2,0.4c0.2,0,0.4,0,0.7,0c0.3,0,0.5-0.1,0.7-0.2s0.4-0.2,0.6-0.3
					s0.2-0.3,0.2-0.6c0-0.3-0.1-0.5-0.3-0.7c-0.2-0.2-0.5-0.3-0.9-0.4s-0.9-0.2-1.4-0.3c-0.5-0.1-0.9-0.2-1.4-0.3
					c-1-0.3-1.7-0.7-2.1-1.3c-0.4-0.5-0.6-1.2-0.6-2c0-1.1,0.5-2,1.4-2.6c1-0.7,2.2-1,3.7-1c0.8,0,1.5,0.1,2.3,0.2
					c0.7,0.1,1.4,0.3,1.9,0.6v2.7h-0.3c-0.5-0.4-1-0.7-1.7-0.9c-0.7-0.3-1.4-0.4-2.1-0.4c-0.2,0-0.5,0-0.7,0.1
					c-0.2,0-0.5,0.1-0.7,0.2s-0.4,0.2-0.5,0.4c-0.1,0.2-0.2,0.3-0.2,0.5c0,0.3,0.1,0.5,0.3,0.7c0.2,0.2,0.7,0.3,1.3,0.4
					c0.4,0.1,0.8,0.2,1.2,0.3c0.4,0.1,0.8,0.2,1.3,0.3c0.9,0.3,1.5,0.7,2,1.2C1709.9,272.9,1710.1,273.5,1710.1,274.3z"/>
				<path class="st13" d="M1719.8,277.8c0,0.5,0.2,0.9,0.4,1.1s0.7,0.3,1.3,0.3c0.2,0,0.5,0,0.8-0.1s0.5-0.1,0.6-0.2h0.3v2
					c-0.3,0.1-0.6,0.1-0.9,0.2s-0.9,0.1-1.6,0.1c-0.6,0-1.2-0.1-1.6-0.2c-0.5-0.2-0.8-0.4-1.1-0.6c-0.3-0.3-0.5-0.6-0.7-1
					s-0.2-0.8-0.3-1.2c-1.7-0.1-3.1-0.7-4-1.7s-1.4-2.5-1.4-4.2c0-1.9,0.5-3.3,1.6-4.4s2.5-1.6,4.4-1.6s3.3,0.5,4.4,1.6
					s1.6,2.5,1.6,4.4c0,1.4-0.3,2.6-0.9,3.6C1721.8,276.7,1720.9,277.4,1719.8,277.8z M1719.4,275.1c0.3-0.4,0.5-0.8,0.6-1.2
					s0.2-1,0.2-1.7s-0.1-1.3-0.2-1.8s-0.4-0.9-0.6-1.2c-0.3-0.3-0.6-0.5-0.9-0.7c-0.3-0.1-0.7-0.2-1.1-0.2s-0.7,0.1-1.1,0.2
					c-0.3,0.1-0.6,0.4-0.9,0.7c-0.3,0.3-0.5,0.7-0.6,1.2s-0.2,1.1-0.2,1.8c0,0.7,0.1,1.3,0.2,1.8s0.4,0.9,0.6,1.2
					c0.3,0.3,0.6,0.5,0.9,0.7c0.3,0.1,0.7,0.2,1.1,0.2s0.7-0.1,1.1-0.2S1719.2,275.4,1719.4,275.1z"/>
				<path class="st13" d="M1734,277.9h-8.3v-11.6h3v9.3h5.4L1734,277.9L1734,277.9z"/>
				<path class="st13" d="M1750.5,274.3c0,1.1-0.5,2.1-1.4,2.8c-1,0.7-2.3,1.1-3.9,1.1c-1,0-1.8-0.1-2.5-0.3c-0.7-0.2-1.4-0.4-2-0.6
					v-2.8h0.3c0.6,0.5,1.3,0.9,2.1,1.1c0.8,0.3,1.5,0.4,2.2,0.4c0.2,0,0.4,0,0.7,0c0.3,0,0.5-0.1,0.7-0.2s0.4-0.2,0.6-0.3
					s0.2-0.3,0.2-0.6c0-0.3-0.1-0.5-0.3-0.7c-0.2-0.2-0.5-0.3-0.9-0.4s-0.9-0.2-1.4-0.3c-0.5-0.1-0.9-0.2-1.4-0.3
					c-1-0.3-1.7-0.7-2.1-1.3c-0.4-0.5-0.6-1.2-0.6-2c0-1.1,0.5-2,1.4-2.6c1-0.7,2.2-1,3.7-1c0.8,0,1.5,0.1,2.3,0.2
					c0.7,0.1,1.4,0.3,1.9,0.6v2.7h-0.3c-0.5-0.4-1-0.7-1.7-0.9c-0.7-0.3-1.4-0.4-2.1-0.4c-0.2,0-0.5,0-0.7,0.1
					c-0.2,0-0.5,0.1-0.7,0.2s-0.4,0.2-0.5,0.4c-0.1,0.2-0.2,0.3-0.2,0.5c0,0.3,0.1,0.5,0.3,0.7c0.2,0.2,0.7,0.3,1.3,0.4
					c0.4,0.1,0.8,0.2,1.2,0.3c0.4,0.1,0.8,0.2,1.3,0.3c0.9,0.3,1.5,0.7,2,1.2C1750.3,272.9,1750.5,273.5,1750.5,274.3z"/>
				<path class="st13" d="M1761,274.1h-6.4c0,0.7,0.3,1.2,0.8,1.6s1.2,0.5,2.1,0.5c0.6,0,1.2-0.1,1.7-0.3c0.6-0.2,1-0.4,1.3-0.7h0.3
					v2.2c-0.6,0.3-1.2,0.4-1.8,0.6c-0.6,0.1-1.2,0.2-1.9,0.2c-1.7,0-3.1-0.4-4-1.2s-1.4-1.9-1.4-3.4c0-1.4,0.4-2.6,1.3-3.4
					s2.1-1.3,3.6-1.3c1.4,0,2.5,0.4,3.2,1.1s1.1,1.7,1.1,3.1v1H1761z M1758.2,272.4c0-0.6-0.2-1-0.4-1.3s-0.7-0.4-1.3-0.4
					c-0.5,0-1,0.1-1.3,0.4s-0.5,0.7-0.6,1.3H1758.2z"/>
				<path class="st13" d="M1769.2,271.9h-0.2c-0.1,0-0.3-0.1-0.6-0.1s-0.5,0-0.7,0c-0.4,0-0.7,0-1.1,0.1s-0.6,0.1-1,0.3v5.8h-2.8
					v-8.7h2.8v1.3c0.6-0.5,1.1-0.9,1.6-1.1s0.9-0.3,1.3-0.3c0.1,0,0.2,0,0.3,0c0.1,0,0.2,0,0.3,0L1769.2,271.9L1769.2,271.9z"/>
				<path class="st13" d="M1779.6,269.2l-3.4,8.7h-3.2l-3.3-8.7h3l2,6l2-6H1779.6z"/>
				<path class="st13" d="M1789.7,274.1h-6.4c0,0.7,0.3,1.2,0.8,1.6s1.2,0.5,2.1,0.5c0.6,0,1.2-0.1,1.7-0.3c0.6-0.2,1-0.4,1.3-0.7
					h0.3v2.2c-0.6,0.3-1.2,0.4-1.8,0.6c-0.6,0.1-1.2,0.2-1.9,0.2c-1.7,0-3.1-0.4-4-1.2s-1.4-1.9-1.4-3.4c0-1.4,0.4-2.6,1.3-3.4
					s2.1-1.3,3.6-1.3c1.4,0,2.5,0.4,3.2,1.1s1.1,1.7,1.1,3.1v1H1789.7z M1787,272.4c0-0.6-0.2-1-0.4-1.3s-0.7-0.4-1.3-0.4
					c-0.5,0-1,0.1-1.3,0.4s-0.5,0.7-0.6,1.3H1787z"/>
				<path class="st13" d="M1798,271.9h-0.2c-0.1,0-0.3-0.1-0.6-0.1s-0.5,0-0.7,0c-0.4,0-0.7,0-1.1,0.1s-0.6,0.1-1,0.3v5.8h-2.8v-8.7
					h2.8v1.3c0.6-0.5,1.1-0.9,1.6-1.1s0.9-0.3,1.3-0.3c0.1,0,0.2,0,0.3,0c0.1,0,0.2,0,0.3,0L1798,271.9L1798,271.9z"/>
			</g>
			<g>
				<path class="st13" d="M1704,264.1h-0.7v-4.2l-1.4,2.9h-0.4l-1.3-2.9v4.2h-0.6v-4.9h0.9l1.3,2.7l1.3-2.7h0.9L1704,264.1
					L1704,264.1z"/>
				<path class="st13" d="M1705.9,259.9h-0.7v-0.6h0.7V259.9z M1705.9,264.1h-0.6v-3.7h0.6V264.1z"/>
				<path class="st13" d="M1709.8,263.9c-0.2,0.1-0.4,0.2-0.6,0.2c-0.2,0.1-0.4,0.1-0.6,0.1c-0.3,0-0.5,0-0.7-0.1s-0.4-0.2-0.6-0.4
					c-0.2-0.2-0.3-0.4-0.4-0.6s-0.1-0.5-0.1-0.8c0-0.6,0.2-1.1,0.5-1.4s0.8-0.5,1.3-0.5c0.2,0,0.4,0,0.6,0.1s0.4,0.1,0.6,0.2v0.7
					l0,0c-0.2-0.1-0.4-0.3-0.6-0.3s-0.4-0.1-0.6-0.1c-0.4,0-0.6,0.1-0.8,0.4s-0.3,0.6-0.3,1s0.1,0.8,0.3,1c0.2,0.2,0.5,0.4,0.8,0.4
					c0.1,0,0.3,0,0.4,0s0.2-0.1,0.3-0.1c0.1,0,0.2-0.1,0.3-0.1c0.1-0.1,0.1-0.1,0.2-0.1l0,0L1709.8,263.9L1709.8,263.9z"/>
				<path class="st13" d="M1712.9,261.2L1712.9,261.2c-0.1,0-0.2,0-0.3,0c-0.1,0-0.2,0-0.3,0c-0.2,0-0.4,0-0.6,0.1s-0.3,0.2-0.5,0.3
					v2.6h-0.6v-3.7h0.6v0.5c0.2-0.2,0.5-0.3,0.6-0.4c0.2-0.1,0.4-0.1,0.6-0.1c0.1,0,0.2,0,0.2,0s0.1,0,0.2,0v0.7H1712.9z"/>
				<path class="st13" d="M1716.6,262.3c0,0.6-0.2,1.1-0.5,1.4s-0.7,0.5-1.2,0.5s-0.9-0.2-1.2-0.5c-0.3-0.3-0.5-0.8-0.5-1.4
					s0.2-1.1,0.5-1.4s0.7-0.5,1.2-0.5s0.9,0.2,1.2,0.5S1716.6,261.7,1716.6,262.3z M1716,262.3c0-0.5-0.1-0.8-0.3-1.1
					c-0.2-0.2-0.4-0.3-0.8-0.3c-0.3,0-0.6,0.1-0.8,0.3s-0.3,0.6-0.3,1.1s0.1,0.8,0.3,1c0.2,0.2,0.4,0.4,0.8,0.4
					c0.3,0,0.6-0.1,0.8-0.4C1715.9,263.1,1716,262.8,1716,262.3z"/>
				<path class="st13" d="M1720.2,263.1c0,0.3-0.1,0.6-0.4,0.8c-0.3,0.2-0.7,0.3-1.1,0.3c-0.3,0-0.5,0-0.7-0.1s-0.4-0.1-0.6-0.2
					v-0.7l0,0c0.2,0.1,0.4,0.3,0.6,0.4s0.5,0.1,0.7,0.1c0.3,0,0.5,0,0.6-0.1c0.2-0.1,0.2-0.2,0.2-0.4c0-0.1,0-0.3-0.1-0.3
					c-0.1-0.1-0.2-0.1-0.5-0.2c-0.1,0-0.2,0-0.3-0.1c-0.1,0-0.3-0.1-0.4-0.1c-0.3-0.1-0.6-0.2-0.7-0.4c-0.1-0.2-0.2-0.4-0.2-0.6
					s0-0.3,0.1-0.4s0.2-0.3,0.3-0.4c0.1-0.1,0.3-0.2,0.5-0.2s0.4-0.1,0.6-0.1s0.4,0,0.7,0.1s0.4,0.1,0.6,0.2v0.7l0,0
					c-0.2-0.1-0.3-0.2-0.6-0.3c-0.2-0.1-0.4-0.1-0.7-0.1c-0.2,0-0.4,0-0.6,0.1s-0.2,0.2-0.2,0.4c0,0.2,0,0.3,0.1,0.3
					c0.1,0.1,0.2,0.1,0.4,0.2c0.1,0,0.2,0.1,0.4,0.1c0.1,0,0.3,0.1,0.4,0.1c0.3,0.1,0.5,0.2,0.7,0.3
					C1720.1,262.6,1720.2,262.8,1720.2,263.1z"/>
				<path class="st13" d="M1724.2,262.3c0,0.6-0.2,1.1-0.5,1.4s-0.7,0.5-1.2,0.5s-0.9-0.2-1.2-0.5c-0.3-0.3-0.5-0.8-0.5-1.4
					s0.2-1.1,0.5-1.4s0.7-0.5,1.2-0.5s0.9,0.2,1.2,0.5S1724.2,261.7,1724.2,262.3z M1723.6,262.3c0-0.5-0.1-0.8-0.3-1.1
					c-0.2-0.2-0.4-0.3-0.8-0.3c-0.3,0-0.6,0.1-0.8,0.3s-0.3,0.6-0.3,1.1s0.1,0.8,0.3,1c0.2,0.2,0.4,0.4,0.8,0.4
					c0.3,0,0.6-0.1,0.8-0.4C1723.5,263.1,1723.6,262.8,1723.6,262.3z"/>
				<path class="st13" d="M1727.1,259.6L1727.1,259.6c-0.1,0-0.2,0-0.3-0.1c-0.1,0-0.2,0-0.3,0c-0.3,0-0.5,0.1-0.6,0.2
					s-0.2,0.3-0.2,0.6v0.1h1.1v0.5h-1.1v3.1h-0.6v-3h-0.4v-0.5h0.4v-0.1c0-0.4,0.1-0.8,0.3-1c0.2-0.2,0.5-0.3,0.9-0.3
					c0.1,0,0.3,0,0.4,0s0.2,0,0.3,0L1727.1,259.6L1727.1,259.6z"/>
				<path class="st13" d="M1729.4,264.1c-0.1,0-0.2,0.1-0.4,0.1c-0.1,0-0.3,0-0.4,0c-0.4,0-0.7-0.1-0.9-0.3c-0.2-0.2-0.3-0.5-0.3-1
					v-2h-0.4v-0.5h0.4v-1.1h0.6v1.1h1.3v0.5h-1.3v1.7c0,0.2,0,0.3,0,0.5s0,0.2,0.1,0.3c0,0.1,0.1,0.2,0.2,0.2s0.2,0.1,0.4,0.1
					c0.1,0,0.2,0,0.3,0c0.1,0,0.2-0.1,0.2-0.1l0,0v0.5H1729.4z"/>
			</g>
		</g>
		<g>
			<g>
				<path class="st46" d="M1296.9,514.1h-119.4c-9.1,0-16.5-7.4-16.5-16.5V377.9c0-8.6,6.6-15.8,15.2-16.5l127.2-10.3
					c10-0.8,18.4,7.4,17.8,17.5l-7.8,130C1312.9,507.3,1305.7,514.1,1296.9,514.1z"/>
			</g>
			<g class="st0">
				<g class="st25">
					<g>
						<g>
							<path class="st13" d="M1247.9,445.8c0,9.6-0.7,19.2-2.3,28.6c-0.4,2.4-0.9,4.7-1.5,7s-1.3,4.6-2.1,6.9
								c-0.8,2.3-1.8,4.5-3.1,6.5c-0.7,1-1.4,2-2.4,2.8c-0.5,0.4-1,0.7-1.5,1c-0.6,0.3-1.2,0.4-1.8,0.4s-1.3-0.1-1.8-0.3
								c-0.6-0.2-1.1-0.6-1.6-0.9c-1-0.8-1.7-1.7-2.4-2.7c-1.3-2-2.3-4.2-3.2-6.5c-0.8-2.3-1.5-4.5-2.1-6.9c-0.6-2.3-1.1-4.7-1.5-7
								c-0.9-4.7-1.4-9.5-1.8-14.3s-0.6-9.6-0.6-14.4c0-2.4,0.1-4.8,0.1-7.2c0.1-2.4,0.2-4.8,0.4-7.2c0.3-4.8,0.9-9.5,1.7-14.3
								c0.4-2.4,0.8-4.7,1.4-7s1.2-4.6,2-6.9c0.4-1.1,0.8-2.3,1.3-3.3s1.1-2.2,1.7-3.2c0.7-1,1.4-2,2.4-2.7c0.5-0.4,1-0.7,1.6-0.9
								c0.6-0.2,1.2-0.3,1.8-0.3s1.2,0.2,1.8,0.4s1.1,0.6,1.5,1c0.9,0.8,1.7,1.7,2.4,2.7c1.4,2,2.4,4.2,3.3,6.4
								c0.9,2.2,1.6,4.5,2.3,6.8s1.2,4.6,1.6,7C1247.1,426.6,1247.8,436.2,1247.9,445.8z M1247.2,445.8c0-4.8-0.2-9.5-0.6-14.3
								s-1-9.5-1.9-14.2c-0.4-2.3-0.9-4.7-1.6-7c-0.6-2.3-1.3-4.6-2.2-6.8c-0.9-2.2-1.9-4.4-3.2-6.4c-0.7-1-1.4-1.9-2.3-2.7
								c-0.4-0.4-0.9-0.7-1.5-1c-0.5-0.2-1.1-0.4-1.7-0.4s-1.2,0.1-1.7,0.3c-0.5,0.2-1,0.5-1.5,0.9c-0.9,0.8-1.6,1.7-2.3,2.7
								s-1.2,2.1-1.7,3.1s-0.9,2.2-1.3,3.3c-0.8,2.3-1.4,4.6-1.9,6.9s-0.9,4.7-1.3,7c-0.7,4.7-1.2,9.5-1.5,14.2
								c-0.3,4.8-0.4,9.5-0.4,14.3s0.2,9.5,0.5,14.3c0.4,4.8,0.9,9.5,1.7,14.2c0.4,2.4,0.9,4.7,1.5,7s1.2,4.6,2.1,6.8
								c0.8,2.2,1.8,4.4,3.1,6.4c0.7,1,1.4,1.9,2.3,2.6c0.4,0.4,0.9,0.7,1.5,0.9s1.1,0.3,1.7,0.3s1.1-0.2,1.7-0.4s1-0.6,1.4-1
								c0.9-0.8,1.6-1.7,2.3-2.7c1.3-2,2.2-4.2,3-6.4c0.8-2.2,1.5-4.5,2-6.8c0.6-2.3,1-4.6,1.4-7c0.8-4.7,1.3-9.5,1.7-14.2
								C1247,455.4,1247.2,450.6,1247.2,445.8z"/>
						</g>
						<g>
							<path class="st13" d="M1232.9,500.4c-0.7,0-1.5-0.1-2.2-0.4s-1.3-0.6-1.9-1.1c-1-0.8-1.8-1.7-2.7-3c-1.2-1.8-2.3-4-3.3-6.8
								c-0.8-2.1-1.5-4.4-2.2-7c-0.6-2.2-1.1-4.6-1.5-7.1c-0.8-4.5-1.4-9.2-1.8-14.4c-0.4-4.7-0.6-9.6-0.6-14.5
								c0-2.6,0.1-5.1,0.1-7.2c0.1-2.4,0.2-4.9,0.4-7.2c0.4-5.2,0.9-9.9,1.7-14.4c0.4-2.6,0.9-4.9,1.4-7.1c0.6-2.6,1.3-4.9,2-7
								c0.4-1.3,0.9-2.4,1.4-3.5c0.6-1.3,1.2-2.4,1.8-3.4c0.9-1.3,1.7-2.3,2.6-3c0.6-0.5,1.3-0.9,1.9-1.1c0.8-0.3,1.6-0.4,2.3-0.4
								c0.8,0,1.5,0.2,2.3,0.5c0.6,0.3,1.2,0.7,1.8,1.1c0.9,0.8,1.8,1.7,2.7,3c1.3,1.8,2.3,3.9,3.4,6.7c0.8,2.1,1.6,4.4,2.3,7
								c0.6,2.3,1.2,4.6,1.7,7.1c1.8,8.9,2.6,18.4,2.7,28.9c0,10.5-0.8,20-2.4,28.9c-0.5,2.5-1,4.9-1.5,7.1c-0.7,2.6-1.4,4.9-2.2,7
								c-1,2.8-2.1,4.9-3.3,6.8c-0.9,1.3-1.7,2.3-2.6,3.1c-0.6,0.5-1.2,0.9-1.9,1.2c-0.8,0.4-1.6,0.5-2.3,0.5
								C1233,500.4,1233,500.4,1232.9,500.4z M1232.2,394.6c-0.3,0-0.7,0.1-1.1,0.2s-0.8,0.4-1.1,0.7c-0.7,0.6-1.3,1.3-2,2.4
								c-0.5,0.9-1.1,1.8-1.6,3c-0.4,1-0.8,2-1.3,3.2c-0.7,2-1.3,4.2-1.9,6.7c-0.5,2.2-0.9,4.5-1.3,6.9c-0.7,4.4-1.2,9-1.5,14.1
								c-0.3,4.3-0.4,9-0.4,14.2c0,4.8,0.2,9.6,0.5,14.2c0.4,5,0.9,9.6,1.7,14.1c0.4,2.5,0.9,4.7,1.4,6.9c0.6,2.5,1.3,4.7,2,6.7
								c0.9,2.5,1.9,4.5,2.9,6.1c0.7,1,1.3,1.8,2,2.3c0.4,0.3,0.8,0.5,1.1,0.7c0.4,0.2,0.7,0.2,1.1,0.2s0.7-0.1,1.1-0.3
								c0.4-0.2,0.7-0.4,1.1-0.7c0.7-0.6,1.3-1.4,2-2.4c1-1.6,2-3.6,2.9-6.1c0.7-2,1.4-4.2,2-6.7c0.5-2.2,1-4.4,1.4-6.9
								c0.8-4.4,1.3-9,1.7-14.1c0.3-4.6,0.5-9.4,0.5-14.2c0-4.8-0.2-9.6-0.6-14.2c-0.4-5.1-1-9.6-1.8-14c-0.5-2.5-1-4.7-1.5-6.9
								c-0.7-2.5-1.3-4.6-2.1-6.7c-1-2.5-1.9-4.5-3.1-6.1c-0.7-1-1.4-1.8-2.1-2.4c-0.4-0.3-0.8-0.6-1.2-0.8
								C1233,394.7,1232.6,394.6,1232.2,394.6C1232.3,394.6,1232.2,394.6,1232.2,394.6z"/>
						</g>
					</g>
					<g>
						<g>
							<path class="st13" d="M1271.9,445.8c0,6.2-0.8,12.3-2.5,18.3c-1.7,5.9-4.2,11.6-7.6,16.8c-1.7,2.6-3.7,5-5.8,7.2
								c-2.2,2.2-4.6,4.1-7.2,5.8c-2.6,1.6-5.4,3-8.4,3.8c-2.9,0.9-6,1.4-9.1,1.4s-6.2-0.5-9.1-1.4s-5.8-2.2-8.4-3.8
								c-2.6-1.6-5-3.6-7.2-5.8s-4.1-4.6-5.8-7.2c-3.4-5.1-6-10.8-7.6-16.8c-0.8-3-1.4-6-1.8-9.1s-0.6-6.1-0.6-9.2s0.2-6.2,0.6-9.2
								s1-6.1,1.9-9.1c1.7-5.9,4.2-11.6,7.7-16.8c1.7-2.6,3.7-5,5.8-7.1c2.2-2.2,4.6-4.1,7.2-5.8c2.6-1.6,5.4-2.9,8.4-3.8
								s6-1.4,9.1-1.4s6.1,0.5,9.1,1.4c2.9,0.9,5.8,2.2,8.3,3.8c2.6,1.6,5,3.6,7.2,5.8c2.2,2.2,4.1,4.6,5.8,7.1
								c3.4,5.1,5.9,10.8,7.6,16.8C1271.1,433.5,1271.9,439.6,1271.9,445.8z M1271.1,445.8c0-6.1-0.8-12.2-2.4-18.1
								s-4-11.5-7.4-16.7c-1.7-2.5-3.6-5-5.7-7.1c-2.1-2.2-4.5-4.1-7-5.8c-2.6-1.6-5.3-2.9-8.3-3.8c-2.9-0.9-5.9-1.4-9-1.4
								c-3,0-6.1,0.5-9,1.4s-5.7,2.2-8.3,3.8c-2.6,1.6-4.9,3.6-7,5.8c-2.1,2.2-4,4.6-5.7,7.1c-3.3,5.1-5.8,10.8-7.4,16.6
								c-0.8,2.9-1.4,5.9-1.8,9s-0.6,6.1-0.6,9.1s0.2,6.1,0.6,9.1s1,6,1.8,9c1.6,5.9,4,11.5,7.4,16.6c1.7,2.5,3.6,5,5.7,7.1
								s4.5,4.1,7,5.8c2.6,1.6,5.3,2.9,8.2,3.8s5.9,1.4,9,1.4c3,0,6.1-0.5,9-1.4s5.7-2.2,8.3-3.8c2.6-1.6,4.9-3.6,7-5.8
								c2.1-2.2,4-4.6,5.7-7.1c3.3-5.1,5.8-10.8,7.4-16.6C1270.3,458,1271.1,451.9,1271.1,445.8z"/>
						</g>
						<g>
							<path class="st13" d="M1231.4,500.4c-3.2,0-6.4-0.5-9.5-1.4c-3-0.9-5.9-2.2-8.7-4c-2.6-1.6-5.1-3.7-7.4-6
								c-2.2-2.2-4.2-4.7-6-7.4c-3.4-5.1-6-10.9-7.8-17.2c-0.8-3-1.5-6.1-1.9-9.3c-0.4-3.1-0.6-6.2-0.6-9.4c0-3.2,0.2-6.4,0.6-9.4
								c0.4-3.1,1.1-6.3,1.9-9.3c1.8-6.3,4.4-12.1,7.8-17.2c1.8-2.7,3.8-5.2,6-7.4c2.3-2.3,4.8-4.3,7.4-6c2.8-1.7,5.7-3.1,8.7-4
								c3.1-0.9,6.3-1.4,9.5-1.4s6.4,0.5,9.5,1.4c3,0.9,5.9,2.3,8.7,4c2.6,1.6,5.1,3.7,7.4,6c2.2,2.2,4.2,4.7,6,7.4
								c3.4,5.1,6,10.9,7.8,17.2c1.6,5.9,2.5,12.2,2.5,18.7l0,0c0,6.5-0.9,12.7-2.5,18.6c-1.8,6.3-4.4,12.1-7.8,17.2
								c-1.8,2.7-3.8,5.2-6,7.4c-2.3,2.3-4.8,4.3-7.4,6c-2.8,1.7-5.7,3.1-8.7,4C1237.8,499.9,1234.6,500.4,1231.4,500.4z
								 M1231.4,394.3c-2.9,0-5.8,0.5-8.6,1.3c-2.7,0.8-5.4,2.1-7.9,3.7c-2.3,1.5-4.6,3.4-6.8,5.6c-2,2.1-3.8,4.4-5.5,6.9
								c-3.1,4.8-5.5,10.3-7.2,16.3c-0.8,2.8-1.3,5.7-1.7,8.8c-0.4,2.9-0.6,5.9-0.6,8.9s0.2,6,0.6,8.9c0.4,3,1,6,1.7,8.8
								c1.6,6,4.1,11.5,7.2,16.2c1.7,2.5,3.5,4.9,5.5,6.9c2.2,2.2,4.4,4.1,6.8,5.6c2.5,1.6,5.2,2.8,7.9,3.7c2.8,0.9,5.7,1.3,8.6,1.3
								s5.8-0.5,8.6-1.3c2.7-0.8,5.4-2.1,7.9-3.7c2.3-1.5,4.6-3.4,6.8-5.6c2-2.1,3.9-4.4,5.5-6.9c3.1-4.8,5.6-10.3,7.2-16.3
								c1.5-5.6,2.3-11.6,2.3-17.7s-0.8-12.1-2.3-17.7c-1.7-6-4.1-11.5-7.2-16.3c-1.7-2.5-3.5-4.9-5.5-6.9c-2.1-2.2-4.4-4.1-6.8-5.6
								c-2.5-1.6-5.2-2.8-7.9-3.7C1237.2,394.8,1234.3,394.4,1231.4,394.3z"/>
						</g>
					</g>
					<g>
						<g>
							<path class="st13" d="M1184.1,424.8l12.2-0.1l12.2-0.1h24.3h24.3l12.2,0.1l12.2,0.1l0,0l0,0l-12.2,0.1l-12.2,0.1h-24.3h-24.3
								l-12.2-0.1L1184.1,424.8C1184.1,424.9,1184.1,424.8,1184.1,424.8L1184.1,424.8z"/>
						</g>
						<g>
							<polygon class="st13" points="1232.8,426.5 1196.3,426.4 1183.5,426.3 1182.7,425.4 1182.7,424.8 1182.7,423.4 1184.1,423.4 
								1208.4,423.2 1232.8,423.2 1269.3,423.3 1282.9,423.4 1282.9,426.2 1281.5,426.3 1257.1,426.4 							"/>
						</g>
					</g>
					<g>
						<g>
							<path class="st13" d="M1198.2,404.3c2.9,0,5.8-0.1,8.6-0.1l8.6-0.1c2.9,0,5.8,0,8.6,0h8.6h17.3l8.6,0.1
								c2.9,0,5.8,0.1,8.6,0.1l0,0l0,0c-2.9,0-5.8,0.1-8.6,0.1l-8.6,0.1h-17.3h-8.6c-2.9,0-5.8,0-8.6,0l-8.6-0.1
								C1204,404.5,1201.1,404.4,1198.2,404.3C1198.2,404.4,1198.2,404.4,1198.2,404.3L1198.2,404.3z"/>
						</g>
						<g>
							<path class="st13" d="M1232.8,406h-10.9c-2.1,0-4.3,0-6.4,0l-11.5-0.1c-1.9,0-3.8,0-5.8-0.1h-1.4l-0.1-2.8h1.4
								c1.9,0,3.7,0,5.6-0.1l11.7-0.1c2,0,4.1,0,6.1,0h11.2l29.1,0.1c1.8,0,3.7,0,5.5,0.1h1.4l-0.1,2.8h-1.4c-1.9,0-3.8,0-5.8,0.1
								l-11.5,0.1H1232.8z"/>
						</g>
					</g>
					<g>
						<g>
							<path class="st13" d="M1179.9,445.2l13.2-0.1l13.2-0.1h26.5h26.5l13.2,0.1l13.2,0.1l0,0l0,0l-13.2,0.1l-13.2,0.1h-26.5h-26.5
								l-13.2-0.1L1179.9,445.2C1179.8,445.3,1179.8,445.3,1179.9,445.2C1179.8,445.3,1179.9,445.2,1179.9,445.2z"/>
						</g>
						<g>
							<polygon class="st13" points="1232.8,446.9 1193.1,446.8 1178.5,446.7 1178.4,443.9 1179.9,443.8 1206.3,443.7 1232.8,443.6 
								1272.5,443.7 1286.3,443.9 1287.1,444.7 1287.1,446.7 1285.7,446.7 1259.3,446.9 							"/>
						</g>
					</g>
					<g>
						<g>
							<path class="st13" d="M1184.1,465.7l12.2-0.1l12.2-0.1h24.3h24.3l12.2,0.1l12.2,0.1l0,0v0.1l-12.2,0.1l-12.2,0.1h-24.3h-24.3
								l-12.2-0.1L1184.1,465.7C1184.1,465.8,1184.1,465.8,1184.1,465.7L1184.1,465.7z"/>
						</g>
						<g>
							<polygon class="st13" points="1232.8,467.4 1196.3,467.3 1183.5,467.2 1182.7,466.3 1182.7,465.7 1182.7,464.4 1184.1,464.3 
								1208.4,464.1 1232.8,464.1 1269.3,464.2 1282.9,464.3 1282.9,467.1 1281.5,467.2 1257.1,467.4 							"/>
						</g>
					</g>
					<g>
						<g>
							<path class="st13" d="M1269.1,486.4H1200c-0.1,0-0.2-0.1-0.2-0.2s0.1-0.2,0.2-0.2h69.1c0.1,0,0.2,0.1,0.2,0.2
								S1269.2,486.4,1269.1,486.4z"/>
						</g>
						<g>
							<path class="st13" d="M1269.1,487.8H1200c-0.9,0-1.6-0.7-1.6-1.6s0.7-1.6,1.6-1.6h69.1c0.9,0,1.6,0.7,1.6,1.6
								S1270,487.8,1269.1,487.8z"/>
						</g>
					</g>
				</g>
				<g class="st25">
					<path class="st13" d="M1232.8,501.5c-31.3,0-56.8-25.2-56.8-56.2s25.5-56.2,56.8-56.2s56.8,25.2,56.8,56.2
						S1264.1,501.5,1232.8,501.5z M1232.8,394c-28.6,0-51.9,23-51.9,51.2c0,28.3,23.3,51.2,51.9,51.2s51.9-23,51.9-51.2
						C1284.6,417,1261.4,394,1232.8,394z"/>
				</g>
			</g>
			<g class="st0">
				<path class="st1" d="M1287.4,399.8h-16.3v-4.2l5.4-7.7c1.5-2.1,2.5-3.7,3.1-4.7s1-2,1.2-2.9c0.3-0.9,0.4-1.9,0.4-2.9
					c0-1.2-0.3-2-0.8-2.6s-1.2-0.9-2-0.9c-0.7,0-1.4,0.2-2.1,0.6c-0.6,0.4-1.4,1.1-2.3,2.1l-3.2-3.3c1.5-1.6,2.8-2.8,4.1-3.4
					c1.3-0.6,2.6-0.9,4.1-0.9c2.5,0,4.4,0.7,5.8,2.2c1.4,1.4,2.1,3.5,2.1,6c0,1.2-0.1,2.3-0.4,3.3s-0.6,2.1-1.1,3.1
					s-1.1,2.1-1.9,3.3c-0.8,1.1-2.7,3.7-5.9,7.8v0.2h10L1287.4,399.8L1287.4,399.8z"/>
				<path class="st1" d="M1308.4,393.4h-3.1v6.4h-5.3v-6.4h-9.9v-4.6l9.2-19.5h6.1v19.4h3.1L1308.4,393.4L1308.4,393.4z M1300,388.7
					v-6.4l0.1-2.8l0.2-2.7h-0.2c-0.5,1.5-1,2.9-1.6,4.1l-3.7,7.9L1300,388.7L1300,388.7z"/>
			</g>
			<g>
				<path class="st13" d="M1179.2,441.1c0-2.3,1.6-4,3.8-4s3.8,1.7,3.8,4s-1.5,4-3.9,4C1180.7,445.2,1179.2,443.4,1179.2,441.1z"/>
				<path class="st13" d="M1194,444.5v-43.1h6.1l13.8,21.8c3.1,5.1,5.7,9.6,7.7,14l0.2-0.1c-0.5-5.8-0.6-11-0.6-17.7v-18h5.2v43.1
					h-5.6l-13.7-21.9c-3-4.8-5.9-9.7-8-14.4l-0.2,0.1c0.3,5.4,0.4,10.6,0.4,17.8v18.4L1194,444.5L1194,444.5z"/>
				<path class="st13" d="M1258.3,424.2h-16.7v15.5h18.7v4.7H1236v-43.1h23.3v4.7h-17.7v13.6h16.7V424.2z"/>
				<path class="st13" d="M1276.7,406.1h-13.1v-4.7h20.9h11.1v4.7h-13.2v38.4h-5.6v-38.4H1276.7z"/>
			</g>
			<g>
				<path class="st13" d="M1222.6,476c-1,0.5-3,1-5.5,1c-5.9,0-10.3-3.7-10.3-10.6c0-6.6,4.4-10.9,10.9-10.9c2.6,0,4.2,0.6,4.9,0.9
					l-0.7,2.2c-1-0.5-2.4-0.9-4.2-0.9c-4.9,0-8.1,3.1-8.1,8.6c0,5.1,2.9,8.4,8,8.4c1.7,0,3.3-0.3,4.4-0.9L1222.6,476z"/>
				<path class="st13" d="M1239.1,469.1c0,5.5-3.9,7.9-7.5,7.9c-4,0-7.2-3-7.2-7.7c0-5,3.3-7.9,7.4-7.9
					C1236.2,461.4,1239.1,464.5,1239.1,469.1z M1227.3,469.2c0,3.3,1.9,5.8,4.5,5.8s4.5-2.4,4.5-5.8c0-2.5-1.3-5.7-4.5-5.7
					C1228.7,463.4,1227.3,466.4,1227.3,469.2z"/>
				<path class="st13" d="M1242.6,466.4c0-1.8,0-3.3-0.1-4.7h2.4l0.1,3h0.1c0.7-2,2.3-3.3,4.2-3.3c0.3,0,0.5,0,0.7,0.1v2.6
					c-0.3-0.1-0.6-0.1-0.9-0.1c-1.9,0-3.3,1.4-3.6,3.5c-0.1,0.4-0.1,0.8-0.1,1.3v8h-2.7L1242.6,466.4L1242.6,466.4z"/>
				<path class="st13" d="M1253.9,469.7c0.1,3.7,2.4,5.2,5.1,5.2c1.9,0,3.2-0.3,4.1-0.8l0.5,1.9c-1,0.4-2.6,1-5,1
					c-4.6,0-7.4-3.1-7.4-7.6s2.7-8,7-8c4.9,0,6.2,4.3,6.2,7c0,0.6,0,1-0.1,1.3H1253.9z M1261.8,467.7c0-1.7-0.7-4.4-3.8-4.4
					c-2.8,0-4,2.5-4.2,4.4H1261.8z"/>
			</g>
		</g>
		<g>
			<path class="st46" d="M1261.7,135.8v96.5c0,11.5,9,20.9,20.5,21.4l120.7,5.7c12.2,0.6,22.5-9.2,22.5-21.4V135.8
				c0-11.9-9.6-21.5-21.5-21.5h-120.7C1271.3,114.4,1261.7,124,1261.7,135.8z"/>
			<g>
				<text transform="matrix(1.1584 -9.981512e-02 0.1164 0.9932 1355.9008 202.2424)" class="st13 st48 st49">#</text>
				<g>
					<path class="st13" d="M1365.4,216c-3.2,1.5-10.2,3.9-19.2,3.9c-20.1,0-33.3-13.7-33.3-34.1c0-20.6,14.1-35.6,35.9-35.6
						c7.2,0,13.5,1.8,16.8,3.6l-2.8,9.2c-2.9-1.5-7.5-3.2-14.1-3.2c-15.3,0-23.6,11.5-23.6,25.3c0,15.5,9.9,25,23.2,25
						c6.9,0,11.5-1.7,14.9-3.2L1365.4,216z"/>
				</g>
			</g>
			<g class="st0">
				<g class="st25">
					<g>
						<g>
							<g>
								<g>
									<path class="st13" d="M1307.7,161.8l-4.7-17.4l-13.7-7.5l-1.8,3.4l12.3,6.6l14.7,53.8l0.4,1.6h59.8
										c5.8,0,11.2-2.9,14.3-7.8l2.7-3.5c2.9-4.5,4.8-9.6,4.8-14.9v-14.2L1307.7,161.8L1307.7,161.8z M1392.2,176
										c0,4.6-1.4,9-3.9,12.9l-2.4,4c-2.4,3.8-6.7,6.5-11.2,6.5h-56.9l-3.1-11.5l-5.9-21.7h83.4V176z"/>
								</g>
								<g>
									<path class="st13" d="M1388.4,221.7c0,1.1-0.9,2.2-1.9,2.2h-70.2c-1.1,0-2.2-1.7-2.2-2.7v-33.1c0-0.4,0.2-0.3,0.4-0.6
										l3.2,11.8h0.7v20.2h68C1387.6,219.6,1388.4,220.7,1388.4,221.7z"/>
								</g>
							</g>
							<g>
								<rect x="1349.5" y="163.7" class="st13" width="2.6" height="36"/>
								<g>
									<rect x="1326.8" y="163.7" class="st13" width="2.6" height="36"/>
									<rect x="1371.6" y="163.7" class="st13" width="2.6" height="36"/>
								</g>
							</g>
							<g>
								<rect x="1309.8" y="174.3" class="st13" width="83.3" height="2.3"/>
								<rect x="1313.4" y="186.9" class="st13" width="77.6" height="2.3"/>
							</g>
						</g>
						<path class="st13" d="M1325.3,226.4c-4.6,0-8.3,3.7-8.3,8.3s3.7,8.3,8.3,8.3c4.6,0,8.3-3.7,8.3-8.3S1329.9,226.4,1325.3,226.4
							z M1325.3,239.6c-2.8,0-5-2.2-5-5s2.2-5,5-5s5,2.2,5,5S1328.1,239.6,1325.3,239.6z"/>
						<path class="st13" d="M1376.7,226.4c-4.6,0-8.3,3.7-8.3,8.3s3.7,8.3,8.3,8.3c4.6,0,8.3-3.7,8.3-8.3
							C1385,230.1,1381.3,226.4,1376.7,226.4z M1376.7,239.6c-2.8,0-5-2.2-5-5s2.2-5,5-5s5,2.2,5,5S1379.5,239.6,1376.7,239.6z"/>
					</g>
					<path class="st13" d="M1297.8,140.2c0,2.1-1.7,3.9-3.9,3.9H1281c-2.2,0-3.9-1.7-3.9-3.9s1.7-3.9,3.9-3.9h12.9
						C1296.1,136.4,1297.8,138.1,1297.8,140.2z"/>
				</g>
			</g>
		</g>
		<g>
			<path class="st46" d="M954.6,450.8c0,0,235.8-116.5,158.7-202.3S892.4,197,885.1,287.3C877.8,377.5,1052.8,356.4,954.6,450.8z"/>
			<g>
				<path class="st13" d="M1093.3,272.2H989.2c-0.9,0-1.6-0.7-1.6-1.6s0.7-1.6,1.6-1.6h104.1c0.9,0,1.6,0.7,1.6,1.6
					S1094.2,272.2,1093.3,272.2z"/>
				<path class="st13" d="M958.3,272.2h-30.9c-0.9,0-1.6-0.7-1.6-1.6s0.7-1.6,1.6-1.6h30.9c0.9,0,1.6,0.7,1.6,1.6
					S959.2,272.2,958.3,272.2z"/>
				<path class="st13" d="M1096.8,293.3h-39.1c-0.9,0-1.6-0.7-1.6-1.6s0.7-1.6,1.6-1.6h39.1c0.9,0,1.6,0.7,1.6,1.6
					C1098.4,292.6,1097.7,293.3,1096.8,293.3z"/>
				<path class="st13" d="M1000.4,293.3H931c-0.9,0-1.6-0.7-1.6-1.6s0.7-1.6,1.6-1.6h69.4c0.9,0,1.6,0.7,1.6,1.6
					S1001.3,293.3,1000.4,293.3z"/>
				<path class="st13" d="M1100.3,314.4H996.4c-0.9,0-1.6-0.7-1.6-1.6s0.7-1.6,1.6-1.6h103.9c0.9,0,1.6,0.7,1.6,1.6
					C1101.9,313.6,1101.2,314.4,1100.3,314.4z"/>
				<path class="st13" d="M970.4,314.4h-36c-0.9,0-1.6-0.7-1.6-1.6s0.7-1.6,1.6-1.6h36c0.9,0,1.6,0.7,1.6,1.6
					C972,313.6,971.3,314.4,970.4,314.4z"/>
			</g>
		</g>
		<g>
			<path class="st46" d="M1440.8,306.6v92.3c0,11,8.6,20,19.6,20.5l115.4,5.4c11.7,0.5,21.5-8.8,21.5-20.5v-97.7
				c0-11.3-9.2-20.5-20.5-20.5h-115.4C1450,286.1,1440.8,295.3,1440.8,306.6z"/>
			<g class="st0">
				<path class="st1" d="M1559,397.3h-79.6c-6,0-10.8-4.9-10.8-10.8v-58.2c0-6,4.8-10.8,10.8-10.8h79.6c6,0,10.8,4.9,10.8,10.8v58.2
					C1569.8,392.4,1565,397.3,1559,397.3z M1479.4,324.6c-2,0-3.7,1.6-3.7,3.7v58.2c0,2,1.7,3.7,3.7,3.7h79.6c2,0,3.7-1.6,3.7-3.7
					v-58.2c0-2-1.7-3.7-3.7-3.7H1479.4z"/>
				<path class="st1" d="M1519.3,358.6c-0.7,0-1.4-0.2-2.1-0.7l-44.6-31.6c-1.6-1.1-2-3.4-0.8-5c1.1-1.6,3.4-2,5-0.8l42.5,30.1
					l42-29.8c1.6-1.1,3.8-0.8,5,0.8s0.8,3.8-0.8,5l-44,31.3C1520.7,358.4,1520,358.6,1519.3,358.6z"/>
				<path class="st1" d="M1475.3,394.8l-1-7l0.5,3.5l-3-1.9c0.8-1.3,16.9-29.5,27.5-48c1-1.7,3.2-2.3,4.9-1.3c1.7,1,2.3,3.1,1.3,4.9
					c0,0-6.9,12-13.8,24.1c-3.4,6-6.9,12-9.5,16.6C1477,394.5,1477,394.5,1475.3,394.8z"/>
				<path class="st1" d="M1563,394.8c-1.7-0.3-1.7-0.3-6.9-9.3c-2.6-4.5-6.1-10.5-9.5-16.6c-6.9-12-13.8-24.1-13.8-24.1
					c-1-1.7-0.4-3.9,1.3-4.9c1.7-1,3.9-0.4,4.9,1.3c10.6,18.6,26.7,46.7,27.5,48l-3,1.9L1563,394.8z"/>
			</g>
			<path class="st13" d="M1545.2,299.5c-0.3-0.3-0.8-0.5-1.3-0.5h-51.2c-7.1,0-12.7,5.7-12.9,12.9v84.1c0,7.1,5.7,12.7,12.9,12.9
				h62.2c7.1,0,12.7-5.7,12.9-12.9v-73.1c0-0.5-0.2-0.9-0.5-1.3L1545.2,299.5z M1545.7,305.2l15.7,15.7h-6.5c-5.1,0-9.2-4.1-9.2-9.2
				L1545.7,305.2L1545.7,305.2z M1492.8,302.6h49.4v9.2c0,7.1,5.7,12.7,12.9,12.9h9.2v51.2h-80.5v-64
				C1483.6,306.7,1487.7,302.6,1492.8,302.6z M1554.9,405.1h-62.2c-5.1,0-9.2-4.1-9.2-9.2v-16.4h80.5v16.4
				C1564.1,401,1560,405.1,1554.9,405.1z M1493.3,347.8c-0.7-0.7-0.7-1.9,0-2.6l0,0l11-11c0.7-0.7,1.9-0.7,2.6,0
				c0.7,0.7,0.7,1.9,0,2.6l-9.7,9.7l9.7,9.7c0.7,0.7,0.7,1.9,0,2.6c-0.7,0.7-1.9,0.7-2.6,0L1493.3,347.8z M1540.8,356.2l9.7-9.7
				l-9.7-9.7c-0.7-0.7-0.7-1.9,0-2.6c0.7-0.7,1.9-0.7,2.6,0l11,11c0.7,0.7,0.7,1.9,0,2.6l0,0l-11,11c-0.7,0.7-1.9,0.7-2.6,0
				C1540.2,358.1,1540.2,356.9,1540.8,356.2z M1515,356.5l14.6-21.9c0.5-0.8,1.7-1.1,2.5-0.5s1.1,1.7,0.5,2.5l-14.6,21.9
				c-0.5,0.8-1.7,1.1-2.5,0.5C1514.7,358.4,1514.5,357.4,1515,356.5L1515,356.5L1515,356.5z M1516.2,342.8c0.1,0,0.1,0,0.2,0
				c3.1,0,5.5-2.4,5.5-5.5c0-3.1-2.4-5.5-5.5-5.5c-3.1,0-5.5,2.4-5.5,5.5C1511,340.3,1513.3,342.7,1516.2,342.8z M1515.3,336
				c0.3-0.3,0.7-0.5,1.3-0.5c0,0,0,0,0.1,0c1.1,0,1.8,0.8,1.8,1.9s-0.8,1.8-1.9,1.8c-1.1,0-1.8-0.8-1.8-1.9
				C1514.7,336.8,1514.9,336.4,1515.3,336L1515.3,336z M1525.6,355.7c0,3.1,2.4,5.5,5.5,5.5s5.5-2.4,5.5-5.5c0-3.1-2.4-5.5-5.5-5.5
				C1528.1,350.2,1525.6,352.6,1525.6,355.7z M1533,355.7c0,1.1-0.8,1.8-1.8,1.8c-1.1,0-1.8-0.8-1.8-1.8s0.8-1.8,1.8-1.8
				C1532.1,353.8,1533,354.6,1533,355.7z"/>
			<g>
				<path class="st13" d="M1515.4,399.8h-3.9v-10.1l-2.8,6.5h-2.7l-2.8-6.5v10.1h-3.7v-15h4.5l3.4,7.5l3.4-7.5h4.5V399.8z"/>
				<path class="st13" d="M1532.9,384.8l-5.5,15h-4.3l-5.5-15h4.1l3.6,10.5l3.6-10.5H1532.9z"/>
				<path class="st13" d="M1541.8,400.1c-1.1,0-2.1-0.2-3.1-0.5c-0.9-0.3-1.8-0.8-2.4-1.5c-0.7-0.7-1.2-1.5-1.6-2.4
					c-0.4-1-0.6-2.1-0.6-3.4c0-1.2,0.2-2.3,0.5-3.2c0.4-1,0.9-1.8,1.6-2.5c0.7-0.7,1.5-1.2,2.4-1.5c1-0.4,2-0.5,3.2-0.5
					c0.6,0,1.2,0,1.7,0.1c0.5,0.1,1,0.2,1.4,0.3c0.5,0.1,0.9,0.3,1.2,0.4c0.4,0.2,0.7,0.3,1,0.4v3.6h-0.4c-0.2-0.2-0.4-0.4-0.7-0.6
					c-0.3-0.2-0.6-0.4-1-0.7c-0.4-0.2-0.8-0.4-1.2-0.5c-0.4-0.1-0.9-0.2-1.4-0.2c-0.5,0-1.1,0.1-1.6,0.3c-0.5,0.2-0.9,0.5-1.4,0.9
					c-0.4,0.4-0.7,0.9-1,1.5c-0.2,0.6-0.4,1.4-0.4,2.3c0,0.9,0.1,1.7,0.4,2.4c0.3,0.6,0.6,1.1,1,1.5c0.4,0.4,0.9,0.6,1.4,0.8
					c0.5,0.2,1,0.2,1.5,0.2c0.5,0,0.9-0.1,1.4-0.2c0.5-0.1,0.9-0.3,1.3-0.6c0.3-0.2,0.6-0.4,0.9-0.6c0.3-0.2,0.5-0.4,0.7-0.6h0.4
					v3.6c-0.4,0.2-0.7,0.3-1.1,0.5c-0.3,0.1-0.7,0.3-1.1,0.4c-0.5,0.1-1,0.2-1.4,0.3C1543.2,400.1,1542.6,400.1,1541.8,400.1z"/>
			</g>
		</g>
		<g>
			<path class="st46" d="M1511.6,28.4v81.2c0,9.7,7.6,17.6,17.2,18l101.5,4.8c10.3,0.5,18.9-7.7,18.9-18.1v-86
				c0-10-8.1-18.1-18.1-18.1h-101.5C1519.7,10.4,1511.6,18.4,1511.6,28.4z"/>
			<path class="st47" d="M1537.6,126c-1.5,0-2.8-0.4-3.8-1.4l-2.9-2.7c-1.4-1.3-2-3.3-1.7-5.6c0.3-2.2,1.5-4.5,3.2-6.4l2-2.1
				c0.1-0.2,0.3-0.3,0.4-0.4l36.6-36.6c0.3-0.3,0.9-0.3,1.3,0c0.3,0.3,0.3,0.9,0,1.3l-36.6,36.6c-0.1,0.1-0.3,0.3-0.4,0.4l-2,2.1
				c-1.5,1.6-2.5,3.6-2.8,5.4c-0.3,1.7,0.1,3.2,1.1,4.1l2.9,2.7c2.1,1.9,6.3,0.8,9.3-2.5l2-2.1c0.1-0.1,0.2-0.3,0.3-0.4l29.3-34.8
				c0.3-0.4,0.9-0.4,1.3-0.1s0.4,0.9,0.1,1.3l-29.3,34.8c-0.1,0.2-0.3,0.3-0.4,0.5l-2,2.1C1543.2,124.6,1540.2,126,1537.6,126z
				 M1538.4,120.2c-1,0-1.9-0.3-2.6-0.9c-2-1.9-1.3-5.8,1.6-9c1.3-1.4,2.9-2.5,4.5-3c1.7-0.5,3.3-0.3,4.3,0.7c1,0.9,1.4,2.5,1,4.2
				c-0.3,1.6-1.3,3.3-2.6,4.8C1542.8,119.1,1540.4,120.2,1538.4,120.2z M1543.7,108.8c-0.5,0-0.9,0.1-1.2,0.2
				c-1.3,0.4-2.6,1.3-3.7,2.5c-2.1,2.3-2.9,5.3-1.7,6.4c1.1,1,3.9,0.3,6.3-2.2c1.1-1.2,1.9-2.6,2.2-3.9c0.1-0.7,0.3-1.9-0.5-2.5
				C1544.6,109,1544.1,108.8,1543.7,108.8z M1589.3,69.7c-0.2,0-0.4-0.1-0.6-0.2c-0.4-0.3-0.4-0.9-0.1-1.3l10.6-12.5l0.7,0.4
				c8.2,5,18.1,3.6,24.5-3.4c4.2-4.5,6.2-10.6,5.6-16.6c-0.1-0.8-0.6-1.5-1.4-1.7c-0.6-0.2-1.5-0.2-2.2,0.6L1615,47.4
				c-1,1.1-2.4,1.7-3.9,1.5l-6.1-0.5c-2.2-0.2-3.9-1.8-4.3-3.9l-1.1-6c-0.3-1.5,0.2-3,1.2-4l11.4-12.4c0.7-0.7,0.6-1.6,0.4-2.2
				c-0.3-0.8-1-1.2-1.8-1.2c-6-0.1-11.9,2.4-16.1,7c-6.4,7-7,17-1.3,24.7l0.5,0.6l-13.7,13.7c-0.3,0.3-0.9,0.3-1.3,0
				c-0.3-0.3-0.3-0.9,0-1.3l12.6-12.6c-5.7-8.4-5-18.9,1.8-26.4c4.5-4.9,10.9-7.7,17.4-7.6c1.5,0,2.8,0.9,3.4,2.3s0.3,3-0.7,4.2
				L1602,35.7c-0.6,0.7-0.9,1.6-0.7,2.5l1.1,6c0.2,1.3,1.3,2.3,2.7,2.4l6.1,0.5c0.9,0.1,1.8-0.3,2.4-1l11.4-12.4
				c1.1-1.1,2.6-1.5,4.1-1.1c1.4,0.5,2.4,1.7,2.6,3.2c0.7,6.5-1.5,13.1-6,18c-6.9,7.5-17.3,9.1-26.1,4.1l-9.6,11.4
				C1589.8,69.6,1589.5,69.7,1589.3,69.7z"/>
			<g class="st0">
				<path class="st1" d="M1616.7,126.4c-0.2,0-0.5,0-0.7,0c-2.3-0.2-4.3-1.3-5.8-3.1l-34-41.6c-1.5-1.8-1.3-4.4,0.5-5.9l6.7-5.8
					c1.8-1.5,4.4-1.4,5.9,0.3l36.6,39.3c1.6,1.7,2.4,3.9,2.2,6.2s-1.1,4.4-2.9,5.9l-3.2,2.8C1620.7,125.7,1618.7,126.4,1616.7,126.4
					z M1585,71.8l-6.7,5.8c-0.8,0.7-0.9,1.8-0.2,2.6l34,41.6c1,1.3,2.5,2,4.1,2.2s3.2-0.4,4.4-1.4l3.2-2.8c1.2-1.1,2-2.6,2-4.2
					c0.1-1.6-0.5-3.2-1.6-4.4l-36.6-39.3C1586.9,71.2,1585.8,71.1,1585,71.8z"/>
			</g>
			<path class="st13" d="M1583.3,23.7c-0.2,0-0.5,0-0.7,0.1L1541.7,38c-0.9,0.3-1.4,1.2-1.3,2.1l6.5,53c0.1,0.6,0.5,1.2,1,1.5
				l34.5,18.7c0.6,0.3,1.3,0.3,1.9,0l34.7-19c0.6-0.3,0.9-0.9,1-1.5l6.5-53c0.1-0.9-0.4-1.8-1.3-2.1l-41.2-14
				C1583.7,23.8,1583.5,23.7,1583.3,23.7z M1583.2,27.8l39,13.3l-6.1,50.4l-32.8,18l-32.7-17.7l-6.2-50.4L1583.2,27.8z M1583.4,31.6
				c-0.8,0-1.5,0.4-1.8,1.1l-25.4,54.7c-0.5,1,0,2.1,0.9,2.6c0.3,0.1,0.5,0.2,0.8,0.2h8.7c0.8,0,1.4-0.4,1.8-1.1l4.9-10.6h20.1
				l4.9,10.6c0.3,0.7,1,1.1,1.8,1.1h8.7c1.1,0,2-0.9,2-2c0-0.3-0.1-0.6-0.2-0.8l-25.4-54.7C1584.8,32,1584.1,31.6,1583.4,31.6z
				 M1583.3,38.1l22.3,48.1h-4.4l-4.9-10.6c-0.3-0.7-1-1.1-1.8-1.1H1572c-0.8,0-1.4,0.4-1.8,1.1l-4.9,10.6h-4.4L1583.3,38.1z
				 M1583.4,50.1c-0.8,0-1.5,0.4-1.9,1.1l-7.7,16.6c-0.5,1,0,2.1,1,2.6c0.3,0.1,0.5,0.2,0.8,0.2h15.3c1.1,0,2-0.9,2-2
				c0-0.3-0.1-0.6-0.2-0.8l-7.7-16.6C1584.8,50.6,1584.2,50.1,1583.4,50.1z M1583.3,56.7l4.6,10h-9.2L1583.3,56.7z"/>
			<path class="st47" d="M1578.4,76.6l-29.5-34.5c-0.5,0-0.9-0.2-1.3-0.4l-8.8-6.8c-0.2-0.2-0.4-0.4-0.6-0.7l-3.9-7.8
				c-0.5-1-0.2-2.2,0.7-3l2.2-1.9c0.9-0.8,2.1-0.9,3-0.3l7.2,4.9c0.2,0.2,0.4,0.4,0.6,0.6l5.7,9.5c0.3,0.5,0.4,1.1,0.2,1.7
				l30.4,34.1L1578.4,76.6z M1549.6,40.2l29,34l3-2.3l-29.8-33.6l0.3-0.6c0.1-0.2,0.1-0.4,0.1-0.5l-5.7-9.5c0,0,0,0-0.1-0.1
				l-7.2-4.9c-0.2-0.1-0.5-0.1-0.8,0.2l-2.2,1.9c-0.3,0.3-0.4,0.6-0.3,0.8l3.9,7.8c0,0,0,0.1,0.1,0.1l8.8,6.8c0.1,0.1,0.2,0.1,0.4,0
				L1549.6,40.2z"/>
		</g>
	</g>
</g>
</svg>
