<svg xmlns="http://www.w3.org/2000/svg" width="97" height="62" viewBox="0 0 97 62">
  <defs>
    <style>
      .cls-1 {
        fill: #051d3a;
        fill-rule: evenodd;
      }
    </style>
  </defs>
  <path class="cls-1" d="M866.364,1564.19a6.17,6.17,0,0,0-3.538-3.13,6.18,6.18,0,0,0-7.822,3.85,6.177,6.177,0,0,0,.4,4.91l-20.723,19.17H821.7a6.16,6.16,0,0,0-12.031.01l-11.595.01-18.468,15.26a6.039,6.039,0,0,0-3.447-1.06,6.172,6.172,0,1,0,5.35,3.11l17.568-14.51,10.623-.01a6.159,6.159,0,0,0,11.974-.01l14.1-.01,21.468-19.86a5.99,5.99,0,0,0,1.6.83A6.168,6.168,0,0,0,866.364,1564.19Zm-4.045,5.75a3.291,3.291,0,0,1-2.573.16,3.243,3.243,0,0,1-.851-0.43A3.368,3.368,0,1,1,862.319,1569.94Zm-43.262,20.39a3.377,3.377,0,0,1-3.371,3.38,3.372,3.372,0,0,1-3.244-2.47,3.326,3.326,0,0,1-.125-0.91,3.368,3.368,0,0,1,6.644-.79A3.262,3.262,0,0,1,819.057,1590.33Zm-39.526,19.05a3.379,3.379,0,1,1-.461-1.7A3.375,3.375,0,0,1,779.531,1609.38Zm72.411-2.34-4.534,4.46-4.446-4.54-1.993,1.96,4.446,4.54-4.533,4.45,1.955,2,4.533-4.45,4.446,4.54,1.993-1.96-4.446-4.54,4.533-4.46Zm-39.528,0-4.533,4.46-4.447-4.54-1.993,1.96,4.447,4.54-4.534,4.45,1.955,2,4.533-4.45,4.447,4.54,1.993-1.96-4.447-4.54,4.534-4.46Zm9.487-36.09,4.533-4.45,4.446,4.54,1.993-1.96-4.446-4.54,4.534-4.46-1.955-1.99-4.534,4.45-4.446-4.54-1.993,1.96,4.446,4.54-4.533,4.46Zm-39.528,0,4.534-4.45,4.446,4.54,1.993-1.96-4.447-4.54,4.534-4.46-1.955-1.99-4.533,4.45L782.5,1558l-1.993,1.96,4.447,4.54-4.534,4.46Z" transform="translate(-770 -1558)"/>
</svg>
