<?xml version="1.0" encoding="UTF-8" standalone="no"?>
<!-- Created with Inkscape (http://www.inkscape.org/) -->

<svg
   xmlns:dc="http://purl.org/dc/elements/1.1/"
   xmlns:cc="http://creativecommons.org/ns#"
   xmlns:rdf="http://www.w3.org/1999/02/22-rdf-syntax-ns#"
   xmlns:svg="http://www.w3.org/2000/svg"
   xmlns="http://www.w3.org/2000/svg"
   xmlns:sodipodi="http://sodipodi.sourceforge.net/DTD/sodipodi-0.dtd"
   xmlns:inkscape="http://www.inkscape.org/namespaces/inkscape"
   width="18.372507mm"
   height="21.166668mm"
   viewBox="0 0 18.372507 21.166668"
   version="1.1"
   id="svg3710"
   inkscape:version="0.92.5 (2060ec1f9f, 2020-04-08)"
   sodipodi:docname="interactive_designs.svg">
  <defs
     id="defs3704" />
  <sodipodi:namedview
     id="base"
     pagecolor="#ffffff"
     bordercolor="#666666"
     borderopacity="1.0"
     inkscape:pageopacity="0.0"
     inkscape:pageshadow="2"
     inkscape:zoom="1.2140625"
     inkscape:cx="-95.010033"
     inkscape:cy="40.000002"
     inkscape:document-units="mm"
     inkscape:current-layer="layer1"
     showgrid="false"
     inkscape:window-width="1920"
     inkscape:window-height="1031"
     inkscape:window-x="0"
     inkscape:window-y="25"
     inkscape:window-maximized="1" />
  <metadata
     id="metadata3707">
    <rdf:RDF>
      <cc:Work
         rdf:about="">
        <dc:format>image/svg+xml</dc:format>
        <dc:type
           rdf:resource="http://purl.org/dc/dcmitype/StillImage" />
        <dc:title></dc:title>
      </cc:Work>
    </rdf:RDF>
  </metadata>
  <g
     inkscape:label="Layer 1"
     inkscape:groupmode="layer"
     id="layer1"
     transform="translate(-96.64708,-138.25)">
    <g
       id="g1259"
       transform="matrix(0.15670987,0,0,0.15670987,51.683413,90.108806)">
      <path
         inkscape:connector-curvature="0"
         id="path1195"
         d="m 337.28986,439.35892 c 0.088,-2.85873 0.0752,-2.93286 -0.7276,-4.23763 -0.44943,-0.7304 -0.81713,-1.36993 -0.81713,-1.42116 0,-0.2729 2.21517,-1.50521 2.50547,-1.39381 0.188,0.0721 0.76278,0.82496 1.27727,1.67294 0.92274,1.52083 0.93664,1.58758 1.02374,4.91557 l 0.0883,3.37381 -1.71979,-4e-5 -1.71979,-5e-5 z m 37.87818,2.6444 c 0,-0.14552 0.11906,-0.26459 0.26459,-0.26459 0.16147,0 0.26458,-1.21922 0.26458,-3.12849 v -3.1285 l 3.43958,-8.2446 3.43958,-8.2446 v -5.95711 -5.95711 h 1.5875 1.5875 v 6.18799 6.18799 l -3.48121,8.29795 -3.48121,8.29794 -0.11993,2.84427 c -0.0835,1.98065 -0.0307,2.84427 0.17392,2.84427 0.16162,0 0.29385,0.11907 0.29385,0.26459 0,0.15287 -0.83785,0.26458 -1.98437,0.26458 -1.14653,0 -1.98438,-0.11171 -1.98438,-0.26458 z m -31.81807,-10.991 c -0.39912,-0.66077 -0.72568,-1.24026 -0.72568,-1.28775 0,-0.16304 2.10532,-1.47959 2.36604,-1.47959 0.31646,0 1.60271,1.84524 1.60271,2.29923 0,0.26588 -2.02319,1.66952 -2.40642,1.66952 -0.061,0 -0.43753,-0.54063 -0.83665,-1.20141 z m -13.37983,-6.44473 -2.95626,-4.73572 v -10.60474 -10.60474 l 5.4901,-0.0715 5.49011,-0.0715 0.0747,-2.80506 0.0747,-2.80506 -1.26533,-0.47485 c -2.15049,-0.80703 -4.35256,-1.98625 -6.48235,-3.47135 -1.12311,-0.78314 -2.2556,-1.42389 -2.51664,-1.42389 -0.47186,0 -8.80279,8.12123 -8.80279,8.58121 l -2.51355,-2.23643 c 0,0 0.0151,0.29466 4.69636,-4.42747 2.29195,-2.31198 4.16719,-4.35666 4.16719,-4.54374 0,-0.18707 -0.34148,-0.77398 -0.75884,-1.30424 -0.98734,-1.25443 -2.68075,-3.91604 -2.68075,-4.21347 0,-0.25246 2.58895,-1.54112 2.73141,-1.35958 0.0479,0.0611 0.36607,0.58726 0.70701,1.16935 2.47154,4.21959 8.56859,9.32049 11.75967,9.83833 l 0.9415,0.15278 v -2.78835 -2.78834 l -2.24475,-1.49361 c -5.12359,-3.40912 -7.99002,-8.50591 -8.26432,-14.69477 -0.16063,-3.62405 0.33622,-5.99199 1.94302,-9.26042 1.02549,-2.08595 1.62289,-2.90073 3.51181,-4.78965 1.88917,-1.88917 2.70341,-2.48614 4.78965,-3.51155 1.38245,-0.6795 3.34698,-1.40935 4.36563,-1.6219 14.40867,-3.0065 26.49464,10.67658 21.69661,24.56372 -0.94915,2.74715 -2.15302,4.57588 -4.69713,7.13515 -1.27331,1.28088 -2.31511,2.429 -2.31511,2.55138 0,0.12237 0.18833,0.29476 0.41852,0.38309 0.53919,0.20691 5.87953,0.20275 6.65531,-0.005 1.45324,-0.38951 4.86234,-6.35044 5.88221,-10.28527 0.81363,-3.1391 0.96468,-6.86023 0.40276,-9.92187 -0.25372,-1.38245 -0.51706,-2.82592 -0.58518,-3.20771 -0.11202,-0.6278 -0.003,-0.73547 1.14333,-1.12595 0.69696,-0.23748 1.35697,-0.34182 1.46669,-0.23187 0.2758,0.27638 0.97765,3.0451 1.18473,4.67366 0.09,2.78031 -0.166,2.37938 12.07472,2.21182 l -0.0419,3.23628 c -12.08854,-0.11067 -12.02357,-0.85736 -12.07647,2.38125 -0.58474,4.66611 -2.99555,9.90943 -6.41573,13.95367 -1.79387,2.1212 -1.68609,2.18591 3.64109,2.18591 h 4.50622 v 1.83319 c 0,2.72039 -0.11934,2.66473 5.71281,2.66473 h 4.88126 l -0.0715,5.4901 -0.0715,5.49011 h -1.45521 -1.4552 l -0.0707,-3.70417 c -0.0592,-3.10096 -0.14286,-3.75802 -0.51359,-4.0349 -0.28997,-0.21655 -1.4236,-0.33072 -3.28379,-0.33072 -3.69976,0 -3.6725,-0.0267 -3.6725,3.59077 v 2.75923 h -1.45521 -1.4552 v -4.84423 c 0,-3.47927 -0.094,-4.97273 -0.33351,-5.30031 -0.29035,-0.39708 -0.76111,-0.44642 -3.63802,-0.3813 l -3.30452,0.0748 -0.13229,5.15938 -0.13229,5.15937 h -1.45521 -1.45521 l -0.0683,-6.87916 c -0.0605,-6.09004 -0.11938,-6.91711 -0.51359,-7.2099 -0.2843,-0.21115 -1.35968,-0.32942 -2.9744,-0.32712 -4.13302,0.006 -3.69964,-0.83852 -3.78163,7.36832 l -0.0704,7.04786 -1.51407,0.0791 -1.51408,0.0791 -0.0734,-17.54163 -0.0734,-17.54163 -0.70166,-1.19347 c -1.8897,-3.21423 -6.49656,-3.21423 -8.38626,0 l -0.70166,1.19347 -0.0732,18.1901 -0.0732,18.1901 h -5.13071 c -2.82189,0 -5.31905,0.0723 -5.54923,0.1606 -0.36957,0.14182 -0.41851,1.15141 -0.41851,8.63358 v 8.47297 l 2.64583,4.21589 c 1.45521,2.31873 2.64492,4.35698 2.6438,4.52944 -0.002,0.30444 -1.85214,1.50419 -2.31964,1.50419 -0.12785,0 -1.56278,-2.13108 -3.18873,-4.73573 z m 8.22246,-52.34812 c 0.14445,-8.01738 0.27893,-8.70643 2.10382,-10.77962 0.58959,-0.6698 1.68198,-1.53794 2.42753,-1.92919 1.16237,-0.61 1.67605,-0.71137 3.60451,-0.71137 1.92846,0 2.44214,0.10137 3.60451,0.71137 0.74555,0.39125 1.83794,1.25939 2.42753,1.92919 1.82521,2.07355 1.96586,2.78219 2.10012,10.58118 0.0651,3.78354 0.22046,6.98616 0.34517,7.11693 0.65024,0.68184 3.90861,-2.71697 5.30097,-5.52943 2.36095,-4.76894 2.37826,-9.52477 0.0515,-14.15521 -1.97599,-3.9324 -6.35376,-7.33665 -10.55682,-8.2092 -2.21839,-0.46054 -6.4865,-0.2128 -8.41442,0.48841 -4.53363,1.64894 -8.0703,5.18518 -9.72432,9.72311 -0.78561,2.15536 -0.96716,6.50903 -0.36884,8.84452 0.71591,2.79448 1.95275,4.97343 4.01807,7.07868 3.02294,3.08139 2.92936,3.23812 3.08066,-5.15937 z m -0.48928,49.7581 c -1.14977,-1.84633 -2.12677,-3.44347 -2.17112,-3.5492 -0.13092,-0.31211 2.35758,-1.90456 2.58742,-1.65575 0.51972,0.56261 4.23987,6.74104 4.23805,7.03856 -0.002,0.32068 -1.83793,1.52335 -2.32552,1.52335 -0.13109,0 -1.17907,-1.51063 -2.32883,-3.35696 z m 36.72944,-11.79044 0.0738,-3.50573 h 1.45521 1.45521 l 0.0738,3.50573 0.0738,3.50573 h -1.60286 -1.60286 z m -68.56541,-45.38118 c 0,0 -0.0931,0.20358 6.44865,0.20358 4.40285,0 5.96956,-0.084 6.16851,-0.33073 0.14667,-0.1819 0.41301,-1.2237 0.59186,-2.3151 0.70653,-4.31134 2.67092,-8.99445 5.1585,-12.29792 0.65533,-0.87026 1.19151,-1.70505 1.19151,-1.85509 0,-0.15004 -1.96286,-2.23295 -4.3619,-4.62868 l -4.36189,-4.35589 2.37379,-2.37687 c 0,0.33513 8.52984,8.8457 8.86574,8.8457 0.15004,0 0.98483,-0.53618 1.85509,-1.19151 3.30347,-2.48758 7.98658,-4.45197 12.29792,-5.1585 1.0914,-0.17885 2.1332,-0.44519 2.3151,-0.59186 0.24673,-0.19894 0.33073,-1.76566 0.33073,-6.1685 0,-6.54174 0.0435,-6.37237 -1.79108,-6.97783 l 5.29211,0.59089 c -0.25782,0.19624 -0.31904,1.70106 -0.26459,6.50288 l 0.0708,6.24755 2.38125,0.41288 c 4.68993,0.81316 8.27348,2.28081 11.8706,4.86163 1.1287,0.8098 2.18537,1.47237 2.34816,1.47237 0.16279,0 6.42094,-6.63774 8.73292,-8.92969 0,0 0,0 2.42446,2.57969 -0.45959,0 -8.5751,8.33678 -8.5751,8.8089 0,0.25768 0.65485,1.40304 1.45521,2.54525 0.80037,1.1422 1.45521,2.18959 1.45521,2.32752 0,0.13794 -0.61519,0.53893 -1.36709,0.8911 -1.0942,0.5125 -1.39163,0.56668 -1.49005,0.27145 -0.32303,-0.9691 -3.60482,-4.83623 -5.36126,-6.31749 -2.26139,-1.90712 -6.76909,-4.24387 -9.64098,-4.99781 -2.60634,-0.68422 -9.57455,-0.69131 -12.03854,-0.0122 -4.45974,1.2291 -7.77315,3.17225 -11.12544,6.52454 -3.31487,3.31487 -5.27585,6.63614 -6.49068,10.99315 -0.67174,2.40919 -0.80949,8.2642 -0.25843,10.98383 0.24217,1.19515 0.40419,2.20136 0.36003,2.23603 -0.23442,0.18411 -1.94559,0.67077 -2.35851,0.67077 -0.5385,0 -0.86369,-0.95917 -1.37762,-4.06329 l -0.31289,-1.88983 -6.24755,-0.0709 c -4.80182,-0.0544 -6.30664,0.007 -6.50288,0.26459 z"
         style="fill:#f73e00;fill-opacity:0.91764706;stroke-width:0.26458332"
         sodipodi:nodetypes="ccsccsccccsssccccccccccccsssscsssscccccccccscsccsscscccccccccscsccsccccccccccccscsscccccccsscccscsccccccccccccccsscccscscccscccccsccccsccsccsccccccscccccccccccscccscccscccsccccccsccscscccccscccsccccc" />
      <path
         sodipodi:nodetypes="ccscscccccccccccccccc"
         inkscape:connector-curvature="0"
         id="path1200"
         d="m 320.60962,331.14883 c -0.003,-3.50044 -2.09909,-6.96807 -5.48803,-8.5566 -1.30272,-0.61068 -1.84842,-0.70633 -4.02095,-0.70538 -2.20697,0 -2.69526,0.09 -4.00234,0.73123 -1.64165,0.80529 -3.59504,2.72291 -4.41885,4.33771 -2.67092,5.23544 0.45576,12.05418 6.1588,13.43123 1.7001,0.4105 4.31149,0.19561 6.04304,-0.49712 0.92675,-0.37077 1.79301,-0.6744 1.92546,-0.6744 l 2.30079,-2.28674 c -0.0312,-0.0795 0.70204,-2.3382 1.06542,-3.08502 0.29454,-0.87926 0.43732,-1.78789 0.43666,-2.69491 z m -3.18378,0.19428 c -0.004,1.661 -0.44281,2.77559 -1.5105,3.9574 -1.69716,1.87854 -3.86248,2.60895 -6.12573,2.06603 -1.72009,-0.41265 -3.23967,-1.53199 -4.12016,-3.03446 -1.84574,-3.14952 -0.62367,-7.15084 2.67736,-8.76588 1.2246,-0.59883 1.68765,-0.68315 3.26957,-0.59375 1.52156,0.086 2.03964,0.24225 2.97139,0.89709 1.81843,1.27807 2.68713,2.73728 2.81378,4.72634 0.0166,0.26135 0.0249,0.50995 0.0243,0.74723 z"
         style="fill:#ff881c;fill-opacity:0.91764694;stroke-width:0.26458332" />
      <path
         style="fill:#ff881c;fill-opacity:0.91764694;stroke-width:0.26458332"
         d="m 303.18307,360.02571 c -2.39723,-2.55075 -6.29847,-3.64546 -9.85686,-2.48519 -1.36789,0.44598 -1.8313,0.7496 -3.41504,2.23676 -1.6095,1.51004 -1.90402,1.90977 -2.41851,3.27173 -0.64624,1.71052 -0.75875,4.44554 -0.25468,6.18685 1.63431,5.64559 8.58001,8.47906 13.68133,5.58122 1.52072,-0.86386 3.27813,-2.80732 4.06694,-4.49726 0.42218,-0.90449 0.84619,-1.71864 0.94277,-1.80926 l 0.11331,-3.2419 c -0.0772,-0.0367 -1.08784,-2.18556 -1.33382,-2.97883 -0.3868,-0.84275 -0.90437,-1.6031 -1.52544,-2.26412 z m -2.18894,2.32007 c 1.13355,1.21407 1.57615,2.32716 1.60612,3.91956 0.0476,2.53121 -1.03176,4.54542 -3.05378,5.69803 -1.53677,0.87596 -3.41084,1.09937 -5.08098,0.60608 -3.50101,-1.034 -5.34753,-4.78825 -4.04517,-8.22468 0.48334,-1.2746 0.76335,-1.65291 1.97818,-2.67009 1.16849,-0.97835 1.65322,-1.21888 2.78078,-1.37883 2.20063,-0.31213 3.83256,0.15767 5.28586,1.5216 0.19093,0.17925 0.36708,0.35487 0.52899,0.52832 z"
         id="path1202"
         inkscape:connector-curvature="0"
         sodipodi:nodetypes="ccscscccccccccccccccc" />
      <path
         sodipodi:nodetypes="ccscscccccccccccccccc"
         inkscape:connector-curvature="0"
         id="path1204"
         d="m 310.94439,392.41925 c -3.49984,0.0642 -6.93026,2.2207 -8.45925,5.63692 -0.5878,1.31321 -0.67388,1.86049 -0.63492,4.03268 0.0386,2.20663 0.13716,2.69326 0.80117,3.98893 0.83389,1.6273 2.7854,3.54683 4.41436,4.34228 5.28138,2.57888 12.04437,-0.66663 13.3214,-6.39289 0.3807,-1.70702 0.12015,-4.31425 -0.60277,-6.03342 -0.38693,-0.92011 -0.70568,-1.78095 -0.708,-1.91336 l -2.32664,-2.26042 c -0.079,0.0325 -2.35013,-0.66103 -3.1032,-1.01127 -0.88427,-0.27911 -1.79527,-0.40597 -2.70214,-0.38945 z m 0.24997,3.17989 c 1.6608,-0.0251 2.7829,0.39418 3.98322,1.44103 1.90795,1.66403 2.67613,3.81623 2.17291,6.08864 -0.3825,1.72704 -1.47508,3.26598 -2.96191,4.17262 -3.11674,1.90058 -7.13883,0.7487 -8.81138,-2.52356 -0.62017,-1.21393 -0.71257,-1.67543 -0.65088,-3.25867 0.0594,-1.52284 0.20653,-2.04357 0.84496,-2.98664 1.24606,-1.84053 2.68984,-2.73462 4.67637,-2.89606 0.26103,-0.0212 0.50946,-0.0338 0.74671,-0.0374 z"
         style="fill:#ff881c;fill-opacity:0.91764694;stroke-width:0.26458332" />
      <path
         style="fill:#ff881c;fill-opacity:0.91764694;stroke-width:0.26458332"
         d="m 389.4577,372.66844 c 2.90052,1.95959 6.94714,2.16732 10.16222,0.25117 1.23593,-0.73656 1.621,-1.13485 2.83795,-2.93456 1.23704,-1.82769 1.43618,-2.28252 1.63778,-3.7244 0.25326,-1.8109 -0.23992,-4.50344 -1.11544,-6.0908 -2.83865,-5.14642 -10.23811,-6.37906 -14.57511,-2.42795 -1.29288,1.17784 -2.57864,3.4609 -2.97552,5.28316 -0.2124,0.9753 -0.44651,1.8629 -0.52073,1.97257 l 0.60413,3.18713 c 0.0834,0.0188 1.54287,1.892 1.95768,2.61152 0.56306,0.73674 1.23552,1.36429 1.98703,1.87215 z m 1.62367,-2.74551 c -1.37331,-0.93428 -2.05038,-1.92247 -2.43064,-3.46909 -0.60443,-2.45844 0.004,-4.66104 1.72255,-6.23104 1.30588,-1.19318 3.0846,-1.82423 4.82238,-1.71124 3.64284,0.23679 6.27152,3.49163 5.75875,7.13061 -0.19048,1.3498 -0.3802,1.78053 -1.3409,3.04049 -0.92412,1.21185 -1.34387,1.55334 -2.40843,1.95792 -2.07769,0.78957 -3.77304,0.69107 -5.49125,-0.31892 -0.22574,-0.1328 -0.43628,-0.26525 -0.6325,-0.39865 z"
         id="path1206"
         inkscape:connector-curvature="0"
         sodipodi:nodetypes="ccscscccccccccccccccc" />
      <path
         sodipodi:nodetypes="ccscscccccccccccccccc"
         inkscape:connector-curvature="0"
         id="path1208"
         d="m 381.55739,340.95146 c 3.49991,0.0605 7.00493,-1.97254 8.65458,-5.33216 0.63418,-1.29146 0.73969,-1.83533 0.77809,-4.00753 0.04,-2.2066 -0.0412,-2.69644 -0.65864,-4.01492 -0.77543,-1.65596 -2.65736,-3.64376 -4.25696,-4.4967 -5.18623,-2.76527 -12.06047,0.23741 -13.54057,5.91457 -0.44122,1.69238 -0.27367,4.30723 0.38758,6.05106 0.35393,0.9333 0.64182,1.80494 0.63943,1.93734 l 2.24469,2.34183 c 0.0801,-0.0298 2.32511,0.74428 3.06523,1.12111 0.87377,0.31041 1.77968,0.46962 2.68656,0.48541 z m -0.13655,-3.18676 c -1.66063,-0.0341 -2.76711,-0.49302 -3.92939,-1.58194 -1.8475,-1.73091 -2.53888,-3.90888 -1.95476,-6.16214 0.44374,-1.71233 1.59041,-3.2114 3.10858,-4.06452 3.18244,-1.78841 7.16096,-0.49407 8.71595,2.83566 0.57656,1.23525 0.65247,1.69974 0.53446,3.27978 -0.11359,1.51976 -0.27916,2.03493 -0.95076,2.95466 -1.3108,1.79501 -2.7855,2.63713 -4.77651,2.72774 -0.26164,0.0118 -0.51034,0.0156 -0.74757,0.0108 z"
         style="fill:#ff881c;fill-opacity:0.91764694;stroke-width:0.26458332" />
      <path
         style="fill:#ff881c;fill-opacity:0.91764694;stroke-width:0.26458332"
         d="m 353.25709,322.95527 c 2.36492,-2.58073 3.16553,-6.55281 1.74308,-10.01476 -0.54677,-1.33082 -0.8841,-1.77029 -2.48526,-3.2387 -1.62585,-1.49241 -2.04647,-1.75626 -3.443,-2.16774 -1.75396,-0.51685 -4.48975,-0.42506 -6.18862,0.20747 -5.50796,2.05087 -7.81548,9.18856 -4.54522,14.05952 0.97487,1.45205 3.04399,3.05961 4.78807,3.7202 0.93345,0.35353 1.77696,0.71564 1.87453,0.80518 l 3.24132,-0.1288 c 0.0308,-0.0797 2.09834,-1.24783 2.87105,-1.5523 0.81155,-0.44857 1.53117,-1.02142 2.14405,-1.69006 z m -2.47684,-2.00982 c -1.12614,1.22092 -2.20313,1.74533 -3.78886,1.89398 -2.52061,0.23627 -4.60976,-0.68949 -5.90993,-2.62027 -0.98814,-1.46716 -1.35071,-3.31935 -0.98336,-5.02162 0.77,-3.56839 4.37606,-5.68977 7.90005,-4.64736 1.30711,0.38694 1.70524,0.63794 2.81021,1.7735 1.06275,1.09231 1.33879,1.55773 1.5824,2.6702 0.4754,2.17124 0.12862,3.83366 -1.1231,5.38464 -0.16457,0.20374 -0.32656,0.39249 -0.48738,0.56696 z"
         id="path1210"
         inkscape:connector-curvature="0"
         sodipodi:nodetypes="ccscscccccccccccccccc" />
    </g>
  </g>
</svg>
